<svg width="49" height="35" viewBox="0 0 49 35" fill="none" xmlns="http://www.w3.org/2000/svg">
<rect width="49" height="35" rx="7" fill="white"/>
<g filter="url(#filter0_b_875_14955)">
<path d="M0 7C0 3.13401 3.13401 0 7 0L42 0C45.866 0 49 3.13401 49 7V28C49 31.866 45.866 35 42 35H7C3.13401 35 0 31.866 0 28L0 7Z" fill="#232323" fill-opacity="0.3"/>
<path d="M1.76512 7C1.76512 4.10885 4.10885 1.76512 7 1.76512H42C44.8911 1.76512 47.2349 4.10885 47.2349 7V28C47.2349 30.8912 44.8911 33.2349 42 33.2349H7C4.10885 33.2349 1.76512 30.8912 1.76512 28V7Z" stroke="#232323" stroke-opacity="0.3" stroke-width="3.53023"/>
</g>
<path d="M11.8125 0.875H12.6875V34.125H11.8125V23.625H0.875V22.75H11.8125V12.25H0.875V11.375H11.8125V0.875Z" fill="#232323" fill-opacity="0.3"/>
<path d="M36.75 22.75H48.125V23.625H36.75V34.125H35.875V16.625C35.875 13.7255 38.2255 11.375 41.125 11.375H48.125V12.25H41.125C38.7088 12.25 36.75 14.2088 36.75 16.625V22.75Z" fill="#232323" fill-opacity="0.3"/>
<path d="M36.75 0.875H35.875V7.875H36.75V0.875Z" fill="#232323" fill-opacity="0.3"/>
<path fill-rule="evenodd" clip-rule="evenodd" d="M30.625 17.5C30.625 20.8827 27.8827 23.625 24.5 23.625C21.1173 23.625 18.375 20.8827 18.375 17.5C18.375 14.1173 21.1173 11.375 24.5 11.375C27.8827 11.375 30.625 14.1173 30.625 17.5ZM29.75 17.5C29.75 20.3995 27.3995 22.75 24.5 22.75C21.6005 22.75 19.25 20.3995 19.25 17.5C19.25 14.6005 21.6005 12.25 24.5 12.25C27.3995 12.25 29.75 14.6005 29.75 17.5Z" fill="#232323" fill-opacity="0.3"/>
<defs>
<filter id="filter0_b_875_14955" x="-44.1279" y="-44.1279" width="137.256" height="123.256" filterUnits="userSpaceOnUse" color-interpolation-filters="sRGB">
<feFlood flood-opacity="0" result="BackgroundImageFix"/>
<feGaussianBlur in="BackgroundImageFix" stdDeviation="22.064"/>
<feComposite in2="SourceAlpha" operator="in" result="effect1_backgroundBlur_875_14955"/>
<feBlend mode="normal" in="SourceGraphic" in2="effect1_backgroundBlur_875_14955" result="shape"/>
</filter>
</defs>
</svg>
