<svg width="27" height="27" viewBox="0 0 27 27" fill="none" xmlns="http://www.w3.org/2000/svg">
<g id="ic:outline-collections">
<path id="Vector" d="M22.5 4.49805V17.998H9V4.49805H22.5ZM22.5 2.24805H9C7.7625 2.24805 6.75 3.26055 6.75 4.49805V17.998C6.75 19.2355 7.7625 20.248 9 20.248H22.5C23.7375 20.248 24.75 19.2355 24.75 17.998V4.49805C24.75 3.26055 23.7375 2.24805 22.5 2.24805ZM12.9375 13.1268L14.8387 15.6693L17.6287 12.1818L21.375 16.873H10.125L12.9375 13.1268ZM2.25 6.74805V22.498C2.25 23.7355 3.2625 24.748 4.5 24.748H20.25V22.498H4.5V6.74805H2.25Z" fill="#B897CC"/>
</g>
</svg>
