<svg width="28" height="27" viewBox="0 0 28 27" fill="none" xmlns="http://www.w3.org/2000/svg">
<g clip-path="url(#clip0_875_11663)">
<path d="M0.5 5.9043C0.5 5.23297 0.766684 4.58913 1.24139 4.11443C1.71609 3.63973 2.35992 3.37305 3.03125 3.37305H24.9688C25.6401 3.37305 26.2839 3.63973 26.7586 4.11443C27.2333 4.58913 27.5 5.23297 27.5 5.9043V21.0918C27.5 21.7631 27.2333 22.407 26.7586 22.8817C26.2839 23.3564 25.6401 23.623 24.9688 23.623H3.03125C2.35992 23.623 1.71609 23.3564 1.24139 22.8817C0.766684 22.407 0.5 21.7631 0.5 21.0918L0.5 5.9043ZM3.03125 5.06055C2.80747 5.06055 2.59286 5.14944 2.43463 5.30768C2.27639 5.46591 2.1875 5.68052 2.1875 5.9043V21.0918C2.1875 21.3156 2.27639 21.5302 2.43463 21.6884C2.59286 21.8467 2.80747 21.9355 3.03125 21.9355H24.9688C25.1925 21.9355 25.4071 21.8467 25.5654 21.6884C25.7236 21.5302 25.8125 21.3156 25.8125 21.0918V5.9043C25.8125 5.68052 25.7236 5.46591 25.5654 5.30768C25.4071 5.14944 25.1925 5.06055 24.9688 5.06055H3.03125Z" fill="#B897CC"/>
<path d="M3.875 7.5918C3.875 7.36802 3.9639 7.15341 4.12213 6.99518C4.28036 6.83694 4.49497 6.74805 4.71875 6.74805H9.78125C10.005 6.74805 10.2196 6.83694 10.3779 6.99518C10.5361 7.15341 10.625 7.36802 10.625 7.5918C10.625 7.81557 10.5361 8.03018 10.3779 8.18842C10.2196 8.34665 10.005 8.43555 9.78125 8.43555H5.5625V12.6543C5.5625 12.8781 5.47361 13.0927 5.31537 13.2509C5.15714 13.4092 4.94253 13.498 4.71875 13.498C4.49497 13.498 4.28036 13.4092 4.12213 13.2509C3.9639 13.0927 3.875 12.8781 3.875 12.6543V7.5918ZM24.125 19.4043C24.125 19.6281 24.0361 19.8427 23.8779 20.0009C23.7196 20.1592 23.505 20.248 23.2812 20.248H18.2188C17.995 20.248 17.7804 20.1592 17.6221 20.0009C17.4639 19.8427 17.375 19.6281 17.375 19.4043C17.375 19.1805 17.4639 18.9659 17.6221 18.8077C17.7804 18.6494 17.995 18.5605 18.2188 18.5605H22.4375V14.3418C22.4375 14.118 22.5264 13.9034 22.6846 13.7452C22.8429 13.5869 23.0575 13.498 23.2812 13.498C23.505 13.498 23.7196 13.5869 23.8779 13.7452C24.0361 13.9034 24.125 14.118 24.125 14.3418V19.4043Z" fill="#B897CC"/>
</g>
<defs>
<clipPath id="clip0_875_11663">
<rect width="27" height="27" fill="white" transform="translate(0.5 -0.00195312)"/>
</clipPath>
</defs>
</svg>
