<svg width="19" height="18" viewBox="0 0 19 18" fill="none" xmlns="http://www.w3.org/2000/svg">
<g id="mdi:gift-outline">
<path id="Vector" d="M17 9V15C17 15.3978 16.842 15.7794 16.5607 16.0607C16.2794 16.342 15.8978 16.5 15.5 16.5H3.5C3.10218 16.5 2.72064 16.342 2.43934 16.0607C2.15804 15.7794 2 15.3978 2 15V9C1.80109 9 1.61032 8.92098 1.46967 8.78033C1.32902 8.63968 1.25 8.44891 1.25 8.25V6C1.25 5.60218 1.40804 5.22064 1.68934 4.93934C1.97064 4.65804 2.35218 4.5 2.75 4.5H5.1275C5.04274 4.25905 4.99962 4.00542 5 3.75C5 3.15326 5.23705 2.58097 5.65901 2.15901C6.08097 1.73705 6.65326 1.5 7.25 1.5C8 1.5 8.66 1.875 9.0725 2.43V2.4225L9.5 3L9.9275 2.4225V2.43C10.34 1.875 11 1.5 11.75 1.5C12.3467 1.5 12.919 1.73705 13.341 2.15901C13.7629 2.58097 14 3.15326 14 3.75C14.0004 4.00542 13.9573 4.25905 13.8725 4.5H16.25C16.6478 4.5 17.0294 4.65804 17.3107 4.93934C17.592 5.22064 17.75 5.60218 17.75 6V8.25C17.75 8.44891 17.671 8.63968 17.5303 8.78033C17.3897 8.92098 17.1989 9 17 9ZM3.5 15H8.75V9H3.5V15ZM15.5 15V9H10.25V15H15.5ZM7.25 3C7.05109 3 6.86032 3.07902 6.71967 3.21967C6.57902 3.36032 6.5 3.55109 6.5 3.75C6.5 3.94891 6.57902 4.13968 6.71967 4.28033C6.86032 4.42098 7.05109 4.5 7.25 4.5C7.44891 4.5 7.63968 4.42098 7.78033 4.28033C7.92098 4.13968 8 3.94891 8 3.75C8 3.55109 7.92098 3.36032 7.78033 3.21967C7.63968 3.07902 7.44891 3 7.25 3ZM11.75 3C11.5511 3 11.3603 3.07902 11.2197 3.21967C11.079 3.36032 11 3.55109 11 3.75C11 3.94891 11.079 4.13968 11.2197 4.28033C11.3603 4.42098 11.5511 4.5 11.75 4.5C11.9489 4.5 12.1397 4.42098 12.2803 4.28033C12.421 4.13968 12.5 3.94891 12.5 3.75C12.5 3.55109 12.421 3.36032 12.2803 3.21967C12.1397 3.07902 11.9489 3 11.75 3ZM2.75 6V7.5H8.75V6H2.75ZM10.25 6V7.5H16.25V6H10.25Z" fill="#FFFFFF"/>
</g>
</svg>
