<svg width="28" height="28" viewBox="0 0 28 28" fill="none" xmlns="http://www.w3.org/2000/svg">
<g id="emojione:id-button">
<path id="Vector" d="M26.6562 22.4336C26.6562 24.7539 24.7578 26.6523 22.4375 26.6523H5.5625C3.24219 26.6523 1.34375 24.7539 1.34375 22.4336V5.55859C1.34375 3.23828 3.24219 1.33984 5.5625 1.33984H22.4375C24.7578 1.33984 26.6562 3.23828 26.6562 5.55859V22.4336Z" fill="#C28FEF"/>
<path id="Vector_2" d="M20.8344 9.31328C20.6234 8.84922 20.3281 8.38516 19.9484 8.00547C19.5687 7.62578 19.1047 7.33047 18.5984 7.11953C18.0922 6.95078 17.5016 6.82422 16.9531 6.82422H12.7344V21.168H16.9531C17.5016 21.168 18.0922 21.0414 18.5984 20.8305C19.1047 20.6195 19.5687 20.3242 19.9484 19.9445C20.3281 19.5648 20.6234 19.143 20.8344 18.6367C21.0453 18.1305 21.1719 17.6242 21.1719 17.0758V10.8742C21.1719 10.3258 21.0453 9.81953 20.8344 9.31328ZM16.9531 19.3117H14.675V8.68047H16.9531C18.2188 8.68047 19.2313 9.65078 19.2313 10.8742V17.118C19.2313 18.2992 18.2188 19.3117 16.9531 19.3117ZM8.51562 6.82422H10.2031V21.168H8.51562V6.82422Z" fill="white"/>
</g>
</svg>
