<svg width="28" height="27" viewBox="0 0 28 27" fill="none" xmlns="http://www.w3.org/2000/svg">
<path d="M2.75 5.9043C2.75 4.9346 3.13521 4.00462 3.82089 3.31894C4.50657 2.63326 5.43655 2.24805 6.40625 2.24805H17.0938C18.0634 2.24805 18.9934 2.63326 19.6791 3.31894C20.3648 4.00462 20.75 4.9346 20.75 5.9043V8.99805H19.0625V5.9043C19.0625 5.38215 18.8551 4.88139 18.4859 4.51218C18.1167 4.14297 17.6159 3.93555 17.0938 3.93555H6.40625C5.8841 3.93555 5.38335 4.14297 5.01413 4.51218C4.64492 4.88139 4.4375 5.38215 4.4375 5.9043V14.3418C4.4375 15.4285 5.3195 16.3105 6.40625 16.3105H9.5V17.998H6.40625C5.43655 17.998 4.50657 17.6128 3.82089 16.9272C3.13521 16.2415 2.75 15.3115 2.75 14.3418V5.9043ZM21.875 14.9043C21.875 15.2773 21.7268 15.6349 21.4631 15.8987C21.1994 16.1624 20.8417 16.3105 20.4688 16.3105C20.0958 16.3105 19.7381 16.1624 19.4744 15.8987C19.2107 15.6349 19.0625 15.2773 19.0625 14.9043C19.0625 14.5313 19.2107 14.1737 19.4744 13.9099C19.7381 13.6462 20.0958 13.498 20.4688 13.498C20.8417 13.498 21.1994 13.6462 21.4631 13.9099C21.7268 14.1737 21.875 14.5313 21.875 14.9043ZM10.625 13.7793C10.625 13.2992 10.7196 12.8237 10.9033 12.3801C11.0871 11.9365 11.3564 11.5335 11.6959 11.1939C12.3816 10.5083 13.3116 10.123 14.2812 10.123H21.5938C22.0739 10.123 22.5493 10.2176 22.9929 10.4014C23.4365 10.5851 23.8396 10.8544 24.1791 11.1939C24.5186 11.5335 24.7879 11.9365 24.9717 12.3801C25.1554 12.8237 25.25 13.2992 25.25 13.7793V21.0918C25.25 21.5719 25.1554 22.0474 24.9717 22.491C24.7879 22.9346 24.5186 23.3376 24.1791 23.6772C23.8396 24.0167 23.4365 24.286 22.9929 24.4697C22.5493 24.6535 22.0739 24.748 21.5938 24.748H14.2812C13.8011 24.748 13.3257 24.6535 12.8821 24.4697C12.4385 24.286 12.0354 24.0167 11.6959 23.6772C11.3564 23.3376 11.0871 22.9346 10.9033 22.491C10.7196 22.0474 10.625 21.5719 10.625 21.0918V13.7793ZM14.2812 11.8105C13.7591 11.8105 13.2583 12.018 12.8891 12.3872C12.5199 12.7564 12.3125 13.2572 12.3125 13.7793V21.0918C12.3125 21.3055 12.3463 21.5103 12.4093 21.7015L16.2275 18.1184C16.6964 17.6798 17.3145 17.4358 17.9566 17.4358C18.5987 17.4358 19.2168 17.6798 19.6858 18.1184L23.477 21.6655C23.5332 21.4833 23.5625 21.2909 23.5625 21.0918V13.7793C23.5625 13.2572 23.3551 12.7564 22.9859 12.3872C22.6167 12.018 22.1159 11.8105 21.5938 11.8105H14.2812ZM14.2812 23.0605H21.5938C21.8581 23.0605 22.1113 23.0077 22.3419 22.9143L18.5326 19.3503C18.3764 19.2043 18.1705 19.1231 17.9566 19.1231C17.7428 19.1231 17.5369 19.2043 17.3806 19.3503L13.5691 22.9278C13.7896 23.0133 14.0304 23.0605 14.2812 23.0605ZM6.96875 5.62305C7.19253 5.62305 7.40714 5.71194 7.56537 5.87018C7.72361 6.02841 7.8125 6.24302 7.8125 6.4668V7.0293C7.8125 7.25307 7.72361 7.46768 7.56537 7.62592C7.40714 7.78415 7.19253 7.87305 6.96875 7.87305C6.74497 7.87305 6.53036 7.78415 6.37213 7.62592C6.21389 7.46768 6.125 7.25307 6.125 7.0293V6.4668C6.125 6.24302 6.21389 6.02841 6.37213 5.87018C6.53036 5.71194 6.74497 5.62305 6.96875 5.62305ZM7.8125 9.8418C7.8125 9.61802 7.72361 9.40341 7.56537 9.24518C7.40714 9.08694 7.19253 8.99805 6.96875 8.99805C6.74497 8.99805 6.53036 9.08694 6.37213 9.24518C6.21389 9.40341 6.125 9.61802 6.125 9.8418V10.4043C6.125 10.6281 6.21389 10.8427 6.37213 11.0009C6.53036 11.1592 6.74497 11.248 6.96875 11.248C7.19253 11.248 7.40714 11.1592 7.56537 11.0009C7.72361 10.8427 7.8125 10.6281 7.8125 10.4043V9.8418ZM16.5312 5.62305C16.755 5.62305 16.9696 5.71194 17.1279 5.87018C17.2861 6.02841 17.375 6.24302 17.375 6.4668V7.0293C17.375 7.25307 17.2861 7.46768 17.1279 7.62592C16.9696 7.78415 16.755 7.87305 16.5312 7.87305C16.3075 7.87305 16.0929 7.78415 15.9346 7.62592C15.7764 7.46768 15.6875 7.25307 15.6875 7.0293V6.4668C15.6875 6.24302 15.7764 6.02841 15.9346 5.87018C16.0929 5.71194 16.3075 5.62305 16.5312 5.62305ZM7.8125 13.2168C7.8125 12.993 7.72361 12.7784 7.56537 12.6202C7.40714 12.4619 7.19253 12.373 6.96875 12.373C6.74497 12.373 6.53036 12.4619 6.37213 12.6202C6.21389 12.7784 6.125 12.993 6.125 13.2168V13.7793C6.125 14.0031 6.21389 14.2177 6.37213 14.3759C6.53036 14.5342 6.74497 14.623 6.96875 14.623C7.19253 14.623 7.40714 14.5342 7.56537 14.3759C7.72361 14.2177 7.8125 14.0031 7.8125 13.7793V13.2168Z" fill="#B897CC"/>
</svg>
