<svg width="28" height="28" viewBox="0 0 28 28" fill="none" xmlns="http://www.w3.org/2000/svg">
<g id="openmoji:european-name-badge">
<path id="Vector" d="M24.4587 8.30176H3.54083C2.8348 8.30176 2.26245 8.87411 2.26245 9.58013V21.5378C2.26245 22.2438 2.8348 22.8161 3.54083 22.8161H24.4587C25.1647 22.8161 25.7371 22.2438 25.7371 21.5378V9.58013C25.7371 8.87411 25.1647 8.30176 24.4587 8.30176Z" fill="#B897CC"/>
<g id="Vector_2">
<path d="M15.0657 4.72168H12.8573C12.5348 4.72168 12.2734 4.98309 12.2734 5.30555V10.0152C12.2734 10.3376 12.5348 10.5991 12.8573 10.5991H15.0657C15.3882 10.5991 15.6496 10.3376 15.6496 10.0152V5.30555C15.6496 4.98309 15.3882 4.72168 15.0657 4.72168Z" fill="#9B9B9A"/>
<path d="M15.0657 4.72168H12.8573C12.5348 4.72168 12.2734 4.98309 12.2734 5.30555V10.0152C12.2734 10.3376 12.5348 10.5991 12.8573 10.5991H15.0657C15.3882 10.5991 15.6496 10.3376 15.6496 10.0152V5.30555C15.6496 4.98309 15.3882 4.72168 15.0657 4.72168Z" fill="#B897CC"/>
</g>
<path id="Vector_3" d="M21.7085 12.5098H5.89698C5.29265 12.5098 4.80273 12.9997 4.80273 13.604V18.8146C4.80273 19.419 5.29265 19.9089 5.89698 19.9089H21.7085C22.3128 19.9089 22.8027 19.419 22.8027 18.8146V13.604C22.8027 12.9997 22.3128 12.5098 21.7085 12.5098Z" fill="white"/>
<g id="Group">
<g id="Vector_4">
<path d="M20.1484 15.0498H18.6484V17.6748H20.1484M18.6484 16.3623H19.7734M13.3984 17.6748L12.2734 15.0498L11.1484 17.6748M11.5234 17.0463H13.0234M7.77344 17.6748V15.0498L9.64844 17.6748V15.0498M17.1484 17.6748V15.0498L16.0234 17.2998L14.8984 15.0498V17.6748" stroke="black" stroke-linecap="round" stroke-linejoin="round"/>
<path d="M20.1484 15.0498H18.6484V17.6748H20.1484M18.6484 16.3623H19.7734M13.3984 17.6748L12.2734 15.0498L11.1484 17.6748M11.5234 17.0463H13.0234M7.77344 17.6748V15.0498L9.64844 17.6748V15.0498M17.1484 17.6748V15.0498L16.0234 17.2998L14.8984 15.0498V17.6748" stroke="#B897CC" stroke-linecap="round" stroke-linejoin="round"/>
</g>
</g>
</g>
</svg>
