<svg width="28" height="28" viewBox="0 0 28 28" fill="none" xmlns="http://www.w3.org/2000/svg">
<g id="fluent:text-description-ltr-20-regular">
<path id="Vector" d="M3.87495 6.99707C3.69593 6.99707 3.52424 7.06819 3.39765 7.19477C3.27107 7.32136 3.19995 7.49305 3.19995 7.67207C3.19995 7.85109 3.27107 8.02278 3.39765 8.14937C3.52424 8.27595 3.69593 8.34707 3.87495 8.34707H24.125C24.304 8.34707 24.4757 8.27595 24.6022 8.14937C24.7288 8.02278 24.8 7.85109 24.8 7.67207C24.8 7.49305 24.7288 7.32136 24.6022 7.19477C24.4757 7.06819 24.304 6.99707 24.125 6.99707H3.87495ZM3.87495 11.0471C3.69593 11.0471 3.52424 11.1182 3.39765 11.2448C3.27107 11.3714 3.19995 11.543 3.19995 11.7221C3.19995 11.9011 3.27107 12.0728 3.39765 12.1994C3.52424 12.326 3.69593 12.3971 3.87495 12.3971H24.125C24.304 12.3971 24.4757 12.326 24.6022 12.1994C24.7288 12.0728 24.8 11.9011 24.8 11.7221C24.8 11.543 24.7288 11.3714 24.6022 11.2448C24.4757 11.1182 24.304 11.0471 24.125 11.0471H3.87495ZM3.19995 15.7721C3.19995 15.593 3.27107 15.4214 3.39765 15.2948C3.52424 15.1682 3.69593 15.0971 3.87495 15.0971H24.125C24.304 15.0971 24.4757 15.1682 24.6022 15.2948C24.7288 15.4214 24.8 15.593 24.8 15.7721C24.8 15.9511 24.7288 16.1228 24.6022 16.2494C24.4757 16.376 24.304 16.4471 24.125 16.4471H3.87495C3.69593 16.4471 3.52424 16.376 3.39765 16.2494C3.27107 16.1228 3.19995 15.9511 3.19995 15.7721ZM3.87495 19.1471C3.69593 19.1471 3.52424 19.2182 3.39765 19.3448C3.27107 19.4714 3.19995 19.643 3.19995 19.8221C3.19995 20.0011 3.27107 20.1728 3.39765 20.2994C3.52424 20.426 3.69593 20.4971 3.87495 20.4971H17.375C17.554 20.4971 17.7257 20.426 17.8522 20.2994C17.9788 20.1728 18.05 20.0011 18.05 19.8221C18.05 19.643 17.9788 19.4714 17.8522 19.3448C17.7257 19.2182 17.554 19.1471 17.375 19.1471H3.87495Z" fill="#B897CC"/>
</g>
</svg>
