<svg width="24" height="24" viewBox="0 0 24 24" fill="none" xmlns="http://www.w3.org/2000/svg">
<path d="M9.48364 21.128H2.77349C2.32857 21.128 1.90189 20.9513 1.58729 20.6367C1.27269 20.3221 1.09595 19.8954 1.09595 19.4505V2.67554C1.09595 2.23064 1.27269 1.80397 1.58729 1.48937C1.90189 1.17478 2.32857 0.998047 2.77349 0.998047H21.2264C21.6713 0.998047 22.098 1.17478 22.4126 1.48937C22.7272 1.80397 22.9039 2.23064 22.9039 2.67554V11.063M1.09595 6.03054H22.9039" stroke="#B897CC" stroke-width="1.7" stroke-linecap="round" stroke-linejoin="round"/>
<path d="M16.1938 20.2898C18.51 20.2898 20.3877 18.4122 20.3877 16.0961C20.3877 13.7799 18.51 11.9023 16.1938 11.9023C13.8776 11.9023 12 13.7799 12 16.0961C12 18.4122 13.8776 20.2898 16.1938 20.2898Z" stroke="#B897CC" stroke-width="1.7" stroke-linecap="round" stroke-linejoin="round"/>
<path d="M19.1621 19.0645L22.903 22.8053" stroke="#B897CC" stroke-width="1.7" stroke-linecap="round" stroke-linejoin="round"/>
</svg>
