<?xml version="1.0" encoding="utf-8"?>
<!-- Generator: Adobe Illustrator 25.2.3, SVG Export Plug-In . SVG Version: 6.00 Build 0)  -->
<svg version="1.1" id="Layer_1" xmlns="http://www.w3.org/2000/svg"
	xmlns:xlink="http://www.w3.org/1999/xlink" x="0px" y="0px"
	viewBox="0 0 300 300" style="enable-background:new 0 0 300 300;" xml:space="preserve">
<style type="text/css">
	@keyframes rotation {
		0% {
		  transform: rotate(0deg);
		}
		50% {
		  transform: rotate(30deg) translateY(25px);
		}
		100% {
			transform: rotate(0deg);
		  }  
	  }
	  @keyframes swim {
		0% {
			transform: translateY(0);
		  }
		33% {
			transform: translateY(5px);
		}
		33% {
			transform: translateY(-5px);
		  }
		100% {
			transform: translateY(0);
		}
		}
			
	.st0{fill:none;stroke:#5F0A87;stroke-width:8.8915;stroke-miterlimit:10;}
	.st1{fill:#5F0A87;}
	.hand-knock, .up-knock, .middle-knock, .bottom-knock,.hand-knock-f{ 
		animation: rotation 1s linear;
		transform-origin: center;
	}	  
	.octapus{ 
		animation-name: swim;
		animation-duration: 5s;
		animation-iteration-count: infinite;
	}	  
	
</style>
<g class='octapus'>
	<path class="st0 in-head" d="M184.33,41.52h-72.84c-12.84,0-23.25,10.41-23.25,23.25v75.93c0,12.84,10.41,23.25,23.25,23.25h72.84
		c12.84,0,23.25-10.41,23.25-23.25V64.77C207.58,51.93,197.17,41.52,184.33,41.52z"/>
	<path class="st1 hand-a" d="M185.61,209.14h-2.05c-2.36,0-4.27-1.91-4.27-4.27v-38.38c0-2.36,1.91-4.27,4.27-4.27h2.05
		c2.36,0,4.27,1.91,4.27,4.27v38.38C189.87,207.23,187.96,209.14,185.61,209.14z"/>
	<path class="st1 hand-b" d="M167.46,221.62h-2.05c-2.36,0-4.27-1.91-4.27-4.27v-50.87c0-2.36,1.91-4.27,4.27-4.27h2.05
		c2.36,0,4.27,1.91,4.27,4.27v50.87C171.73,219.71,169.82,221.62,167.46,221.62z"/>
	<path class="st1 hand-c" d="M148.94,204.79h-2.05c-2.36,0-4.27-1.91-4.27-4.27v-34.03c0-2.36,1.91-4.27,4.27-4.27h2.05
		c2.36,0,4.27,1.91,4.27,4.27v34.03C153.2,202.88,151.29,204.79,148.94,204.79z"/>
	<path class="st1 hand-d" d="M130.41,221.66h-2.05c-2.36,0-4.27-1.91-4.27-4.27v-52.57c0-2.36,1.91-4.27,4.27-4.27h2.05
		c2.36,0,4.27,1.91,4.27,4.27v52.57C134.68,219.75,132.77,221.66,130.41,221.66z"/>
	<path class="st1 eye-left" d="M121.47,146.05h-2.05c-2.36,0-4.27-1.91-4.27-4.27V108.2c0-2.36,1.91-4.27,4.27-4.27h2.05
		c2.36,0,4.27,1.91,4.27,4.27v33.58C125.74,144.14,123.83,146.05,121.47,146.05z"/>
	<path class="st1 eye-right" d="M176.4,146.05h-2.05c-2.36,0-4.27-1.91-4.27-4.27V108.2c0-2.36,1.91-4.27,4.27-4.27h2.05
		c2.36,0,4.27,1.91,4.27,4.27v33.58C180.67,144.14,178.76,146.05,176.4,146.05z"/>
	<path class="st1 hand-knock" d="M105.76,160.32v24.22c0,2.27-1.84,4.1-4.1,4.1H92.2v10.59h13.47c1.11,0,2.18-0.17,3.18-0.49
		c4.34-1.32,7.49-5.35,7.49-10.12v-28.29H105.76z"/>
	<circle class="st1 hand-knock-f" cx="93.36" cy="194.04" r="8.01"/>
	<circle class="st1 hand-d-f" cx="129.39" cy="215.29" r="8.01"/>
	<circle class="st1 hand-c-f" cx="147.91" cy="198.17" r="8.01"/>
	<circle class="st1 hand-a-f" cx="184.58" cy="204.28" r="8.01"/>
	<circle class="st1 hand-b-f" cx="166.43" cy="215.07" r="8.01"/>
	<g>
		<g>
			<path class="st1 bottom-knock" d="M72.42,193.03c2.4,0.02,4.81,0.04,7.21,0.06c0.35,0,0.69,0.01,1.04,0.01c0.97,0.01,1.9-0.86,1.85-1.85
				c-0.05-1.01-0.81-1.84-1.85-1.85c-2.4-0.02-4.81-0.04-7.21-0.06c-0.35,0-0.69-0.01-1.04-0.01c-0.97-0.01-1.9,0.86-1.85,1.85
				C70.61,192.19,71.38,193.03,72.42,193.03L72.42,193.03z"/>
		</g>
	</g>
	<g>
		<g>
			<path class="st1 up-knock" d="M87.02,174.36c-0.02,2.4-0.04,4.81-0.06,7.21c0,0.35-0.01,0.69-0.01,1.04c-0.01,0.97,0.86,1.9,1.85,1.85
				c1.01-0.05,1.84-0.81,1.85-1.85c0.02-2.4,0.04-4.81,0.06-7.21c0-0.35,0.01-0.69,0.01-1.04c0.01-0.97-0.86-1.9-1.85-1.85
				C87.86,172.56,87.03,173.32,87.02,174.36L87.02,174.36z"/>
		</g>
	</g>
	<g>
		<g>
			<path class="st1 middle-knock" d="M71.67,176.28c3.07,3.11,6.14,6.22,9.22,9.33c0.44,0.44,0.87,0.88,1.31,1.32c0.68,0.69,1.95,0.73,2.62,0
				c0.68-0.74,0.73-1.88,0-2.62c-3.07-3.11-6.14-6.22-9.22-9.33c-0.44-0.44-0.87-0.88-1.31-1.32c-0.68-0.69-1.95-0.73-2.62,0
				C70.98,174.41,70.94,175.55,71.67,176.28L71.67,176.28z"/>
		</g>
	</g>
</g>
<g>
	<g>
		<g>
			<path class="st1 u" d="M143.55,243.18c0,3.78,0,7.57,0,11.35c0,2.4,0,4.81,0,7.21c0,1.44,0.28,3.45-0.69,4.63
				c-0.52,0.64-1.09,0.58-1.82,0.58c-1.15,0-2.3,0-3.45,0c-2,0-4.18,0.26-6.16,0c-1.83-0.24-1.75-2.54-1.75-3.98
				c0-2.12,0-4.24,0-6.36c0-4.48,0-8.96,0-13.43c0-1.8-2.8-1.81-2.8,0c0,4.15,0,8.31,0,12.46c0,2.38,0,4.76,0,7.14
				c0,2.29,0.19,4.73,2.22,6.21c1.7,1.23,4.45,0.77,6.42,0.77c2.11,0,4.24,0.1,6.34,0c5.64-0.27,4.5-8.15,4.5-11.96
				c0-4.87,0-9.74,0-14.61C146.35,241.37,143.55,241.37,143.55,243.18L143.55,243.18z"/>
		</g>
	</g>
	<g>
		<g>
			<g>
				<path class="st1 w-left" d="M148.31,243.18c0,4.44,0,8.87,0,13.31c0,2.31,0,4.61,0,6.92c0,2.71,1.03,6.04,4.21,6.33
					c1.21,0.11,2.77,0.21,3.95-0.1c2.42-0.64,3.49-3.23,3.56-5.51c0.06-1.8-2.74-1.8-2.8,0c-0.05,1.44-0.6,2.81-2.16,2.82
					c-0.86,0.01-2.24,0.28-2.97-0.29c-1.26-0.98-0.98-3.09-0.98-4.52c0-4.87,0-9.73,0-14.6c0-1.45,0-2.91,0-4.36
					C151.12,241.37,148.31,241.37,148.31,243.18L148.31,243.18z"/>
			</g>
		</g>
		<g>
			<g>
				<path class="st1 w-right" d="M157.23,264.13c0.07,2.1,0.92,4.38,2.96,5.28c1.19,0.53,2.69,0.36,3.97,0.34c3.27-0.05,4.78-3.01,4.8-5.97
					c0.03-5.06,0-10.12,0-15.18c0-1.81,0-3.62,0-5.43c0-1.8-2.8-1.81-2.8,0c0,3.66,0,7.32,0,10.97c0,2.42,0,4.83,0,7.25
					c0,1.28,0.22,2.95-0.25,4.17c-0.61,1.58-1.75,1.38-3.17,1.38c-0.49,0-1.06,0.09-1.51-0.14c-0.91-0.48-1.16-1.76-1.19-2.68
					C159.97,262.33,157.17,262.32,157.23,264.13L157.23,264.13z"/>
			</g>
		</g>
	</g>
	<g>
		<g>
			<g>
				<path class="st1 first-o-bottom" d="M122.1,252.05c0,2.8,0,5.59,0,8.39c0,1.72,0.67,6.49-1.95,6.51c-3.1,0.02-6.2,0-9.3,0
					c-0.31,0-0.63,0.03-0.94,0c-1-0.09-1.5-1.27-1.64-2.15c-0.16-1-0.04-2.1-0.04-3.11c0-3.21,0-6.42,0-9.63c0-1.8-2.8-1.81-2.8,0
					c0,3.05,0,6.09,0,9.14c0,1.11-0.06,2.23,0.02,3.33c0.18,2.59,1.78,5.16,4.6,5.23c3.22,0.08,6.46,0,9.68,0
					c0.49,0,0.97,0.01,1.46-0.08c1.46-0.28,2.58-1.48,3.16-2.8c0.63-1.45,0.57-2.94,0.57-4.48c0-3.45,0-6.89,0-10.34
					C124.91,250.25,122.1,250.25,122.1,252.05L122.1,252.05z"/>
			</g>
		</g>
		<g>
			<g>
				<path class="st1 first-o-top" d="M108.23,259.48c0-2.8,0-5.59,0-8.39c0-1.72-0.67-6.49,1.95-6.51c3.1-0.02,6.2,0,9.3,0
					c0.31,0,0.63-0.03,0.94,0c1,0.09,1.5,1.27,1.64,2.15c0.16,1,0.04,2.1,0.04,3.11c0,3.21,0,6.42,0,9.63c0,1.8,2.8,1.81,2.8,0
					c0-3.05,0-6.09,0-9.14c0-1.11,0.06-2.23-0.02-3.33c-0.18-2.59-1.78-5.16-4.6-5.23c-3.22-0.08-6.46,0-9.68,0
					c-0.49,0-0.97-0.01-1.46,0.08c-1.46,0.28-2.58,1.48-3.16,2.8c-0.63,1.45-0.57,2.94-0.57,4.48c0,3.45,0,6.89,0,10.34
					C105.42,261.28,108.23,261.28,108.23,259.48L108.23,259.48z"/>
			</g>
		</g>
	</g>
	<g>
		<g>
			<g>
				<path class="st1 second-o-bottom" d="M209.04,252.05c0,2.8,0,5.59,0,8.39c0,1.72,0.67,6.49-1.95,6.51c-3.1,0.02-6.2,0-9.3,0
					c-0.31,0-0.63,0.03-0.94,0c-1-0.09-1.5-1.27-1.64-2.15c-0.16-1-0.04-2.1-0.04-3.11c0-3.21,0-6.42,0-9.63c0-1.8-2.8-1.81-2.8,0
					c0,3.05,0,6.09,0,9.14c0,1.11-0.06,2.23,0.02,3.33c0.18,2.59,1.78,5.16,4.6,5.23c3.22,0.08,6.46,0,9.68,0
					c0.49,0,0.97,0.01,1.46-0.08c1.46-0.28,2.58-1.48,3.16-2.8c0.63-1.45,0.57-2.94,0.57-4.48c0-3.45,0-6.89,0-10.34
					C211.84,250.25,209.04,250.25,209.04,252.05L209.04,252.05z"/>
			</g>
		</g>
		<g>
			<g>
				<path class="st1 second-o-top" d="M195.16,259.48c0-2.8,0-5.59,0-8.39c0-1.72-0.67-6.49,1.95-6.51c3.1-0.02,6.2,0,9.3,0
					c0.31,0,0.63-0.03,0.94,0c1,0.09,1.5,1.27,1.64,2.15c0.16,1,0.04,2.1,0.04,3.11c0,3.21,0,6.42,0,9.63c0,1.8,2.8,1.81,2.8,0
					c0-3.05,0-6.09,0-9.14c0-1.11,0.06-2.23-0.02-3.33c-0.18-2.59-1.78-5.16-4.6-5.23c-3.22-0.08-6.46,0-9.68,0
					c-0.49,0-0.97-0.01-1.46,0.08c-1.46,0.28-2.58,1.48-3.16,2.8c-0.63,1.45-0.57,2.94-0.57,4.48c0,3.45,0,6.89,0,10.34
					C192.36,261.28,195.16,261.28,195.16,259.48L195.16,259.48z"/>
			</g>
		</g>
	</g>
	<g>
		<g>
			<g>
				<path class="st1 h-top" d="M187.52,243.18c0,2.29,0,4.58,0,6.86c0,1.09,0.11,2.27-0.47,3.25c-0.54,0.91-1.14,0.92-2.06,0.92
					c-2.68,0-5.37,0-8.05,0c-0.59,0-1.47,0.15-2.02-0.09c-1.19-0.53-1.28-2.14-1.28-3.26c0-2.56,0-5.12,0-7.68c0-1.8-2.8-1.81-2.8,0
					c0,2.48,0,4.96,0,7.44c0,1.7,0.22,3.36,1.32,4.75c0.98,1.24,2.28,1.65,3.79,1.65c2.84,0,5.68,0,8.51,0
					c1.13,0,2.26,0.08,3.28-0.53c1.84-1.08,2.57-3.25,2.58-5.28c0.02-2.68,0-5.35,0-8.03C190.33,241.37,187.52,241.37,187.52,243.18
					L187.52,243.18z"/>
			</g>
		</g>
		<g>
			<g>
				<path class="st1 h-bottom" d="M173.65,268.35c0-2.29,0-4.58,0-6.86c0-1.09-0.11-2.27,0.47-3.25c0.54-0.91,1.14-0.92,2.06-0.92
					c2.68,0,5.37,0,8.05,0c0.59,0,1.47-0.15,2.02,0.09c1.19,0.53,1.28,2.14,1.28,3.26c0,2.56,0,5.12,0,7.68c0,1.8,2.8,1.81,2.8,0
					c0-2.48,0-4.96,0-7.44c0-1.7-0.22-3.36-1.32-4.75c-0.98-1.24-2.28-1.65-3.79-1.65c-2.84,0-5.68,0-8.51,0
					c-1.13,0-2.26-0.08-3.28,0.53c-1.84,1.08-2.57,3.25-2.58,5.28c-0.02,2.68,0,5.35,0,8.03
					C170.84,270.16,173.65,270.16,173.65,268.35L173.65,268.35z"/>
			</g>
		</g>
	</g>
	<g>
		<g>
			<g>
				<path class="st1 y-top" d="M100.66,243.18c0,2.8,0,5.59,0,8.39c0,1.72,0.67,6.49-1.95,6.51c-3.1,0.02-6.2,0-9.3,0
					c-0.31,0-0.63,0.03-0.94,0c-1-0.09-1.5-1.27-1.64-2.15c-0.16-1-0.04-2.1-0.04-3.11c0-3.21,0-6.42,0-9.63c0-1.8-2.8-1.81-2.8,0
					c0,3.05,0,6.09,0,9.14c0,1.11-0.06,2.23,0.02,3.33c0.18,2.59,1.78,5.16,4.6,5.23c3.22,0.08,6.46,0,9.68,0
					c0.49,0,0.97,0.01,1.46-0.08c1.46-0.28,2.58-1.48,3.16-2.8c0.63-1.45,0.57-2.94,0.57-4.48c0-3.45,0-6.89,0-10.34
					C103.46,241.37,100.66,241.37,100.66,243.18L100.66,243.18z"/>
			</g>
		</g>
		<g>
			<g>
				<path class="st1 y-bottom" d="M92.1,259.48c0,2.59,0,5.18,0,7.78c0,0.37,0,0.73,0,1.1c0,0.73,0.64,1.44,1.4,1.4
					c0.76-0.03,1.4-0.62,1.4-1.4c0-2.59,0-5.18,0-7.78c0-0.37,0-0.73,0-1.1c0-0.73-0.64-1.44-1.4-1.4
					C92.75,258.11,92.1,258.69,92.1,259.48L92.1,259.48z"/>
			</g>
		</g>
	</g>
	<rect x="170.85" y="243.75" class="st1" width="1.98" height="18.87"/>
	<rect x="188.34" y="243.75" class="st1" width="1.98" height="18.87"/>
	<rect x="154.67" y="267.93" class="st1" width="9.04" height="1.83"/>
	<g>
		<g>
			<path class="st1" d="M160.03,264.13c0-4.75,0-9.5,0-14.24c0-0.67,0-1.34,0-2.01c0-1.8-2.8-1.81-2.8,0c0,4.75,0,9.5,0,14.24
				c0,0.67,0,1.34,0,2.01C157.23,265.93,160.03,265.94,160.03,264.13L160.03,264.13z"/>
		</g>
	</g>
	<g>
		<g>
			<g>
				<path class="st1" d="M96.59,258.07c-1.4,0.02-2.55,0.79-3.36,1.89c-0.78,1.06-1.12,2.44-1.13,3.74c0,0.73,0.65,1.44,1.4,1.4
					c0.76-0.03,1.4-0.62,1.4-1.4c0-0.27,0.02-0.53,0.05-0.8c-0.02,0.12-0.03,0.25-0.05,0.37c0.07-0.45,0.18-0.9,0.36-1.32
					c-0.05,0.11-0.09,0.22-0.14,0.33c0.14-0.33,0.32-0.65,0.54-0.94c-0.07,0.09-0.15,0.19-0.22,0.28c0.18-0.24,0.39-0.45,0.63-0.64
					c-0.09,0.07-0.19,0.15-0.28,0.22c0.19-0.14,0.39-0.26,0.6-0.35c-0.11,0.05-0.22,0.09-0.33,0.14c0.2-0.08,0.4-0.14,0.61-0.16
					c-0.12,0.02-0.25,0.03-0.37,0.05c0.1-0.01,0.2-0.02,0.29-0.02c0.73-0.01,1.44-0.64,1.4-1.4
					C97.96,258.72,97.38,258.07,96.59,258.07L96.59,258.07z"/>
			</g>
		</g>
		<g>
			<g>
				<path class="st1" d="M94.91,263.7c-0.01-1.3-0.35-2.68-1.13-3.74c-0.81-1.1-1.96-1.87-3.36-1.89c-0.73-0.01-1.44,0.65-1.4,1.4
					c0.03,0.77,0.62,1.39,1.4,1.4c0.1,0,0.2,0.01,0.29,0.02c-0.12-0.02-0.25-0.03-0.37-0.05c0.21,0.03,0.41,0.08,0.61,0.16
					c-0.11-0.05-0.22-0.09-0.33-0.14c0.22,0.09,0.41,0.21,0.6,0.35c-0.09-0.07-0.19-0.15-0.28-0.22c0.24,0.18,0.45,0.4,0.63,0.64
					c-0.07-0.09-0.15-0.19-0.22-0.28c0.22,0.29,0.4,0.61,0.54,0.94c-0.05-0.11-0.09-0.22-0.14-0.33c0.18,0.42,0.29,0.86,0.36,1.32
					c-0.02-0.12-0.03-0.25-0.05-0.37c0.04,0.26,0.05,0.53,0.05,0.8c0,0.73,0.64,1.44,1.4,1.4C94.26,265.07,94.91,264.49,94.91,263.7
					L94.91,263.7z"/>
			</g>
		</g>
	</g>
</g>
</svg>