<?xml version="1.0" encoding="utf-8"?>
<!-- Generator: Adobe Illustrator 25.2.3, SVG Export Plug-In . SVG Version: 6.00 Build 0)  -->
<svg version="1.1" id="Layer_1" xmlns="http://www.w3.org/2000/svg"
	xmlns:xlink="http://www.w3.org/1999/xlink" x="0px" y="0px"
	viewBox="0 0 500 500" style="enable-background:new 0 0 500 500;" xml:space="preserve">
<style type="text/css">
	.st0{fill:none;stroke:#FFFFFF;stroke-width:18.8275;stroke-miterlimit:10;}
	.st1{fill:#FFFFFF;}
	@keyframes swim {
		0% {
			transform: translateY(0);
		  }
		33% {
			transform: translateY(8px);
		}
		66% {
			transform: translateY(-8px);
		  }
		100% {
			transform: translateY(0);
		}
	}
	@keyframes changeHeight {
		0% {
			transform: scale(-0.5, 1);
			}
		33% {
			transform: scale(-0.5, 2);
		}
		66% {
			transform: scale(-0.5, -0.5);		  
		}
		100% {
			transform: scale(-0.5, 1);
		}
	}
	@keyframes rotation {
		0% {
		  transform: rotate(0deg);
		}
		50% {
		  transform: rotate(30deg) translateY(35px);
		}
		100% {
			transform: rotate(0deg);
		  }  
	}	
		.hand-knock, .up-knock, .middle-knock, .bottom-knock,.hand-knock-f{ 
			animation: rotation 0.5s linear;
			transform-origin: center;
			animation-iteration-count: 1;
			animation-delay: 2s;
		}	  
		.octapus{ 
			animation-name: swim;
			animation-duration: 5s;
			animation-iteration-count: infinite;
		}
		.hand-a{ 
			<!-- animation-name: changeHeight; -->
			animation-duration: 5s;
			animation-iteration-count: infinite;
		}
			  
</style>
<g class="octapus">
	<path class="st0" d="M339.91,16.54H185.68c-27.19,0-49.23,22.04-49.23,49.23v160.78c0,27.19,22.04,49.23,49.23,49.23h154.23
		c27.19,0,49.23-22.04,49.23-49.23V65.77C389.14,38.58,367.1,16.54,339.91,16.54z"/>
	<path class="st1 hand-a" d="M347.38,371.46H333.5c-2.36,0-4.27-1.91-4.27-4.27v-90.81c0-2.36,1.91-4.27,4.27-4.27h13.88
		c2.36,0,4.27,1.91,4.27,4.27v90.81C351.64,369.55,349.73,371.46,347.38,371.46z"/>
	<path class="st1" d="M308.95,397.9h-13.88c-2.36,0-4.27-1.91-4.27-4.27V276.38c0-2.36,1.91-4.27,4.27-4.27h13.88
		c2.36,0,4.27,1.91,4.27,4.27v117.25C313.22,395.99,311.31,397.9,308.95,397.9z"/>
	<path class="st1" d="M269.73,362.24h-13.88c-2.36,0-4.27-1.91-4.27-4.27v-81.6c0-2.36,1.91-4.27,4.27-4.27h13.88
		c2.36,0,4.27,1.91,4.27,4.27v81.6C274,360.33,272.09,362.24,269.73,362.24z"/>
	<path class="st1" d="M230.51,397.96h-13.88c-2.36,0-4.27-1.91-4.27-4.27V272.84c0-2.36,1.91-4.27,4.27-4.27h13.88
		c2.36,0,4.27,1.91,4.27,4.27V393.7C234.77,396.05,232.86,397.96,230.51,397.96z"/>
	<path class="st1" d="M211.57,237.86h-13.88c-2.36,0-4.27-1.91-4.27-4.27v-80.63c0-2.36,1.91-4.27,4.27-4.27h13.88
		c2.36,0,4.27,1.91,4.27,4.27v80.63C215.84,235.95,213.93,237.86,211.57,237.86z"/>
	<path class="st1 eye-right" d="M327.89,237.86h-13.88c-2.36,0-4.27-1.91-4.27-4.27v-80.63c0-2.36,1.91-4.27,4.27-4.27h13.88
		c2.36,0,4.27,1.91,4.27,4.27v80.63C332.16,235.95,330.25,237.86,327.89,237.86z"/>
	<path class="st1 hand-knock" d="M173.54,268.08v51.28c0,4.8-3.89,8.69-8.69,8.69h-20.03v22.41h28.53c2.35,0,4.61-0.36,6.74-1.04
		c9.18-2.8,15.86-11.34,15.86-21.44v-59.91H173.54z"/>
	<circle class="st1 hand-knock-f" cx="147.28" cy="339.49" r="16.96"/>
	<circle class="st1 hand-d-f" cx="223.57" cy="384.48" r="16.96"/>
	<circle class="st1 hand-c-f" cx="262.79" cy="348.22" r="16.96"/>
	<circle class="st1" cx="340.44" cy="361.18" r="16.96"/>
	<circle class="st1" cx="302.01" cy="384.01" r="16.96"/>
	<g>
		<g>
			<path class="st1 bottom-knock" d="M102.94,337.36c5.09,0.04,10.18,0.08,15.27,0.12c0.73,0.01,1.46,0.01,2.2,0.02
				c2.05,0.02,4.02-1.82,3.92-3.92c-0.1-2.14-1.72-3.9-3.92-3.92c-5.09-0.04-10.18-0.08-15.27-0.12c-0.73-0.01-1.46-0.01-2.2-0.02
				c-2.05-0.02-4.02,1.82-3.92,3.92C99.12,335.57,100.75,337.34,102.94,337.36L102.94,337.36z"/>
		</g>
	</g>
	<g>
		<g>
			<path class="st1 up-knock" d="M133.86,297.82c-0.04,5.09-0.08,10.18-0.12,15.27c-0.01,0.73-0.01,1.46-0.02,2.2
				c-0.02,2.05,1.82,4.02,3.92,3.92c2.14-0.1,3.9-1.72,3.92-3.92c0.04-5.09,0.08-10.18,0.12-15.27c0.01-0.73,0.01-1.46,0.02-2.2
				c0.02-2.05-1.82-4.02-3.92-3.92C135.64,293.99,133.87,295.62,133.86,297.82L133.86,297.82z"/>
		</g>
	</g>
	<g>
		<g>
			<path class="st1 middle-knock" d="M101.34,301.88c6.51,6.58,13.01,13.17,19.52,19.75c0.92,0.93,1.85,1.87,2.77,2.8c1.44,1.46,4.12,1.55,5.55,0
				c1.44-1.57,1.54-3.99,0-5.55c-6.51-6.58-13.01-13.17-19.52-19.75c-0.92-0.93-1.85-1.87-2.77-2.8c-1.44-1.46-4.12-1.55-5.55,0
				C99.9,297.91,99.8,300.32,101.34,301.88L101.34,301.88z"/>
		</g>
	</g>
</g>
<g>
	<g>
		<path class="st1" d="M263.65,443.53c0,9.4,0,18.79,0,28.19c0,4.89,0,9.77,0,14.66c0,5.74,2.19,12.79,8.91,13.4
			c2.56,0.23,5.86,0.45,8.37-0.21c5.13-1.35,7.38-6.83,7.54-11.66c0.12-3.82-5.81-3.82-5.94,0c-0.1,3.05-1.28,5.94-4.58,5.98
			c-1.82,0.02-4.75,0.59-6.29-0.61c-2.67-2.08-2.08-6.54-2.08-9.58c0-10.31,0-20.61,0-30.92c0-3.08,0-6.15,0-9.23
			C269.58,439.71,263.65,439.71,263.65,443.53z"/>
		<path class="st1" d="M282.52,487.9c0.15,4.44,1.95,9.27,6.27,11.19c2.52,1.12,5.7,0.77,8.4,0.72c6.93-0.1,10.11-6.38,10.15-12.63
			c0.07-10.71,0-21.43,0-32.14c0-3.83,0-7.67,0-11.5c0-3.82-5.94-3.83-5.94,0c0,7.75,0,15.49,0,23.24c0,5.11,0,10.23,0,15.34
			c0,2.71,0.47,6.25-0.52,8.83c-1.3,3.35-3.71,2.93-6.71,2.93c-1.03,0-2.25,0.19-3.19-0.31c-1.93-1.02-2.46-3.72-2.52-5.67
			C288.33,484.09,282.39,484.07,282.52,487.9z"/>
		<path class="st1" d="M253.55,443.53c0,8.01,0,16.02,0,24.03c0,5.09,0,10.18,0,15.27c0,3.05,0.59,7.3-1.46,9.8
			c-1.11,1.36-2.32,1.23-3.86,1.23c-2.43,0-4.87,0-7.3,0c-4.23,0-8.86,0.55-13.05,0c-3.87-0.51-3.71-5.38-3.71-8.43
			c0-4.49,0-8.98,0-13.46c0-9.48,0-18.96,0-28.44c0-3.82-5.94-3.83-5.94,0c0,8.79,0,17.59,0,26.38c0,5.04,0,10.08,0,15.12
			c0,4.85,0.4,10.02,4.71,13.15c3.59,2.61,9.41,1.63,13.59,1.63c4.46,0,8.98,0.21,13.43,0c11.93-0.56,9.52-17.26,9.52-25.33
			c0-10.31,0-20.63,0-30.94C259.49,439.71,253.55,439.71,253.55,443.53z"/>
		<path class="st1" d="M208.14,462.33c0,5.92,0,11.84,0,17.76c0,3.64,1.41,13.74-4.13,13.78c-6.56,0.04-13.13,0-19.69,0
			c-0.65,0-1.34,0.06-1.99,0c-2.13-0.2-3.17-2.69-3.48-4.56c-0.34-2.12-0.09-4.46-0.09-6.59c0-6.8,0-13.6,0-20.4
			c0-3.82-5.94-3.83-5.94,0c0,6.45,0,12.9,0,19.35c0,2.34-0.13,4.72,0.03,7.06c0.38,5.49,3.76,10.92,9.73,11.07
			c6.82,0.17,13.67,0,20.5,0c1.04,0,2.06,0.02,3.1-0.18c3.1-0.6,5.46-3.13,6.68-5.93c1.34-3.06,1.21-6.23,1.21-9.48
			c0-7.3,0-14.6,0-21.9C214.08,458.51,208.14,458.5,208.14,462.33z"/>
		<path class="st1" d="M178.77,478.04c0-5.92,0-11.84,0-17.76c0-3.64-1.41-13.74,4.13-13.78c6.56-0.04,13.13,0,19.69,0
			c0.65,0,1.34-0.06,1.99,0c2.13,0.2,3.17,2.69,3.48,4.56c0.34,2.12,0.09,4.46,0.09,6.59c0,6.8,0,13.6,0,20.4
			c0,3.82,5.94,3.83,5.94,0c0-6.45,0-12.9,0-19.35c0-2.34,0.13-4.72-0.03-7.06c-0.38-5.49-3.76-10.92-9.73-11.07
			c-6.82-0.17-13.67,0-20.5,0c-1.04,0-2.06-0.02-3.1,0.18c-3.1,0.6-5.46,3.14-6.68,5.93c-1.34,3.06-1.21,6.23-1.21,9.48
			c0,7.3,0,14.6,0,21.9C172.83,481.86,178.77,481.87,178.77,478.04z"/>
		<path class="st1" d="M392.22,462.33c0,5.92,0,11.84,0,17.76c0,3.64,1.41,13.74-4.13,13.78c-6.56,0.04-13.13,0-19.69,0
			c-0.65,0-1.34,0.06-1.99,0c-2.13-0.2-3.17-2.69-3.48-4.56c-0.34-2.12-0.09-4.46-0.09-6.59c0-6.8,0-13.6,0-20.4
			c0-3.82-5.94-3.83-5.94,0c0,6.45,0,12.9,0,19.35c0,2.34-0.13,4.72,0.03,7.06c0.38,5.49,3.76,10.92,9.73,11.07
			c6.82,0.17,13.67,0,20.5,0c1.04,0,2.06,0.02,3.1-0.18c3.1-0.6,5.46-3.13,6.68-5.93c1.34-3.06,1.22-6.23,1.22-9.48
			c0-7.3,0-14.6,0-21.9C398.16,458.51,392.22,458.5,392.22,462.33z"/>
		<path class="st1" d="M362.85,478.04c0-5.92,0-11.84,0-17.76c0-3.64-1.41-13.74,4.13-13.78c6.56-0.04,13.13,0,19.69,0
			c0.65,0,1.34-0.06,1.99,0c2.13,0.2,3.17,2.69,3.48,4.56c0.34,2.12,0.09,4.46,0.09,6.59c0,6.8,0,13.6,0,20.4
			c0,3.82,5.94,3.83,5.94,0c0-6.45,0-12.9,0-19.35c0-2.34,0.13-4.72-0.03-7.06c-0.38-5.49-3.76-10.92-9.73-11.07
			c-6.82-0.17-13.67,0-20.49,0c-1.04,0-2.07-0.02-3.1,0.18c-3.1,0.6-5.47,3.14-6.68,5.93c-1.34,3.06-1.22,6.23-1.22,9.48
			c0,7.3,0,14.6,0,21.9C356.91,481.86,362.85,481.87,362.85,478.04z"/>
		<path class="st1" d="M346.67,443.53c0,4.84,0,9.69,0,14.53c0,2.31,0.23,4.81-1,6.89c-1.15,1.93-2.41,1.94-4.35,1.94
			c-5.68,0-11.36,0-17.05,0c-1.25,0-3.11,0.32-4.27-0.2c-2.51-1.12-2.7-4.54-2.7-6.91c0-5.42,0-10.84,0-16.25
			c0-3.82-5.94-3.83-5.94,0c0,5.25,0,10.5,0,15.75c0,3.61,0.46,7.13,2.78,10.06c2.08,2.61,4.84,3.49,8.03,3.49
			c6.01,0,12.02,0,18.03,0c2.4,0,4.78,0.16,6.94-1.11c3.89-2.29,5.44-6.88,5.47-11.18c0.04-5.67,0-11.34,0-17
			C352.6,439.71,346.67,439.71,346.67,443.53z"/>
		<path class="st1" d="M317.29,496.84c0-4.85,0-9.69,0-14.54c0-2.31-0.23-4.81,1-6.89c1.15-1.93,2.41-1.94,4.35-1.94
			c5.68,0,11.36,0,17.05,0c1.25,0,3.11-0.32,4.27,0.2c2.51,1.12,2.7,4.53,2.7,6.91c0,5.42,0,10.84,0,16.26c0,3.82,5.94,3.83,5.94,0
			c0-5.25,0-10.5,0-15.75c0-3.61-0.46-7.13-2.78-10.05c-2.08-2.62-4.84-3.49-8.03-3.49c-6.01,0-12.02,0-18.03,0
			c-2.4,0-4.78-0.16-6.94,1.11c-3.89,2.29-5.44,6.88-5.47,11.18c-0.04,5.67,0,11.34,0,17.01
			C311.35,500.66,317.29,500.67,317.29,496.84z"/>
		<path class="st1" d="M162.74,443.53c0,5.92,0,11.84,0,17.76c0,3.64,1.41,13.74-4.13,13.78c-6.56,0.04-13.13,0-19.69,0
			c-0.65,0-1.34,0.06-1.99,0c-2.13-0.2-3.17-2.69-3.48-4.56c-0.34-2.12-0.09-4.46-0.09-6.59c0-6.8,0-13.6,0-20.4
			c0-3.82-5.94-3.83-5.94,0c0,6.45,0,12.9,0,19.35c0,2.34-0.13,4.72,0.03,7.06c0.38,5.49,3.76,10.92,9.73,11.07
			c6.82,0.17,13.67,0,20.5,0c1.04,0,2.06,0.02,3.1-0.18c3.1-0.6,5.46-3.14,6.68-5.93c1.34-3.06,1.21-6.23,1.21-9.48
			c0-7.3,0-14.6,0-21.9C168.67,439.71,162.74,439.71,162.74,443.53z"/>
		<path class="st1" d="M144.62,478.04c0,5.49,0,10.98,0,16.47c0,0.78,0,1.55,0,2.33c0,1.55,1.36,3.04,2.97,2.97
			c1.61-0.07,2.97-1.3,2.97-2.97c0-5.49,0-10.98,0-16.47c0-0.78,0-1.55,0-2.33c0-1.55-1.37-3.04-2.97-2.97
			C145.98,475.15,144.62,476.38,144.62,478.04z"/>
		<rect x="311.37" y="444.76" class="st1" width="4.18" height="39.94"/>
		<rect x="348.39" y="444.76" class="st1" width="4.19" height="39.94"/>
		<rect x="277.09" y="495.96" class="st1" width="19.15" height="3.87"/>
		<path class="st1" d="M288.46,487.9c0-10.05,0-20.11,0-30.16c0-1.42,0-2.84,0-4.26c0-3.82-5.94-3.83-5.94,0
			c0,10.05,0,20.11,0,30.16c0,1.42,0,2.84,0,4.26C282.52,491.72,288.46,491.72,288.46,487.9z"/>
		<path class="st1" d="M154.13,475.08c-2.97,0.03-5.4,1.67-7.12,4c-1.66,2.24-2.37,5.16-2.39,7.92c-0.01,1.55,1.37,3.04,2.97,2.97
			c1.62-0.07,2.96-1.3,2.97-2.97c0-0.56,0.04-1.12,0.12-1.69c-0.04,0.26-0.07,0.53-0.11,0.79c0.14-0.96,0.39-1.89,0.76-2.79
			c-0.1,0.24-0.2,0.47-0.3,0.71c0.3-0.71,0.68-1.37,1.14-1.99c-0.15,0.2-0.31,0.4-0.46,0.6c0.39-0.5,0.83-0.96,1.33-1.35
			c-0.2,0.16-0.4,0.31-0.6,0.46c0.4-0.3,0.82-0.55,1.27-0.74c-0.24,0.1-0.47,0.2-0.71,0.3c0.42-0.17,0.85-0.29,1.29-0.35
			c-0.26,0.04-0.53,0.07-0.79,0.11c0.21-0.02,0.41-0.04,0.62-0.04c1.55-0.02,3.04-1.35,2.97-2.97
			C157.03,476.45,155.8,475.06,154.13,475.08z"/>
		<path class="st1" d="M150.56,486.99c-0.02-2.76-0.74-5.67-2.39-7.92c-1.71-2.32-4.15-3.96-7.12-4c-1.55-0.02-3.04,1.38-2.97,2.97
			c0.07,1.62,1.3,2.95,2.97,2.97c0.21,0,0.42,0.01,0.62,0.04c-0.26-0.04-0.53-0.07-0.79-0.11c0.45,0.06,0.87,0.18,1.29,0.35
			c-0.24-0.1-0.47-0.2-0.71-0.3c0.46,0.2,0.88,0.45,1.27,0.74c-0.2-0.15-0.4-0.31-0.6-0.46c0.5,0.39,0.94,0.85,1.33,1.35
			c-0.15-0.2-0.31-0.4-0.46-0.6c0.46,0.62,0.84,1.28,1.14,1.99c-0.1-0.24-0.2-0.47-0.3-0.71c0.37,0.9,0.62,1.83,0.76,2.79
			c-0.04-0.26-0.07-0.53-0.11-0.79c0.07,0.56,0.11,1.12,0.12,1.69c0.01,1.55,1.36,3.04,2.97,2.97
			C149.19,489.88,150.57,488.65,150.56,486.99z"/>
	</g>
</g>
</svg>