<svg width="72" height="17" viewBox="0 0 72 17" fill="none" xmlns="http://www.w3.org/2000/svg">
<g id="Group">
<g id="Group_2">
<g id="Group_3">
<path id="Vector" d="M33.5446 1.45487C33.5446 3.58271 33.5446 5.71619 33.5446 7.84404C33.5446 9.19505 33.5446 10.5517 33.5446 11.9027C33.5446 12.7133 33.7022 13.8448 33.1561 14.509C32.8634 14.8693 32.5426 14.8355 32.1316 14.8355C31.4843 14.8355 30.8369 14.8355 30.1895 14.8355C29.0637 14.8355 27.8365 14.9819 26.7219 14.8355C25.6918 14.7004 25.7368 13.4057 25.7368 12.5951C25.7368 11.4017 25.7368 10.2083 25.7368 9.01491C25.7368 6.49302 25.7368 3.97113 25.7368 1.45487C25.7368 0.441608 24.1606 0.435979 24.1606 1.45487C24.1606 3.791 24.1606 6.13276 24.1606 8.46888C24.1606 9.80864 24.1606 11.1484 24.1606 12.4881C24.1606 13.7772 24.2676 15.1508 25.4103 15.9839C26.3673 16.6763 27.9153 16.4174 29.0243 16.4174C30.2121 16.4174 31.4111 16.4736 32.5932 16.4174C35.7681 16.2654 35.1264 11.8295 35.1264 9.68479C35.1264 6.94336 35.1264 4.20193 35.1264 1.4605C35.1207 0.435984 33.5446 0.435979 33.5446 1.45487Z" fill="white"/>
</g>
</g>
<g id="Group_4">
<g id="Group_5">
<g id="Group_6">
<path id="Vector_2" d="M36.2153 1.45362C36.2153 3.95299 36.2153 6.44674 36.2153 8.94611C36.2153 10.2465 36.2153 11.5412 36.2153 12.8415C36.2153 14.3671 36.7951 16.2416 38.5852 16.4048C39.2664 16.4668 40.1445 16.5231 40.8088 16.3486C42.1711 15.9883 42.7734 14.5303 42.8128 13.2468C42.8466 12.2336 41.2704 12.2336 41.2366 13.2468C41.2085 14.0575 40.8989 14.8287 40.0207 14.8343C39.5366 14.8399 38.7597 14.9919 38.3488 14.671C37.6395 14.1194 37.7971 12.9316 37.7971 12.1266C37.7971 9.38521 37.7971 6.64939 37.7971 3.90796C37.7971 3.09172 37.7971 2.26986 37.7971 1.45362C37.7971 0.434731 36.2153 0.434731 36.2153 1.45362Z" fill="white"/>
</g>
</g>
<g id="Group_7">
<g id="Group_8">
<path id="Vector_3" d="M41.241 13.2465C41.2804 14.4286 41.7589 15.7121 42.9073 16.2187C43.5771 16.517 44.4215 16.4213 45.1421 16.4101C46.9828 16.3819 47.8328 14.7157 47.8441 13.0494C47.861 10.201 47.8441 7.35266 47.8441 4.50428C47.8441 3.48539 47.8441 2.46649 47.8441 1.4476C47.8441 0.434344 46.2679 0.428715 46.2679 1.4476C46.2679 3.5079 46.2679 5.5682 46.2679 7.62286C46.2679 8.98513 46.2679 10.3418 46.2679 11.7041C46.2679 12.4246 46.3918 13.3647 46.1272 14.0514C45.7838 14.9409 45.1421 14.8283 44.3427 14.8283C44.0669 14.8283 43.746 14.8789 43.4927 14.7495C42.9804 14.4792 42.8397 13.7587 42.8228 13.2408C42.7834 12.2332 41.2072 12.2276 41.241 13.2465Z" fill="white"/>
</g>
</g>
</g>
<g id="Group_9">
<g id="Group_10">
<g id="Group_11">
<path id="Vector_4" d="M21.4669 6.44479C21.4669 8.02097 21.4669 9.59153 21.4669 11.1677C21.4669 12.1359 21.844 14.8211 20.3692 14.8323C18.6241 14.8436 16.8791 14.8323 15.134 14.8323C14.9595 14.8323 14.7794 14.8492 14.6049 14.8323C14.0419 14.7817 13.7605 14.1174 13.6817 13.622C13.5916 13.0591 13.6591 12.4399 13.6591 11.8714C13.6591 10.0644 13.6591 8.2574 13.6591 6.45042C13.6591 5.43716 12.083 5.43153 12.083 6.45042C12.083 8.16733 12.083 9.87862 12.083 11.5955C12.083 12.2204 12.0492 12.8508 12.0942 13.4701C12.1955 14.928 13.0962 16.3747 14.6837 16.4141C16.4963 16.4592 18.3201 16.4141 20.1328 16.4141C20.4086 16.4141 20.6788 16.4198 20.9546 16.3691C21.7765 16.2115 22.407 15.536 22.7335 14.7929C23.0881 13.9767 23.0543 13.1379 23.0543 12.271C23.0543 10.3289 23.0543 8.3925 23.0543 6.45042C23.0487 5.43153 21.4669 5.43153 21.4669 6.44479Z" fill="white"/>
</g>
</g>
<g id="Group_12">
<g id="Group_13">
<path id="Vector_5" d="M13.6591 10.6261C13.6591 9.04991 13.6591 7.47935 13.6591 5.90317C13.6591 4.93494 13.2819 2.2498 14.7568 2.23854C16.5019 2.22729 18.2469 2.23854 19.992 2.23854C20.1665 2.23854 20.3466 2.22166 20.5211 2.23854C21.0841 2.28921 21.3655 2.95345 21.4443 3.44882C21.5344 4.01175 21.4668 4.63096 21.4668 5.19951C21.4668 7.00649 21.4668 8.81348 21.4668 10.6205C21.4668 11.6337 23.043 11.6393 23.043 10.6205C23.043 8.90354 23.043 7.19226 23.043 5.47535C23.043 4.8505 23.0768 4.22003 23.0318 3.60082C22.9304 2.14285 22.0298 0.696138 20.4423 0.656734C18.6297 0.6117 16.8058 0.656734 14.9932 0.656734C14.7174 0.656734 14.4472 0.651106 14.1714 0.701769C13.3495 0.859387 12.719 1.53489 12.3925 2.27794C12.0379 3.09418 12.0717 3.93294 12.0717 4.79984C12.0717 6.74192 12.0717 8.67838 12.0717 10.6205C12.0773 11.6393 13.6591 11.6394 13.6591 10.6261Z" fill="white"/>
</g>
</g>
</g>
<g id="Group_14">
<g id="Group_15">
<g id="Group_16">
<path id="Vector_6" d="M70.4117 6.44479C70.4117 8.02097 70.4117 9.59153 70.4117 11.1677C70.4117 12.1359 70.7889 14.8211 69.314 14.8323C67.5689 14.8436 65.8239 14.8323 64.0788 14.8323C63.9043 14.8323 63.7242 14.8492 63.5497 14.8323C62.9868 14.7817 62.7053 14.1174 62.6265 13.622C62.5364 13.0591 62.604 12.4399 62.604 11.8714C62.604 10.0644 62.604 8.2574 62.604 6.45042C62.604 5.43716 61.0278 5.43153 61.0278 6.45042C61.0278 8.16733 61.0278 9.87862 61.0278 11.5955C61.0278 12.2204 60.994 12.8508 61.039 13.4701C61.1404 14.928 62.041 16.3747 63.6285 16.4141C65.4411 16.4592 67.265 16.4141 69.0776 16.4141C69.3534 16.4141 69.6236 16.4198 69.8994 16.3691C70.7213 16.2115 71.3518 15.536 71.6783 14.7929C72.0329 13.9767 71.9991 13.1379 71.9991 12.271C71.9991 10.3289 71.9991 8.3925 71.9991 6.45042C71.9879 5.43153 70.4117 5.43153 70.4117 6.44479Z" fill="white"/>
</g>
</g>
<g id="Group_17">
<g id="Group_18">
<path id="Vector_7" d="M62.6003 10.6261C62.6003 9.04991 62.6003 7.47935 62.6003 5.90317C62.6003 4.93494 62.2231 2.2498 63.698 2.23854C65.443 2.22729 67.1881 2.23854 68.9331 2.23854C69.1077 2.23854 69.2878 2.22166 69.4623 2.23854C70.0252 2.28921 70.3067 2.95345 70.3855 3.44882C70.4756 4.01175 70.408 4.63096 70.408 5.19951C70.408 7.00649 70.408 8.81348 70.408 10.6205C70.408 11.6337 71.9842 11.6393 71.9842 10.6205C71.9842 8.90354 71.9842 7.19226 71.9842 5.47535C71.9842 4.8505 72.018 4.22003 71.9729 3.60082C71.8716 2.14285 70.9709 0.696138 69.3835 0.656734C67.5709 0.6117 65.747 0.656734 63.9344 0.656734C63.6586 0.656734 63.3884 0.651106 63.1125 0.701769C62.2907 0.859387 61.6602 1.53489 61.3337 2.27794C60.9791 3.09418 61.0128 3.93294 61.0128 4.79984C61.0128 6.74192 61.0128 8.67838 61.0128 10.6205C61.0241 11.6393 62.6003 11.6394 62.6003 10.6261Z" fill="white"/>
</g>
</g>
</g>
<g id="Group_19">
<g id="Group_20">
<g id="Group_21">
<path id="Vector_8" d="M58.3039 1.44971C58.3039 2.73881 58.3039 4.0279 58.3039 5.31136C58.3039 5.92495 58.3658 6.58919 58.0393 7.14086C57.7353 7.65312 57.3976 7.65875 56.8797 7.65875C55.371 7.65875 53.8568 7.65875 52.3481 7.65875C52.016 7.65875 51.5206 7.74319 51.211 7.60809C50.5412 7.30974 50.4905 6.40343 50.4905 5.77296C50.4905 4.33188 50.4905 2.89079 50.4905 1.44971C50.4905 0.436454 48.9143 0.430825 48.9143 1.44971C48.9143 2.84576 48.9143 4.24181 48.9143 5.63786C48.9143 6.59483 49.0382 7.52928 49.6574 8.31174C50.209 9.00976 50.9408 9.24056 51.7908 9.24056C53.3895 9.24056 54.9882 9.24056 56.5813 9.24056C57.2174 9.24056 57.8535 9.28559 58.4277 8.94221C59.4635 8.33425 59.8744 7.11272 59.88 5.96999C59.8913 4.46136 59.88 2.95835 59.88 1.44971C59.8857 0.430825 58.3039 0.430825 58.3039 1.44971Z" fill="white"/>
</g>
</g>
<g id="Group_22">
<g id="Group_23">
<path id="Vector_9" d="M50.4972 15.619C50.4972 14.3299 50.4972 13.0408 50.4972 11.7573C50.4972 11.1437 50.4353 10.4795 50.7618 9.92781C51.0657 9.41555 51.4035 9.40994 51.9214 9.40994C53.43 9.40994 54.9443 9.40994 56.4529 9.40994C56.785 9.40994 57.2804 9.32549 57.59 9.4606C58.2599 9.75895 58.3106 10.6653 58.3106 11.2957C58.3106 12.7368 58.3106 14.1779 58.3106 15.619C58.3106 16.6322 59.8867 16.6379 59.8867 15.619C59.8867 14.2229 59.8867 12.8269 59.8867 11.4308C59.8867 10.4739 59.7629 9.53941 59.1437 8.75694C58.592 8.05892 57.8602 7.82812 57.0102 7.82812C55.4115 7.82812 53.8128 7.82812 52.2197 7.82812C51.5836 7.82812 50.9475 7.78308 50.3734 8.12646C49.3376 8.73442 48.9266 9.95597 48.921 11.0987C48.9098 12.6073 48.921 14.1103 48.921 15.619C48.9154 16.6379 50.4972 16.6379 50.4972 15.619Z" fill="white"/>
</g>
</g>
</g>
<g id="Group_24">
<g id="Group_25">
<g id="Group_26">
<path id="Vector_10" d="M9.39657 1.45096C9.39657 3.02714 9.39657 4.59771 9.39657 6.17389C9.39657 7.14212 9.77372 9.82724 8.29886 9.8385C6.5538 9.84976 4.80875 9.8385 3.06369 9.8385C2.88918 9.8385 2.70905 9.85539 2.53454 9.8385C1.97162 9.78784 1.69016 9.12359 1.61135 8.62822C1.52128 8.0653 1.58883 7.44609 1.58883 6.87754C1.58883 5.07056 1.58883 3.26358 1.58883 1.4566C1.58883 0.443337 0.0126458 0.437707 0.0126458 1.4566C0.0126458 3.17351 0.0126458 4.88479 0.0126458 6.60171C0.0126458 7.22655 -0.0211271 7.85702 0.0239067 8.47624C0.125233 9.93421 1.02591 11.3809 2.61335 11.4203C4.42596 11.4654 6.24983 11.4203 8.06244 11.4203C8.33827 11.4203 8.60847 11.4259 8.8843 11.3753C9.70617 11.2177 10.3366 10.5422 10.6631 9.79911C11.0178 8.98287 10.984 8.14411 10.984 7.27721C10.984 5.33513 10.984 3.39868 10.984 1.4566C10.9727 0.432078 9.39657 0.432073 9.39657 1.45096Z" fill="white"/>
</g>
</g>
<g id="Group_27">
<g id="Group_28">
<path id="Vector_11" d="M4.58252 10.6269C4.58252 12.0849 4.58252 13.5428 4.58252 15.0064C4.58252 15.2147 4.58252 15.4174 4.58252 15.6256C4.58252 16.0366 4.94279 16.4363 5.37061 16.4137C5.79843 16.3969 6.1587 16.0647 6.1587 15.6256C6.1587 14.1677 6.1587 12.7097 6.1587 11.2461C6.1587 11.0378 6.1587 10.8352 6.1587 10.6269C6.1587 10.216 5.79843 9.81628 5.37061 9.8388C4.94842 9.85569 4.58252 10.1822 4.58252 10.6269Z" fill="white"/>
</g>
</g>
</g>
<path id="Vector_12" d="M50.0191 1.77344H48.9045V12.3958H50.0191V1.77344Z" fill="white"/>
<path id="Vector_13" d="M59.8668 1.77344H58.7522V12.3958H59.8668V1.77344Z" fill="white"/>
<path id="Vector_14" d="M44.8881 15.3848H39.7993V16.4149H44.8881V15.3848Z" fill="white"/>
<g id="Group_29">
<g id="Group_30">
<path id="Vector_15" d="M42.8208 13.2396C42.8208 10.5657 42.8208 7.89186 42.8208 5.22361C42.8208 4.84645 42.8208 4.46929 42.8208 4.09214C42.8208 3.07888 41.2446 3.07325 41.2446 4.09214C41.2446 6.76602 41.2446 9.43989 41.2446 12.1081C41.2446 12.4853 41.2446 12.8625 41.2446 13.2396C41.2446 14.2529 42.8208 14.2585 42.8208 13.2396Z" fill="white"/>
</g>
</g>
<g id="Group_31">
<g id="Group_32">
<g id="Group_33">
<path id="Vector_16" d="M7.11395 9.83789C6.32585 9.84915 5.6785 10.2826 5.22253 10.9018C4.78345 11.4985 4.59206 12.2753 4.58643 13.0071C4.58643 13.4181 4.95233 13.8178 5.37452 13.7952C5.80234 13.7783 6.16261 13.4462 6.16261 13.0071C6.16261 12.8552 6.17387 12.7088 6.19075 12.5568C6.1795 12.6243 6.17387 12.6975 6.16261 12.7651C6.20201 12.5118 6.26394 12.2585 6.36526 12.022C6.33712 12.084 6.3146 12.1459 6.28645 12.2078C6.36526 12.022 6.46659 11.8419 6.59043 11.6786C6.55103 11.7293 6.50599 11.7856 6.46659 11.8363C6.56791 11.7012 6.68613 11.583 6.82123 11.476C6.77057 11.5154 6.71427 11.5604 6.66361 11.5998C6.77057 11.521 6.88315 11.4535 7.00136 11.4028C6.93944 11.431 6.87752 11.4535 6.8156 11.4816C6.92818 11.4366 7.04077 11.4028 7.15898 11.3915C7.09143 11.4028 7.01825 11.4084 6.9507 11.4197C7.00699 11.4141 7.06328 11.4084 7.11395 11.4084C7.52488 11.4028 7.92456 11.0482 7.90204 10.6203C7.88515 10.2038 7.55866 9.83789 7.11395 9.83789Z" fill="white"/>
</g>
</g>
<g id="Group_34">
<g id="Group_35">
<path id="Vector_17" d="M6.17053 13.0072C6.1649 12.2754 5.9735 11.4986 5.53442 10.9019C5.07846 10.2827 4.4311 9.84921 3.643 9.83795C3.23207 9.83232 2.8324 10.2038 2.85491 10.626C2.8718 11.0595 3.20393 11.4085 3.643 11.4141C3.6993 11.4141 3.75559 11.4198 3.80625 11.4254C3.7387 11.4141 3.66552 11.4085 3.59797 11.3972C3.71618 11.4141 3.82877 11.4423 3.94135 11.4873C3.87943 11.4592 3.81751 11.4366 3.75559 11.4085C3.87943 11.4592 3.98639 11.5267 4.09334 11.6055C4.04268 11.5661 3.98639 11.5211 3.93573 11.4817C4.07083 11.583 4.18904 11.7069 4.29037 11.842C4.25096 11.7913 4.20593 11.735 4.16652 11.6843C4.29037 11.8476 4.39169 12.0277 4.4705 12.2135C4.44236 12.1516 4.41984 12.0896 4.39169 12.0277C4.49302 12.2641 4.55494 12.5118 4.59434 12.7708C4.58309 12.7032 4.57746 12.63 4.5662 12.5625C4.58871 12.7089 4.59434 12.8608 4.59434 13.0128C4.59434 13.4238 4.95462 13.8234 5.38244 13.8009C5.80463 13.7784 6.17053 13.4519 6.17053 13.0072Z" fill="white"/>
</g>
</g>
</g>
</g>
</svg>
