<?xml version="1.0" encoding="utf-8"?>
<!-- Generator: Adobe Illustrator 25.2.3, SVG Export Plug-In . SVG Version: 6.00 Build 0)  -->
<svg version="1.1" id="Layer_1" xmlns="http://www.w3.org/2000/svg"
	xmlns:xlink="http://www.w3.org/1999/xlink" x="0px" y="0px"
	viewBox="0 0 595.28 841.89" style="enable-background:new 0 0 595.28 841.89;"
	xml:space="preserve">
<style type="text/css">
	@keyframes rotation {
		0% {
        transform: rotateZ(0deg);   
        transform: rotateY(0deg);   
		transform-origin:center center;

        }
        100% {
        transform: rotateZ(360deg);
        transform: rotateY(360deg);
		transform-origin:center center;
        }
		<!-- 100% {
        transform: rotate(0deg);
		transform-origin:center center;
        } -->
    }

	.st0{fill:#8B3BBC;}
	.st1{fill:#EFD122;}
	.st2{clip-path:url(#SVGID_2_);fill:#E0BD2B;}
	.st3{opacity:0.36;clip-path:url(#SVGID_4_);fill:#82770D;}
	.st4{opacity:0.75;clip-path:url(#SVGID_4_);fill:#FFF7BD;}
	.st5{clip-path:url(#SVGID_6_);}
	.st6{fill:#FFEF9F;}
	.st7{fill:#FFF2B0;}
	.st8{fill:none;stroke:#8B3BBC;stroke-width:1.1652;stroke-miterlimit:10;}
	.st9{fill:none;stroke:#8B3BBC;stroke-width:0.725;stroke-miterlimit:10;}
	.st10{fill:#8B3BBC;stroke:#8B3BBC;stroke-width:0.6543;stroke-miterlimit:10;}
	.st11{fill:#FFFFFF;}

	.coin{ 
		<!-- animation: rotation; -->
		animation-delay: 1s;
		animation-duration: 7s;
		animation-iteration-count: infinite;
	}

</style>
<g id="Layer_2">
</g>
<g id="Layer_3">
</g>
<path class="st0" d="M426.51,579.37h30.71 M276.02,579.37h32.25v99.51c-6.76,5.96-11.03,14.68-11.03,24.4
	c0,17.97,14.56,32.53,32.53,32.53c17.97,0,32.53-14.56,32.53-32.53c0-9.72-4.27-18.44-11.03-24.4v-99.51h32.25 M500.22,576.65
	c41.28-10.1,71.92-47.32,71.92-91.72V176.5c0-52.16-42.28-94.44-94.44-94.44H181.84c-52.16,0-94.44,42.28-94.44,94.44v308.43
	c0,44.12,30.26,81.17,71.15,91.54v71.45c0,9.2-7.46,16.66-16.66,16.66h-9.72c-5.95-6.5-14.5-10.57-24-10.57
	c-17.97,0-32.53,14.56-32.53,32.53s14.56,32.53,32.53,32.53c9.94,0,18.84-4.47,24.8-11.49h25.21c4.51,0,8.85-0.7,12.93-1.99
	c17.61-5.38,30.43-21.75,30.43-41.12v-85.11h31.48 M218.2,506.63c-11.87,0-21.5-9.63-21.5-21.5V357.08c0-11.87,9.63-21.5,21.5-21.5
	h0c11.87,0,21.5,9.63,21.5,21.5v128.05C239.7,497.01,230.07,506.63,218.2,506.63L218.2,506.63z M441.34,506.63
	c-11.87,0-21.5-9.63-21.5-21.5V357.08c0-11.87,9.63-21.5,21.5-21.5c11.87,0,21.5,9.63,21.5,21.5v128.05
	C462.84,497.01,453.22,506.63,441.34,506.63z"/>
<g>
	<g>
		<path class="st0" d="M23.13,682.45c9.78,0.08,19.56,0.16,29.34,0.24c1.39,0.01,2.77,0.02,4.16,0.03c3.94,0.03,7.71-3.48,7.52-7.52
			c-0.18-4.1-3.31-7.49-7.52-7.52c-9.78-0.08-19.56-0.16-29.34-0.24c-1.39-0.01-2.77-0.02-4.16-0.03c-3.94-0.03-7.71,3.48-7.52,7.52
			C15.79,679.02,18.91,682.41,23.13,682.45L23.13,682.45z"/>
	</g>
</g>
<g>
	<g>
		<path class="st0" d="M82.43,606.6c-0.08,9.78-0.16,19.56-0.24,29.34c-0.01,1.39-0.02,2.77-0.03,4.16
			c-0.03,3.94,3.48,7.71,7.52,7.52c4.1-0.18,7.49-3.31,7.52-7.52c0.08-9.78,0.16-19.56,0.24-29.34c0.01-1.39,0.02-2.77,0.03-4.16
			c0.03-3.94-3.48-7.71-7.52-7.52C85.85,599.26,82.46,602.38,82.43,606.6L82.43,606.6z"/>
	</g>
</g>
<g>
	<g>
		<path class="st0" d="M20.06,614.4c4.82,4.88,9.64,9.76,14.46,14.63c7.68,7.77,15.35,15.54,23.03,23.31
			c1.75,1.77,3.51,3.55,5.26,5.32c2.77,2.8,7.9,2.98,10.64,0c2.77-3.02,2.96-7.65,0-10.64c-4.82-4.88-9.64-9.76-14.46-14.63
			c-7.68-7.77-15.35-15.54-23.03-23.31c-1.75-1.77-3.51-3.55-5.26-5.32c-2.77-2.8-7.9-2.98-10.64,0
			C17.29,606.77,17.11,611.4,20.06,614.4L20.06,614.4z"/>
	</g>
</g>
<g class="coin">
<ellipse transform="matrix(0.7071 -0.7071 0.7071 0.7071 -322.7859 402.0243)" class="st1" cx="323.89" cy="590.65" rx="155.14" ry="155.14"/>
<g>
	<defs>
		<circle id="SVGID_1_" cx="323.89" cy="590.65" r="111.8"/>
	</defs>
	<use xlink:href="#SVGID_1_"  style="overflow:visible;fill:#E0BD2B;"/>
	<clipPath id="SVGID_2_" >
		<use xlink:href="#SVGID_1_"  style="overflow:visible;"/>
	</clipPath>
	<path class="st2" d="M318.35,480.85c22.37,0.35,39.07,9.5,48.58,14.71c45.15,24.74,63.5,72.73,65.51,96.26
		c1.38,16.09,2.07,24.14-1.78,32.09c-2,4.13-5.5,9.06-4.46,15.6c0.83,5.23,4.27,9.59,2.67,11.14c-1.06,1.03-3.57,0.08-3.57,0
		c0.01-0.1,4.56,1.42,8.47-0.45c1.79-0.86,2.94-2.18,5.35-6.24c2.74-4.62,5.1-8.66,7.58-15.6c0,0,1.98-5.55,3.12-10.7
		c2.34-10.55,3.49-43.32-18.27-84.67c-6.08-11.55-9.48-18.02-16.49-25.85c-12.25-13.69-25.72-19.86-52.14-31.64
		c-33.67-15.01-42.79-13.35-46.35-12.48c-9.23,2.26-19.86,8.75-24.51,11.59c-5.8,3.54-12.25,7.48-11.59,9.36
		C281.52,486.95,298.95,480.55,318.35,480.85z"/>
</g>
<g>
	<defs>
		<circle id="SVGID_3_" cx="323.89" cy="590.65" r="111.8"/>
	</defs>
	<clipPath id="SVGID_4_">
		<use xlink:href="#SVGID_3_"  style="overflow:visible;"/>
	</clipPath>
	<path class="st3" d="M288.67,484.51c58.98-10.9,100.93,18.64,115.8,37.57c33.09,42.11,31.05,76.93,22.17,106.73
		c-4.53,15.21-10.29,23.21-9.25,29.75c0.83,5.23,13.07-9.46,11.48-7.91c-1.06,1.03-3.57,0.08-3.57,0c0.01-0.1,4.56,1.42,8.47-0.45
		c1.79-0.86,2.94-2.18,5.35-6.24c2.74-4.62,5.1-8.66,7.58-15.6c0,0,1.98-5.55,3.12-10.7c2.34-10.55,3.49-43.32-18.27-84.67
		c-6.08-11.55-9.48-18.02-16.49-25.85c-12.25-13.69-25.72-19.86-52.14-31.64c-33.67-15.01-42.79-13.35-46.35-12.48
		c-9.23,2.26-19.86,8.75-24.51,11.59c-5.8,3.54-12.25,7.48-11.59,9.36"/>
	<path class="st4" d="M355.27,698.85c-59.23,9.42-100.43-21.16-114.82-40.46c-32.02-42.93-29.12-77.68-19.49-107.26
		c4.91-15.09,10.87-22.95,9.99-29.51c-0.7-5.25-13.3,9.13-11.67,7.62c1.09-1.01,3.57,0.01,3.56,0.09c-0.01,0.1-4.52-1.53-8.48,0.23
		c-1.81,0.81-3,2.11-5.5,6.1c-2.85,4.55-5.31,8.53-7.96,15.4c0,0-2.11,5.5-3.39,10.61c-2.61,10.48-4.57,43.22,16.14,85.1
		c5.78,11.69,9.03,18.25,15.84,26.25c11.91,13.99,25.21,20.5,51.33,32.94c33.28,15.85,42.44,14.42,46.02,13.64
		c9.28-2.03,20.07-8.25,24.79-10.97c5.89-3.39,12.44-7.17,11.82-9.07"/>
</g>
<g>
	<defs>
		<polygon id="SVGID_5_" points="323.89,504.74 323.89,504.74 230.19,590.65 323.89,676.56 323.89,676.56 417.6,590.65 		"/>
	</defs>
	<clipPath id="SVGID_6_">
		<use xlink:href="#SVGID_5_"  style="overflow:visible;"/>
	</clipPath>
	<g class="st5">
		<g>
			<g>
				<path class="st6" d="M226.32,497.91c1.66,1.25,3.32,2.5,4.98,3.75c4.52,3.4,9.04,6.81,13.55,10.21
					c6.65,5.01,13.31,10.03,19.96,15.04c8.11,6.11,16.23,12.23,24.34,18.34c8.92,6.72,17.84,13.44,26.76,20.17
					c9,6.78,18.01,13.57,27.01,20.35c8.36,6.3,16.73,12.61,25.09,18.91c7.07,5.33,14.14,10.66,21.21,15.99
					c5.1,3.85,10.21,7.69,15.31,11.54c2.41,1.82,4.78,3.71,7.24,5.46c0.1,0.07,0.2,0.15,0.31,0.23c2.25,1.7,6.1,0.43,7.34-1.93
					c1.49-2.82,0.48-5.53-1.93-7.34c-1.66-1.25-3.32-2.5-4.98-3.75c-4.52-3.4-9.04-6.81-13.55-10.21
					c-6.65-5.01-13.31-10.03-19.96-15.04c-8.11-6.11-16.23-12.23-24.34-18.34c-8.92-6.72-17.84-13.44-26.76-20.17
					c-9-6.78-18.01-13.57-27.01-20.35c-8.36-6.3-16.73-12.61-25.09-18.91c-7.07-5.33-14.14-10.66-21.21-15.99
					c-5.1-3.85-10.21-7.69-15.31-11.54c-2.41-1.82-4.78-3.71-7.24-5.46c-0.1-0.07-0.2-0.15-0.31-0.23c-2.25-1.7-6.1-0.43-7.34,1.93
					C222.9,493.38,223.91,496.09,226.32,497.91L226.32,497.91z"/>
			</g>
		</g>
		<g>
			<g>
				<path class="st6" d="M226.32,550.09c1.66,1.25,3.32,2.5,4.98,3.75c4.52,3.4,9.04,6.81,13.55,10.21
					c6.65,5.01,13.31,10.03,19.96,15.04c8.11,6.11,16.23,12.23,24.34,18.34c8.92,6.72,17.84,13.44,26.76,20.17
					c9,6.79,18.01,13.57,27.01,20.35c8.36,6.3,16.73,12.61,25.09,18.91c7.07,5.33,14.14,10.66,21.21,15.99
					c5.1,3.85,10.21,7.69,15.31,11.54c2.41,1.82,4.78,3.71,7.24,5.46c0.1,0.07,0.2,0.15,0.31,0.23c2.25,1.7,6.1,0.43,7.34-1.93
					c1.49-2.82,0.48-5.53-1.93-7.34c-1.66-1.25-3.32-2.5-4.98-3.75c-4.52-3.4-9.04-6.81-13.55-10.21
					c-6.65-5.01-13.31-10.03-19.96-15.04c-8.11-6.11-16.23-12.23-24.34-18.34c-8.92-6.72-17.84-13.44-26.76-20.17
					c-9-6.78-18.01-13.57-27.01-20.35c-8.36-6.3-16.73-12.61-25.09-18.91c-7.07-5.33-14.14-10.66-21.21-15.99
					c-5.1-3.85-10.21-7.69-15.31-11.54c-2.41-1.82-4.78-3.71-7.24-5.46c-0.1-0.07-0.2-0.15-0.31-0.23c-2.25-1.7-6.1-0.43-7.34,1.93
					C222.9,545.57,223.91,548.28,226.32,550.09L226.32,550.09z"/>
			</g>
		</g>
		<g>
			<g>
				<path class="st6" d="M412.09,491.54c-1.66,1.25-3.32,2.5-4.98,3.75c-4.52,3.4-9.04,6.81-13.55,10.21
					c-6.65,5.01-13.31,10.03-19.96,15.04c-8.11,6.11-16.23,12.23-24.34,18.34c-8.92,6.72-17.84,13.44-26.76,20.17
					c-9,6.78-18.01,13.57-27.01,20.35c-8.36,6.3-16.73,12.61-25.09,18.91c-7.07,5.33-14.14,10.66-21.21,15.99
					c-5.1,3.85-10.21,7.69-15.31,11.54c-2.41,1.82-4.83,3.64-7.24,5.46c-0.1,0.08-0.2,0.15-0.31,0.23
					c-1.16,0.88-2.07,1.75-2.47,3.21c-0.35,1.29-0.19,3,0.54,4.14c1.43,2.21,4.95,3.73,7.34,1.93c1.66-1.25,3.32-2.5,4.98-3.75
					c4.52-3.4,9.04-6.81,13.55-10.21c6.65-5.01,13.31-10.03,19.96-15.04c8.11-6.11,16.23-12.23,24.34-18.34
					c8.92-6.72,17.84-13.44,26.76-20.17c9-6.79,18.01-13.57,27.01-20.35c8.36-6.3,16.73-12.61,25.09-18.91
					c7.07-5.33,14.14-10.66,21.21-15.99c5.1-3.85,10.21-7.69,15.31-11.54c2.41-1.82,4.83-3.64,7.24-5.46
					c0.1-0.08,0.2-0.15,0.31-0.23c1.16-0.88,2.07-1.75,2.47-3.21c0.35-1.29,0.19-3-0.54-4.14
					C418.01,491.25,414.49,489.73,412.09,491.54L412.09,491.54z"/>
			</g>
		</g>
		<g>
			<g>
				<path class="st6" d="M412.09,543.73c-1.66,1.25-3.32,2.5-4.98,3.75c-4.52,3.4-9.04,6.81-13.55,10.21
					c-6.65,5.01-13.31,10.03-19.96,15.04c-8.11,6.11-16.23,12.23-24.34,18.34c-8.92,6.72-17.84,13.44-26.76,20.17
					c-9,6.78-18.01,13.57-27.01,20.35c-8.36,6.3-16.73,12.61-25.09,18.91c-7.07,5.33-14.14,10.66-21.21,15.99
					c-5.1,3.85-10.21,7.69-15.31,11.54c-2.41,1.82-4.83,3.64-7.24,5.46c-0.1,0.08-0.2,0.15-0.31,0.23
					c-1.16,0.88-2.07,1.75-2.47,3.21c-0.35,1.29-0.19,3,0.54,4.14c1.43,2.21,4.95,3.73,7.34,1.93c1.66-1.25,3.32-2.5,4.98-3.75
					c4.52-3.4,9.04-6.81,13.55-10.21c6.65-5.01,13.31-10.03,19.96-15.04c8.11-6.11,16.23-12.23,24.34-18.34
					c8.92-6.72,17.84-13.44,26.76-20.17c9-6.78,18.01-13.57,27.01-20.35c8.36-6.3,16.73-12.61,25.09-18.91
					c7.07-5.33,14.14-10.66,21.21-15.99c5.1-3.85,10.21-7.69,15.31-11.54c2.41-1.82,4.83-3.64,7.24-5.46
					c0.1-0.08,0.2-0.15,0.31-0.23c1.16-0.88,2.07-1.75,2.47-3.21c0.35-1.29,0.19-3-0.54-4.14
					C418.01,543.44,414.49,541.92,412.09,543.73L412.09,543.73z"/>
			</g>
		</g>
		<g>
			<g>
				<path class="st6" d="M318.52,479.62c0,2.17,0,4.34,0,6.51c0,5.9,0,11.81,0,17.71c0,8.69,0,17.39,0,26.08
					c0,10.64,0,21.29,0,31.93c0,11.66,0,23.32,0,34.98c0,11.73,0,23.45,0,35.18c0,10.97,0,21.94,0,32.92c0,9.27,0,18.54,0,27.81
					c0,6.64,0,13.28,0,19.92c0,3.15-0.04,6.31,0,9.46c0,0.14,0,0.28,0,0.41c0,2.81,2.47,5.5,5.37,5.37
					c2.91-0.13,5.37-2.36,5.37-5.37c0-2.17,0-4.34,0-6.51c0-5.9,0-11.81,0-17.71c0-8.69,0-17.39,0-26.08c0-10.64,0-21.29,0-31.93
					c0-11.66,0-23.32,0-34.98c0-11.73,0-23.45,0-35.18c0-10.97,0-21.94,0-32.92c0-9.27,0-18.54,0-27.81c0-6.64,0-13.28,0-19.92
					c0-3.15,0.04-6.31,0-9.46c0-0.14,0-0.28,0-0.41c0-2.81-2.47-5.5-5.37-5.37C320.98,474.38,318.52,476.61,318.52,479.62
					L318.52,479.62z"/>
			</g>
		</g>
	</g>
</g>
<g>
	<g>
		<path class="st7" d="M356.97,464.68c17.23,3.23,33.21,10.13,47.3,20.62c14.68,10.93,26.11,25.31,34.01,41.74
			c0.81,1.68,1.57,3.37,2.3,5.09c-0.32-0.75,0.17,0.41,0.25,0.62c0.15,0.38,0.31,0.75,0.46,1.13c0.3,0.75,0.59,1.51,0.87,2.26
			c0.89,2.39,1.71,4.81,2.45,7.26c1.21,4.02,7.53,2.31,6.31-1.74c-3.92-13-10.02-25.41-18.01-36.4
			c-12.76-17.52-30.05-31.22-50.04-39.62c-7.77-3.27-15.87-5.71-24.15-7.27c-1.74-0.33-3.53,0.48-4.03,2.29
			C354.25,462.25,355.23,464.35,356.97,464.68L356.97,464.68z"/>
	</g>
</g>
</g>
<path class="st0" d="M443.34,619.72c0.3,4.38,0.79,8.75,1.5,13.07l-42.02-58.6l-0.66-0.92c-0.51-6.19-0.99-11.29-1.33-14.72
	c-6.36-4.88-10.69-12.37-11.27-21.01c-1.13-16.57,11.93-30.84,28.8-30.91c14.01-0.07,26.28,10.2,28.62,24.02
	c1.65,9.75-1.68,18.96-7.97,25.32l1.5,22.1L443.34,619.72z"/>
<path class="st8" d="M402.82,574.19c-0.02-0.59-0.02-1.19-0.02-1.79"/>
<path class="st9" d="M440.52,578.07c-0.97-6.85-1.49-14.18-1.49-21.8"/>
<path class="st10" d="M516.72,562.48c4.4,52.6-10.47,105.19-47.57,105.19c-32.99,0-63.84-25.07-66.32-93.48l42.02,58.6
	c-0.71-4.32-1.2-8.69-1.5-13.07l-2.82-41.65c3.85,27.49,12.24,47.02,25.16,47.02c12.74,0,15.38-16.24,12.15-56.35L516.72,562.48z"/>
<path class="st0" d="M241.57,779.31c8.77,0.73,31.99,5.2,37.98-29.21c0.56-3.23,1.29-6.25,1.89-8.84c0.14-0.6,0.3-1.16,0.32-1.27
	c0,0-0.04-0.01-0.36-0.1c-4.14-1.19-11.63-3.46-20.18-7.29c-5.1-2.29-0.01,22.73,0,21.17c0-22.26,0-44.52,0-66.78
	c0.51-0.45,1.02-0.91,1.5-1.4c13.19-13.19,12.69-34.89-1.51-47.43c-12.17-10.74-30.81-10.74-42.98,0
	c-14.2,12.54-14.7,34.24-1.51,47.43c0.49,0.49,0.99,0.95,1.5,1.4v60.96C218.23,753.04,217.55,775.86,241.57,779.31"/>
<g>
	<polygon class="st11" points="261.87,732.66 261.22,752.15 261.21,732.65 	"/>
</g>
<path class="st0" d="M384.08,783.69c24.02-3.46,23.34-26.27,23.34-31.36v-34.78c0.51-0.45,1.02-0.91,1.5-1.4
	c13.19-13.19,12.69-34.89-1.51-47.43c-12.17-10.74-30.81-10.74-42.98,0c-14.2,12.54-14.7,34.24-1.51,47.43
	c0.49,0.49,0.99,0.95,1.5,1.4c0,22.26,0,18.34,0,40.6c0.01,1.56,4.84-18.98-0.27-17.64c-6.59,1.72-12.43,2.91-19.49,3.9
	c-0.44,0.06-0.77,0.1-0.77,0.1c0.03,0.19,0.68,2.57,0.97,3.81c0.45,1.96,0.67,2.93,1.24,6.16
	C352.09,788.89,375.3,784.42,384.08,783.69"/>
<g>
	<path class="st11" d="M364.49,740.46c0.09,2.71,0.12,5.41,0.09,8.12c0.01,1.35,0.01,2.71,0,4.06c-0.06,1.35-0.06,2.71-0.16,4.06
		c-0.1-1.35-0.1-2.71-0.16-4.06c-0.01-1.35-0.01-2.71,0-4.06c-0.03-2.71,0-5.41,0.09-8.12H364.49z"/>
</g>
</svg>