<svg xmlns="http://www.w3.org/2000/svg" viewBox="0 0 348.11 445.79"><defs><style>.cls-1{fill:#6f3096;}</style></defs><g id="Layer_2" data-name="Layer 2"><g id="Layer_1-2" data-name="Layer 1"><rect class="cls-1" x="277.28" y="287.32" width="26.5" height="123.02" rx="3.21"/><rect class="cls-1" x="231.85" y="287.32" width="26.5" height="154.28" rx="3.21"/><rect class="cls-1" x="185.48" y="287.32" width="26.5" height="112.13" rx="3.21"/><rect class="cls-1" x="139.11" y="283.14" width="26.5" height="158.54" rx="3.21"/><path class="cls-1" d="M289.9,0H107.56A58.21,58.21,0,0,0,49.35,58.2V248.3a58.21,58.21,0,0,0,58.21,58.2H289.9a58.21,58.21,0,0,0,58.21-58.2V58.2A58.21,58.21,0,0,0,289.9,0ZM143.22,248.42A13.25,13.25,0,0,1,130,261.67h0a13.25,13.25,0,0,1-13.25-13.25V169.5A13.25,13.25,0,0,1,130,156.25h0a13.25,13.25,0,0,1,13.25,13.25Zm137.52,0a13.25,13.25,0,0,1-26.5,0V169.5a13.25,13.25,0,0,1,26.5,0Z"/><path class="cls-1" d="M93.21,282.56v66.19A10.27,10.27,0,0,1,82.94,359H59.25v26.5H93A26.73,26.73,0,0,0,119.7,359V282.56Z"/><circle class="cls-1" cx="62.16" cy="372.56" r="20.05"/><circle class="cls-1" cx="152.36" cy="425.74" r="20.05"/><circle class="cls-1" cx="198.73" cy="382.88" r="20.05"/><circle class="cls-1" cx="290.53" cy="398.19" r="20.05"/><circle class="cls-1" cx="245.1" cy="425.19" r="20.05"/><path class="cls-1" d="M5.17,367.4l18,.14,2.6,0a5.16,5.16,0,1,0,0-10.32l-18-.14-2.59,0a5.17,5.17,0,1,0,0,10.33Z"/><path class="cls-1" d="M41.19,320.13,41,338.18l0,2.59a5.16,5.16,0,0,0,10.32,0l.15-18,0-2.6a5.16,5.16,0,0,0-10.32,0Z"/><path class="cls-1" d="M2.9,325.3,26,348.66,29.25,352a5.16,5.16,0,1,0,7.3-7.3L13.47,321.31,10.2,318a5.23,5.23,0,0,0-7.3,0,5.27,5.27,0,0,0,0,7.3Z"/></g></g></svg>