<svg width="28" height="28" viewBox="0 0 28 28" fill="none" xmlns="http://www.w3.org/2000/svg">
<path d="M7.67199 1.56787C6.80187 1.56787 6.0214 1.74717 5.49459 2.01084C4.97251 2.27451 4.77212 2.56982 4.77212 2.78076C4.77212 2.98643 4.97251 3.28754 5.49459 3.54541C6.0214 3.80908 6.80187 3.99365 7.67199 3.99365C8.5421 3.99365 9.32257 3.80908 9.84464 3.54541C10.372 3.28754 10.5724 2.98643 10.5724 2.78076C10.5724 2.56982 10.372 2.27451 9.84464 2.01084C9.32257 1.74717 8.5421 1.56787 7.67199 1.56787ZM16.1095 3.25537C15.2394 3.25537 14.4589 3.43467 13.9368 3.69834C13.4095 3.96201 13.2091 4.25732 13.2091 4.46826C13.2091 4.67393 13.4095 4.97504 13.9368 5.23291C14.4589 5.49658 15.2394 5.68062 16.1095 5.68062C16.3521 5.68062 16.5841 5.6648 16.8056 5.63844C17.0323 5.34893 17.354 5.09211 17.7284 4.92125C18.1609 4.72613 18.6618 4.56793 19.0099 4.46826C19.0099 4.25732 18.8095 3.96201 18.2821 3.69834C17.7601 3.43467 16.9796 3.25537 16.1095 3.25537ZM4.77212 4.22516C4.75103 4.99824 5.58845 5.31359 6.11632 5.46969C7.06027 5.74391 8.28371 5.74391 9.22765 5.46969C9.90265 5.27668 10.5671 4.90438 10.5724 4.22516C9.72335 4.78572 8.4841 4.93654 7.67199 4.94234C6.64367 4.85639 5.56367 4.74986 4.77212 4.22516ZM20.3282 5.32783C19.4581 5.32783 18.6777 5.50713 18.1556 5.77555C17.6282 6.03395 17.4278 6.33453 17.4278 6.5402C17.4278 6.75113 17.6282 7.04644 18.1556 7.31012C18.6777 7.57379 19.4581 7.75309 20.3282 7.75309C21.1984 7.75309 21.9788 7.57379 22.5009 7.31012C23.0282 7.04644 23.2286 6.75113 23.2286 6.5402C23.2286 6.33453 23.0282 6.03395 22.5009 5.77555C21.9788 5.50713 21.1984 5.32783 20.3282 5.32783ZM13.2091 5.91266V6.03922C13.362 6.09195 13.5097 6.15523 13.6468 6.22379C14.1214 6.46109 14.5327 6.79332 14.7437 7.20992C15.2816 7.34176 15.888 7.38922 16.4786 7.3523V6.6193C16.3573 6.62457 16.236 6.62984 16.1095 6.62984C15.1128 6.62984 14.2058 6.43473 13.5097 6.08668C13.4042 6.03395 13.304 5.97594 13.2091 5.91266ZM4.77212 5.91793C4.75419 6.68785 5.59056 7.00426 6.11632 7.16246C6.47492 7.26266 6.8757 7.33121 7.28703 7.3523C7.3925 7.07809 7.58234 6.83551 7.82492 6.62984C7.14992 6.64566 6.46964 6.56129 5.85265 6.38727C5.44185 6.26598 5.07798 6.11305 4.77212 5.91793ZM11.047 6.62984C10.1769 6.62984 9.3964 6.81441 8.87433 7.07281C8.34699 7.33648 8.1466 7.6318 8.1466 7.84273C8.1466 8.05367 8.34699 8.34899 8.87433 8.61266C9.3964 8.87633 10.1769 9.05563 11.047 9.05563C11.9171 9.05563 12.6976 8.87633 13.2196 8.61266C13.747 8.34899 13.9474 8.05367 13.9474 7.84273C13.9474 7.6318 13.747 7.33648 13.2196 7.07281C12.6976 6.81441 11.9171 6.62984 11.047 6.62984ZM4.77212 7.60543C4.75419 8.37535 5.59056 8.69176 6.11632 8.84996C6.44855 8.94488 6.81769 9.00816 7.19738 9.03453V8.3068C6.73332 8.27516 6.2798 8.19605 5.85265 8.07477C5.44185 7.95348 5.07798 7.80055 4.77212 7.60543ZM17.4278 7.99039C17.4173 8.76559 18.24 9.07672 18.7726 9.23492C19.7165 9.50914 20.94 9.50914 21.8839 9.23492C22.5536 9.0398 23.2234 8.67066 23.2286 7.99039C23.1337 8.0484 23.0335 8.10641 22.928 8.15914C22.2319 8.50719 21.3249 8.70231 20.3282 8.70231C19.3316 8.70231 18.4245 8.50719 17.7284 8.15914C17.623 8.10641 17.5228 8.0484 17.4278 7.99039ZM14.8966 8.21187V8.93434C15.3923 9.03453 15.946 9.07145 16.4786 9.0398V8.31207C15.946 8.33844 15.4081 8.3068 14.8966 8.21187ZM8.1466 9.28766C8.12023 9.60406 8.26261 9.86246 8.43664 10.0154C8.65812 10.2052 9.01671 10.4004 9.49132 10.5375C10.4353 10.8064 11.6587 10.8064 12.6027 10.5375C13.0773 10.4004 13.4359 10.2052 13.6573 10.0154C13.9157 9.79918 13.9474 9.58824 13.9474 9.28766C13.8525 9.35094 13.7523 9.40895 13.6468 9.46168C12.9507 9.80973 12.0437 10.0048 11.047 10.0048C10.0503 10.0048 9.14328 9.80973 8.44718 9.46168C8.34171 9.40895 8.24152 9.35094 8.1466 9.28766ZM4.77212 9.29293C4.75419 10.0629 5.59056 10.3793 6.11632 10.5375C6.44855 10.6324 6.81769 10.6957 7.19738 10.722V9.9943C6.73332 9.96266 6.2798 9.88355 5.85265 9.76227C5.44185 9.64098 5.07798 9.48805 4.77212 9.29293ZM17.4278 9.67789C17.4173 10.4531 18.24 10.7642 18.7726 10.9224C19.7165 11.1966 20.94 11.1966 21.8839 10.9224C22.5536 10.7273 23.2234 10.3582 23.2286 9.67789C22.9228 9.87301 22.5589 10.0259 22.1476 10.1472C21.0032 10.4795 19.6532 10.4795 18.5089 10.1472C18.0976 10.0259 17.7337 9.87301 17.4278 9.67789ZM14.8966 9.89937V10.6218C15.3923 10.722 15.946 10.7589 16.4786 10.7273V9.99957C15.946 10.0259 15.4081 9.9943 14.8966 9.89937ZM4.77212 10.9804C4.75419 11.7504 5.59056 12.0668 6.11632 12.225C6.44855 12.3199 6.81769 12.3832 7.19738 12.4095V11.6818C6.73332 11.6502 6.2798 11.5711 5.85265 11.4498C5.44185 11.3285 5.07798 11.1755 4.77212 10.9804ZM8.1466 10.9804C8.12023 11.2968 8.26261 11.55 8.43664 11.7029C8.65812 11.8927 9.01671 12.0879 9.49132 12.225C10.4353 12.4939 11.6587 12.4939 12.6027 12.225C13.0773 12.0879 13.4359 11.8927 13.6573 11.7029C13.9157 11.4867 13.9474 11.281 13.9474 10.9804C13.6415 11.1755 13.2777 11.3285 12.8663 11.4498C11.722 11.7767 10.372 11.7767 9.22765 11.4498C8.81632 11.3285 8.45246 11.1755 8.1466 10.9804ZM17.4278 11.3654C17.4173 12.1406 18.24 12.4517 18.7726 12.6099C19.7165 12.8841 20.94 12.8841 21.8839 12.6099C22.5536 12.4148 23.2234 12.0457 23.2286 11.3654C22.9228 11.5605 22.5589 11.7134 22.1476 11.8347C21.0032 12.167 19.6532 12.167 18.5089 11.8347C18.0976 11.7134 17.7337 11.5605 17.4278 11.3654ZM14.8966 11.5869V12.3093C15.3923 12.4095 15.946 12.4464 16.4786 12.4148V11.6871C15.946 11.7134 15.4081 11.6818 14.8966 11.5869ZM8.1466 12.6679V12.7892C8.29953 12.842 8.44718 12.9052 8.58429 12.9738C9.0589 13.2111 9.47023 13.5433 9.68117 13.9599C10.5935 14.1814 11.722 14.1656 12.6027 13.9125C13.0773 13.7754 13.4359 13.5802 13.6573 13.3904C13.9157 13.1742 13.9474 12.9685 13.9474 12.6679C13.6415 12.863 13.2777 13.016 12.8663 13.1373C11.722 13.4642 10.372 13.4642 9.22765 13.1373C8.81632 13.016 8.45246 12.863 8.1466 12.6679ZM17.4278 13.0529C17.4173 13.8281 18.24 14.1392 18.7726 14.2974C19.7165 14.5716 20.94 14.5716 21.8839 14.2974C22.5536 14.1023 23.2234 13.7332 23.2286 13.0529C22.9228 13.248 22.5589 13.4009 22.1476 13.5222C21.0032 13.8545 19.6532 13.8545 18.5089 13.5222C18.0976 13.4009 17.7337 13.248 17.4278 13.0529ZM14.8966 13.2744V13.9968C15.3923 14.097 15.946 14.1339 16.4786 14.1023V13.3746C15.946 13.4009 15.4081 13.3693 14.8966 13.2744ZM5.98449 13.3798C5.1149 13.3798 4.33443 13.5644 3.80708 13.8228C3.28501 14.0865 3.08462 14.3818 3.08462 14.5927C3.08462 14.8037 3.28501 15.099 3.80708 15.3627C4.33443 15.6263 5.1149 15.8056 5.98449 15.8056C6.8546 15.8056 7.63507 15.6263 8.15714 15.3627C8.68449 15.099 8.88488 14.8037 8.88488 14.5927C8.88488 14.3818 8.68449 14.0865 8.15714 13.8228C7.63507 13.5644 6.8546 13.3798 5.98449 13.3798ZM13.9474 14.3554C13.6415 14.5505 13.2777 14.7035 12.8663 14.8248C11.9171 15.0937 10.8308 15.1412 9.8341 14.9619V15.6843C10.72 15.8689 11.7694 15.8373 12.6027 15.6C13.2671 15.4048 13.9421 15.0304 13.9474 14.3554ZM17.4278 14.7404C17.412 15.4892 18.203 15.8109 18.7251 15.9691C19.0204 15.7318 19.2894 15.5525 19.6058 15.4207C19.2261 15.3785 18.8569 15.3099 18.5089 15.2097C18.0976 15.0884 17.7337 14.9355 17.4278 14.7404ZM23.2286 14.7404C23.081 14.8353 22.9175 14.9197 22.7382 14.9988C22.9017 15.0146 23.0652 15.0357 23.2181 15.0621C23.2392 14.9566 23.2286 14.8511 23.2286 14.7404ZM14.8966 14.9619V15.6791C15.4714 15.7898 15.9513 15.8162 16.4786 15.7951V15.0621C15.946 15.0884 15.4081 15.0568 14.8966 14.9619ZM22.0157 15.9111C21.1456 15.9111 20.3652 16.0957 19.8431 16.3541C19.3157 16.6177 19.1153 16.913 19.1153 17.124C19.1153 17.3349 19.3157 17.6302 19.8431 17.8939C20.3652 18.1576 21.1456 18.3369 22.0157 18.3369C22.8859 18.3369 23.6663 18.1576 24.1884 17.8939C24.7157 17.6302 24.9161 17.3349 24.9161 17.124C24.9161 16.913 24.7157 16.6177 24.1884 16.3541C23.6663 16.0957 22.8859 15.9111 22.0157 15.9111ZM3.08462 16.0377C3.06933 16.8181 3.89199 17.1293 4.42935 17.2875C5.3733 17.5564 6.59621 17.5564 7.54015 17.2875C8.20988 17.0923 8.8796 16.7179 8.88488 16.0377C8.78996 16.1009 8.68976 16.1589 8.58429 16.2117C7.8882 16.5597 6.98117 16.7548 5.98449 16.7548C4.95037 16.6705 3.88144 16.565 3.08462 16.0377ZM13.9474 16.0429C13.6415 16.238 13.2777 16.391 12.8663 16.5123C11.9171 16.7812 10.8308 16.8287 9.8341 16.6494V17.3718C10.72 17.5564 11.7694 17.5248 12.6027 17.2875C13.2671 17.0923 13.9421 16.7179 13.9474 16.0429ZM17.4278 16.4279C17.4068 16.9711 17.8497 17.2769 18.1556 17.4351C18.1556 17.4351 18.1609 17.4404 18.1661 17.4404V16.7865C17.8919 16.6863 17.6441 16.565 17.4278 16.4279ZM3.08462 17.7304C3.06669 18.5004 3.90306 18.8168 4.42935 18.975C5.3733 19.2439 6.59621 19.2439 7.54015 18.975C8.2046 18.7798 8.8796 18.4054 8.88488 17.7304C8.57902 17.9255 8.21515 18.0785 7.80382 18.1998C6.65949 18.5267 5.31001 18.5267 4.16568 18.1998C3.75435 18.0785 3.39048 17.9255 3.08462 17.7304ZM9.8341 18.3369V19.0541C10.0925 19.1121 10.372 19.149 10.662 19.1701C10.7675 18.8906 10.9573 18.648 11.1999 18.4423C10.7411 18.4529 10.2771 18.416 9.8341 18.3369ZM14.422 18.4423C13.5519 18.4423 12.7714 18.6269 12.2493 18.8853C11.722 19.149 11.5216 19.4443 11.5216 19.6552C11.5216 19.8662 11.722 20.1615 12.2493 20.4252C12.7714 20.6888 13.5519 20.8681 14.422 20.8681C15.2921 20.8681 16.0726 20.6888 16.5946 20.4252C17.122 20.1615 17.3224 19.8662 17.3224 19.6552C17.3224 19.4443 17.122 19.149 16.5946 18.8853C16.0726 18.6269 15.2921 18.4423 14.422 18.4423ZM19.1153 18.5689C19.1101 19.3494 19.9169 19.6605 20.4601 19.8187C21.404 20.0877 22.6275 20.0877 23.5714 19.8187C24.2411 19.6236 24.9109 19.2492 24.9161 18.5689C24.0829 19.0752 22.8226 19.2808 22.0157 19.2861C20.9821 19.2017 19.9116 19.0962 19.1153 18.5689ZM3.08462 19.4179C3.06669 20.1879 3.90306 20.5043 4.42935 20.6625C5.3733 20.9314 6.59621 20.9314 7.54015 20.6625C8.2046 20.4673 8.8796 20.0929 8.88488 19.4179C8.57902 19.613 8.21515 19.766 7.80382 19.8873C6.65949 20.2142 5.31001 20.2142 4.16568 19.8873C3.75435 19.766 3.39048 19.613 3.08462 19.4179ZM19.1153 20.2617C19.1048 21.0369 19.9275 21.348 20.4601 21.5062C21.404 21.7752 22.6275 21.7752 23.5714 21.5062C24.2359 21.3111 24.9109 20.9367 24.9161 20.2617C24.6103 20.4568 24.2464 20.6097 23.8351 20.731C22.6907 21.058 21.3407 21.058 20.1964 20.731C19.7851 20.6097 19.4212 20.4568 19.1153 20.2617ZM11.5216 21.1002C11.4952 21.4166 11.6376 21.675 11.8116 21.8279C12.0331 22.0177 12.3917 22.2129 12.8663 22.35C13.8103 22.6189 15.0337 22.6189 15.9777 22.35C16.4523 22.2129 16.8109 22.0177 17.0323 21.8279C17.2538 21.638 17.3224 21.4746 17.3224 21.3427V21.1002C17.2275 21.1634 17.1273 21.2214 17.0218 21.2742C16.3257 21.6222 15.4187 21.8173 14.422 21.8173C13.4253 21.8173 12.5183 21.6222 11.8222 21.2742C11.7167 21.2214 11.6165 21.1634 11.5216 21.1002ZM3.08462 21.1054C3.06669 21.8754 3.90306 22.1918 4.42935 22.35C5.3733 22.6189 6.59621 22.6189 7.54015 22.35C8.2046 22.1548 8.8796 21.7804 8.88488 21.1054C8.57902 21.3005 8.21515 21.4535 7.80382 21.5748C6.65949 21.9017 5.31001 21.9017 4.16568 21.5748C3.75435 21.4535 3.39048 21.3005 3.08462 21.1054ZM19.1153 21.9492C19.1048 22.7244 19.9275 23.0355 20.4601 23.1937C21.404 23.4627 22.6275 23.4627 23.5714 23.1937C24.2359 22.9986 24.9109 22.6242 24.9161 21.9492C24.6103 22.1443 24.2464 22.2972 23.8351 22.4185C22.6907 22.7455 21.3407 22.7455 20.1964 22.4185C19.7851 22.2972 19.4212 22.1443 19.1153 21.9492ZM3.08462 22.7929C3.06669 23.5629 3.90306 23.8793 4.42935 24.0375C5.3733 24.3064 6.59621 24.3064 7.54015 24.0375C8.2046 23.8423 8.8796 23.4679 8.88488 22.7929C8.57902 22.988 8.21515 23.141 7.80382 23.2623C6.65949 23.5892 5.31001 23.5892 4.16568 23.2623C3.75435 23.141 3.39048 22.988 3.08462 22.7929ZM11.5216 22.7929C11.5005 23.3361 11.9435 23.642 12.2493 23.8002C12.7714 24.0638 13.5519 24.2431 14.422 24.2431C15.2921 24.2431 16.0726 24.0638 16.5946 23.8002C17.1167 23.4732 17.3224 23.3466 17.3224 22.7929C17.0165 22.988 16.6527 23.141 16.2413 23.2623C15.097 23.5892 13.747 23.5892 12.6027 23.2623C12.1913 23.141 11.8275 22.988 11.5216 22.7929ZM19.1153 23.6367C19.0943 24.1798 19.5372 24.4857 19.8431 24.6439C20.3652 24.9076 21.1456 25.0869 22.0157 25.0869C22.8859 25.0869 23.6663 24.9076 24.1884 24.6439C24.7105 24.317 24.9161 24.1904 24.9161 23.6367C24.6103 23.8318 24.2464 23.9847 23.8351 24.106C22.6907 24.433 21.3407 24.433 20.1964 24.106C19.7851 23.9847 19.4212 23.8318 19.1153 23.6367ZM3.08462 24.4804C3.06142 25.0183 3.50017 25.3295 3.80708 25.4877C4.33443 25.7513 5.1149 25.9306 5.98449 25.9306C6.8546 25.9306 7.63507 25.7513 8.15714 25.4877C8.67921 25.1607 8.88488 25.0341 8.88488 24.4804C8.57902 24.6755 8.21515 24.8285 7.80382 24.9498C6.65949 25.2767 5.31001 25.2767 4.16568 24.9498C3.75435 24.8285 3.39048 24.6755 3.08462 24.4804Z" fill="#B897CC"/>
</svg>
