<svg width="200" height="200" viewBox="0 0 200 200" fill="none" xmlns="http://www.w3.org/2000/svg">
<path d="M100 16.667C89.0568 16.667 78.2205 18.8225 68.11 23.0104C57.9996 27.1983 48.813 33.3365 41.0748 41.0748C25.4467 56.7028 16.667 77.8989 16.667 100C16.667 122.102 25.4467 143.298 41.0748 158.926C48.813 166.664 57.9996 172.802 68.11 176.99C78.2205 181.178 89.0568 183.334 100 183.334C122.102 183.334 143.298 174.554 158.926 158.926C174.554 143.298 183.334 122.102 183.334 100C183.334 89.0568 181.178 78.2205 176.99 68.11C172.802 57.9996 166.664 48.813 158.926 41.0748C151.188 33.3365 142.001 27.1983 131.891 23.0104C121.78 18.8225 110.944 16.667 100 16.667ZM100 69.917C113.446 78.6527 129.132 83.3122 145.167 83.3337C151.667 83.3337 157.917 82.5837 163.917 81.167C165.667 87.0837 166.667 93.417 166.667 100C166.667 136.75 136.75 166.667 100 166.667C75.0003 166.667 53.2503 152.834 41.667 132.417L56.2503 116.667V108.334C56.2503 105.571 57.3478 102.921 59.3013 100.968C61.2548 99.0145 63.9043 97.917 66.667 97.917C69.4297 97.917 72.0792 99.0145 74.0327 100.968C75.9862 102.921 77.0837 105.571 77.0837 108.334V116.667H100M133.334 97.917C130.571 97.917 127.921 99.0145 125.968 100.968C124.014 102.921 122.917 105.571 122.917 108.334C122.917 111.096 124.014 113.746 125.968 115.699C127.921 117.653 130.571 118.75 133.334 118.75C136.096 118.75 138.746 117.653 140.699 115.699C142.653 113.746 143.75 111.096 143.75 108.334C143.75 105.571 142.653 102.921 140.699 100.968C138.746 99.0145 136.096 97.917 133.334 97.917Z" fill="black"/>
</svg>
