<svg xmlns="http://www.w3.org/2000/svg" viewBox="0 0 80.46 116.35"><defs><style>.cls-1{fill:#1f0031;}.cls-2,.cls-4{fill:#9f72c0;}.cls-3{fill:#6f3096;}.cls-4{stroke:#1f0031;stroke-miterlimit:10;stroke-width:3.09px;}</style></defs><g id="Layer_2" data-name="Layer 2"><g id="Layer_1-2" data-name="Layer 1"><path class="cls-1" d="M80.08,14.72a1.51,1.51,0,0,0-.07-.37l-.07-.13-.06-.12L70.82.88a1.19,1.19,0,0,0-1-.51H10.6a1.2,1.2,0,0,0-1,.51L.57,14.1l-.07.15,0,.08a1.89,1.89,0,0,0-.08.4V27.41A9,9,0,0,0,4.7,35.06a8.51,8.51,0,0,0,1.88.82V107c0,2.63,1.22,9,9,9H63.47c7.48,0,9-6.36,9-9V36.23a9.17,9.17,0,0,0,3.31-1.17,9.42,9.42,0,0,0,1.73-1.36,8.85,8.85,0,0,0,2.61-6.29V14.72ZM63.47,113.64H15.55A6.66,6.66,0,0,1,8.92,107V36.29l.36,0c.44,0,2.71,0,3.14-.1V95.16A6.6,6.6,0,0,0,19,101.75H60a6.6,6.6,0,0,0,6.6-6.59V35.89c.53.17,2.93.29,3.5.35V107A6.65,6.65,0,0,1,63.47,113.64ZM11.22,2.71H20.7L16.23,13.59H3.76Zm33.91,0,1.49,10.88H33.83l1.5-10.88Zm24.1,0L76.7,13.59H64.23L59.76,2.71ZM32.49,31.8A8.88,8.88,0,0,0,48,31.8a8.89,8.89,0,0,0,15.48,0A6.7,6.7,0,0,0,64.37,34h0l-.11,61.13A4.26,4.26,0,0,1,60,99.41H19a4.26,4.26,0,0,1-4.26-4.25V35A10.69,10.69,0,0,0,17,31.8a8.89,8.89,0,0,0,15.48,0Zm29.78-4.39a6.57,6.57,0,1,1-13.14,0V15.93H62.27Zm2.41,7,.18.2S64.77,34.58,64.68,34.45Zm-17.89-7a6.57,6.57,0,1,1-13.13,0V15.93H46.79Zm-15.47,0a6.57,6.57,0,1,1-13.14,0V15.93H31.32ZM49,13.59,47.49,2.71h9.73l4.47,10.88ZM33,2.71,31.47,13.59H18.76L23.24,2.71ZM2.71,15.93H15.84V27.41A6.57,6.57,0,0,1,9.27,34,6.49,6.49,0,0,1,5.9,33a6.57,6.57,0,0,1-3.19-5.63Zm61.9,11.48V15.93H77.75V27.41a6.52,6.52,0,0,1-1.92,4.64,6.36,6.36,0,0,1-1.28,1,6.47,6.47,0,0,1-3.37.94A6.57,6.57,0,0,1,64.61,27.41Z"/><path class="cls-1" d="M64.24,15.56V27.41a6.93,6.93,0,0,0,10.5,5.95,6.74,6.74,0,0,0,1.34-1,6.89,6.89,0,0,0,2-4.9V15.56ZM77.38,27.41a6.15,6.15,0,0,1-1.82,4.38,6.71,6.71,0,0,1-1.2.94,6.27,6.27,0,0,1-3.18.88,6.2,6.2,0,0,1-6.2-6.2V16.3h12.4ZM48.76,15.57V27.41a6.94,6.94,0,0,0,13.88,0V15.57ZM61.9,27.41a6.2,6.2,0,0,1-1.82,4.38,6.18,6.18,0,0,1-8.76,0,6.2,6.2,0,0,1-1.82-4.38V16.3H61.9ZM33.29,15.57V27.41a6.94,6.94,0,0,0,13.88,0V15.57ZM46.42,27.41a6.2,6.2,0,1,1-12.39,0V16.3H46.42ZM17.81,15.57V27.41a6.94,6.94,0,0,0,13.88,0V15.57ZM31,27.41a6.2,6.2,0,0,1-12.4,0V16.3H31ZM2.34,15.56V27.41a6.94,6.94,0,1,0,13.87,0V15.56ZM15.47,27.41a6.2,6.2,0,0,1-6.2,6.2,6.19,6.19,0,0,1-6.19-6.2V16.3H15.47ZM11,2.34l-.11.16L3.06,14H16.48L21.25,2.34ZM4.46,13.22l7-10.14h8.74L16,13.22ZM23,2.34,18.21,14H31.78l0-.32,1.55-11.3ZM19.31,13.22,23.49,3.08h9L31.14,13.22ZM57.77,3.08l-.15-.37-.15-.37H47.07L48.67,14H62.24Zm-.8,0,4.17,10.14H49.31L47.92,3.08ZM47,13.54,45.45,2.34H35L33.41,14H47.05Zm-12.74-.32L35.64,3.08h9.17L46.2,13.22ZM63.47,116.06V116l0-.37H15.57l0,.37,0,.37H63.48ZM2.34,15.56V27.41a6.94,6.94,0,1,0,13.87,0V15.56ZM15.47,27.41a6.2,6.2,0,0,1-6.2,6.2,6.19,6.19,0,0,1-6.19-6.2V16.3H15.47ZM11,2.34l-.11.16L3.06,14H16.48L21.25,2.34ZM4.46,13.22l7-10.14h8.74L16,13.22Zm13.35,2.35V27.41a6.94,6.94,0,0,0,13.88,0V15.57ZM31,27.41a6.2,6.2,0,0,1-12.4,0V16.3H31ZM23,2.34,18.21,14H31.78l0-.32,1.55-11.3ZM19.31,13.22,23.49,3.08h9L31.14,13.22ZM47,13.54,45.45,2.34H35L33.41,14H47.05Zm-12.74-.32L35.64,3.08h9.17L46.2,13.22Zm-1,2.35V27.41a6.94,6.94,0,0,0,13.88,0V15.57ZM46.42,27.41a6.2,6.2,0,1,1-12.39,0V16.3H46.42Zm2.34-11.84V27.41a6.94,6.94,0,0,0,13.88,0V15.57ZM61.9,27.41a6.2,6.2,0,0,1-1.82,4.38,6.18,6.18,0,0,1-8.76,0,6.2,6.2,0,0,1-1.82-4.38V16.3H61.9Zm2.34-11.85V27.41a6.93,6.93,0,0,0,10.5,5.95,6.74,6.74,0,0,0,1.34-1,6.89,6.89,0,0,0,2-4.9V15.56ZM77.38,27.41a6.15,6.15,0,0,1-1.82,4.38,6.71,6.71,0,0,1-1.2.94,6.27,6.27,0,0,1-3.18.88,6.2,6.2,0,0,1-6.2-6.2V16.3h12.4Zm-75-11.85V27.41a6.94,6.94,0,1,0,13.87,0V15.56ZM15.47,27.41a6.2,6.2,0,0,1-6.2,6.2,6.19,6.19,0,0,1-6.19-6.2V16.3H15.47ZM11,2.34l-.11.16L3.06,14H16.48L21.25,2.34ZM4.46,13.22l7-10.14h8.74L16,13.22Zm13.35,2.35V27.41a6.94,6.94,0,0,0,13.88,0V15.57ZM31,27.41a6.2,6.2,0,0,1-12.4,0V16.3H31ZM23,2.34,18.21,14H31.78l0-.32,1.55-11.3ZM19.31,13.22,23.49,3.08h9L31.14,13.22ZM47,13.54,45.45,2.34H35L33.41,14H47.05Zm-12.74-.32L35.64,3.08h9.17L46.2,13.22Zm-1,2.35V27.41a6.94,6.94,0,0,0,13.88,0V15.57ZM46.42,27.41a6.2,6.2,0,1,1-12.39,0V16.3H46.42Zm2.34-11.84V27.41a6.94,6.94,0,0,0,13.88,0V15.57ZM61.9,27.41a6.2,6.2,0,0,1-1.82,4.38,6.18,6.18,0,0,1-8.76,0,6.2,6.2,0,0,1-1.82-4.38V16.3H61.9Zm2.34-11.85V27.41a6.93,6.93,0,0,0,10.5,5.95,6.74,6.74,0,0,0,1.34-1,6.89,6.89,0,0,0,2-4.9V15.56ZM77.38,27.41a6.15,6.15,0,0,1-1.82,4.38,6.71,6.71,0,0,1-1.2.94,6.27,6.27,0,0,1-3.18.88,6.2,6.2,0,0,1-6.2-6.2V16.3h12.4Zm-75-11.85V27.41a6.94,6.94,0,1,0,13.87,0V15.56ZM15.47,27.41a6.2,6.2,0,0,1-6.2,6.2,6.19,6.19,0,0,1-6.19-6.2V16.3H15.47ZM11,2.34l-.11.16L3.06,14H16.48L21.25,2.34ZM4.46,13.22l7-10.14h8.74L16,13.22Zm13.35,2.35V27.41a6.94,6.94,0,0,0,13.88,0V15.57ZM31,27.41a6.2,6.2,0,0,1-12.4,0V16.3H31ZM23,2.34,18.21,14H31.78l0-.32,1.55-11.3ZM19.31,13.22,23.49,3.08h9L31.14,13.22ZM47,13.54,45.45,2.34H35L33.41,14H47.05Zm-12.74-.32L35.64,3.08h9.17L46.2,13.22Zm-1,2.35V27.41a6.94,6.94,0,0,0,13.88,0V15.57ZM46.42,27.41a6.2,6.2,0,1,1-12.39,0V16.3H46.42Zm2.34-11.84V27.41a6.94,6.94,0,0,0,13.88,0V15.57ZM61.9,27.41a6.2,6.2,0,0,1-1.82,4.38,6.18,6.18,0,0,1-8.76,0,6.2,6.2,0,0,1-1.82-4.38V16.3H61.9Zm2.34-11.85V27.41a6.93,6.93,0,0,0,10.5,5.95,6.74,6.74,0,0,0,1.34-1,6.89,6.89,0,0,0,2-4.9V15.56ZM77.38,27.41a6.15,6.15,0,0,1-1.82,4.38,6.71,6.71,0,0,1-1.2.94,6.27,6.27,0,0,1-3.18.88,6.2,6.2,0,0,1-6.2-6.2V16.3h12.4Zm-75-11.85V27.41a6.94,6.94,0,1,0,13.87,0V15.56ZM15.47,27.41a6.2,6.2,0,0,1-6.2,6.2,6.19,6.19,0,0,1-6.19-6.2V16.3H15.47ZM11,2.34l-.11.16L3.06,14H16.48L21.25,2.34ZM4.46,13.22l7-10.14h8.74L16,13.22Zm13.35,2.35V27.41a6.94,6.94,0,0,0,13.88,0V15.57ZM31,27.41a6.2,6.2,0,0,1-12.4,0V16.3H31ZM23,2.34,18.21,14H31.78l0-.32,1.55-11.3ZM19.31,13.22,23.49,3.08h9L31.14,13.22ZM47,13.54,45.45,2.34H35L33.41,14H47.05Zm-12.74-.32L35.64,3.08h9.17L46.2,13.22Zm-1,2.35V27.41a6.94,6.94,0,0,0,13.88,0V15.57ZM46.42,27.41a6.2,6.2,0,1,1-12.39,0V16.3H46.42Zm2.34-11.84V27.41a6.94,6.94,0,0,0,13.88,0V15.57ZM61.9,27.41a6.2,6.2,0,0,1-1.82,4.38,6.18,6.18,0,0,1-8.76,0,6.2,6.2,0,0,1-1.82-4.38V16.3H61.9Zm2.34-11.85V27.41a6.93,6.93,0,0,0,10.5,5.95,6.74,6.74,0,0,0,1.34-1,6.89,6.89,0,0,0,2-4.9V15.56ZM77.38,27.41a6.15,6.15,0,0,1-1.82,4.38,6.71,6.71,0,0,1-1.2.94,6.27,6.27,0,0,1-3.18.88,6.2,6.2,0,0,1-6.2-6.2V16.3h12.4Zm-75-11.85V27.41a6.94,6.94,0,1,0,13.87,0V15.56ZM15.47,27.41a6.2,6.2,0,0,1-6.2,6.2,6.19,6.19,0,0,1-6.19-6.2V16.3H15.47ZM11,2.34l-.11.16L3.06,14H16.48L21.25,2.34ZM4.46,13.22l7-10.14h8.74L16,13.22Zm13.35,2.35V27.41a6.94,6.94,0,0,0,13.88,0V15.57ZM31,27.41a6.2,6.2,0,0,1-12.4,0V16.3H31ZM23,2.34,18.21,14H31.78l0-.32,1.55-11.3ZM19.31,13.22,23.49,3.08h9L31.14,13.22ZM47,13.54,45.45,2.34H35L33.41,14H47.05Zm-12.74-.32L35.64,3.08h9.17L46.2,13.22Zm-1,2.35V27.41a6.94,6.94,0,0,0,13.88,0V15.57ZM46.42,27.41a6.2,6.2,0,1,1-12.39,0V16.3H46.42Zm2.34-11.84V27.41a6.94,6.94,0,0,0,13.88,0V15.57ZM61.9,27.41a6.2,6.2,0,0,1-1.82,4.38,6.18,6.18,0,0,1-8.76,0,6.2,6.2,0,0,1-1.82-4.38V16.3H61.9Zm2.34-11.85V27.41a6.93,6.93,0,0,0,10.5,5.95,6.74,6.74,0,0,0,1.34-1,6.89,6.89,0,0,0,2-4.9V15.56ZM77.38,27.41a6.15,6.15,0,0,1-1.82,4.38,6.71,6.71,0,0,1-1.2.94,6.27,6.27,0,0,1-3.18.88,6.2,6.2,0,0,1-6.2-6.2V16.3h12.4Zm-75-11.85V27.41a6.94,6.94,0,1,0,13.87,0V15.56ZM15.47,27.41a6.2,6.2,0,0,1-6.2,6.2,6.19,6.19,0,0,1-6.19-6.2V16.3H15.47ZM11,2.34l-.11.16L3.06,14H16.48L21.25,2.34ZM4.46,13.22l7-10.14h8.74L16,13.22Zm13.35,2.35V27.41a6.94,6.94,0,0,0,13.88,0V15.57ZM31,27.41a6.2,6.2,0,0,1-12.4,0V16.3H31ZM23,2.34,18.21,14H31.78l0-.32,1.55-11.3ZM19.31,13.22,23.49,3.08h9L31.14,13.22ZM47,13.54,45.45,2.34H35L33.41,14H47.05Zm-12.74-.32L35.64,3.08h9.17L46.2,13.22Zm-1,2.35V27.41a6.94,6.94,0,0,0,13.88,0V15.57ZM46.42,27.41a6.2,6.2,0,1,1-12.39,0V16.3H46.42Zm2.34-11.84V27.41a6.94,6.94,0,0,0,13.88,0V15.57ZM61.9,27.41a6.2,6.2,0,0,1-1.82,4.38,6.18,6.18,0,0,1-8.76,0,6.2,6.2,0,0,1-1.82-4.38V16.3H61.9Zm2.34-11.85V27.41a6.93,6.93,0,0,0,10.5,5.95,6.74,6.74,0,0,0,1.34-1,6.89,6.89,0,0,0,2-4.9V15.56ZM77.38,27.41a6.15,6.15,0,0,1-1.82,4.38,6.71,6.71,0,0,1-1.2.94,6.27,6.27,0,0,1-3.18.88,6.2,6.2,0,0,1-6.2-6.2V16.3h12.4ZM57.47,2.34H47.07L48.67,14H62.24L57.47,2.34h1.72L64,14H77.39l-8-11.62h-12s1.22-1,1.84-1.57l10.54,0a.82.82,0,0,1,.66.34l9,13.21,0,.1.06.13a.52.52,0,0,1,0,.21V27.41a8.47,8.47,0,0,1-2.5,6,8.23,8.23,0,0,1-1.66,1.29h0a8.36,8.36,0,0,1-3.16,1.11l-.32,0v58c-.23-.14-.51,3.93-.8,3.93s-.57-2.12-.8-2v-60l-.33,0c-.3,0-1-.08-1.78-.15-.36,0-.73,0-1-.09l-.62-.1-.48-.16V95.16A6.25,6.25,0,0,1,60,101.39H19a6.23,6.23,0,0,1-6.23-6.23V52.57a1.47,1.47,0,0,0,.8.23,1.55,1.55,0,0,0,.8-.22V95.16A4.63,4.63,0,0,0,19,99.78H60a4.62,4.62,0,0,0,4.62-4.62L64.75,35s-.38.11.1,0l-.1,0,.1,0,.16-.75h0s0,0,0,0v0c-.06-.08-.12-.19-.18-.27l-.09-.14-.06-.06,0,0s0,0,0,0a8.89,8.89,0,0,1-.42-.81c-.12-.27-.22-.53-.3-.74a3.48,3.48,0,0,1-.09-.38V30.42l-.68,1.2a8.51,8.51,0,0,1-14.83,0L48,31.06l-.32.56a8.51,8.51,0,0,1-14.83,0l-.32-.56-.33.56a8.51,8.51,0,0,1-14.83,0L17,31l-.32.61a10.33,10.33,0,0,1-1.21,2c-.28.35-.57.58-1,1.12l-.08.1V45.33a1.55,1.55,0,0,0-.8-.22,1.47,1.47,0,0,0-.8.23V35.79l-.42.05c-.07,0-.3,0-.57,0-.83,0-2.19.06-2.51.06l-.34,0-.39,0V107a7,7,0,0,0,7,7H63.47a7,7,0,0,0,7-7V98.37a1.48,1.48,0,0,0,.8.24,1.56,1.56,0,0,0,.8-.23V107a9.88,9.88,0,0,1-1.61,5.27c-1.26,1.84-3.36,3.34-7,3.35v.74h0c3.84,0,6.23-1.66,7.58-3.67A10.62,10.62,0,0,0,72.81,107V36.53a8.92,8.92,0,0,0,3.13-1.16A9,9,0,0,0,77.74,34a9.22,9.22,0,0,0,2.72-6.55V14.72h0v-.06a1.57,1.57,0,0,0-.09-.43v0l-.06-.14-.07-.12v0L71.12.67A1.54,1.54,0,0,0,69.85,0H10.6A1.52,1.52,0,0,0,9.34.67L.26,13.91l-.09.17-.05.1h0a1.51,1.51,0,0,0-.09.47H0V27.41a9.3,9.3,0,0,0,4.51,8,8.09,8.09,0,0,0,1.7.77V107a10.67,10.67,0,0,0,1.64,5.69c1.33,2,3.72,3.67,7.68,3.67h0V116h47.9l0-.37H15.57c-3.79,0-5.88-1.51-7.1-3.34A9.85,9.85,0,0,1,7,107V35.61l-.26-.08a8.27,8.27,0,0,1-1.8-.79A8.6,8.6,0,0,1,.74,27.41V14.74a.69.69,0,0,1,.05-.24h0v0l0-.06.06-.12,9-13.21A.82.82,0,0,1,10.6.74H46.15l13.16,0M69,3.08,76,13.22H64.48L60.3,3.08Zm-53.92,32c.35-.41.61-.63.92-1a9.42,9.42,0,0,0,1-1.55,9.26,9.26,0,0,0,15.46,0,9.25,9.25,0,0,0,15.47,0,9.25,9.25,0,0,0,15.35.19,8.24,8.24,0,0,0,.7,1.44l-.12,61A3.89,3.89,0,0,1,60,99H19a3.89,3.89,0,0,1-3.89-3.88ZM12.78,46.64a.8.8,0,0,1,1.6,0v4.62a.8.8,0,0,1-1.6,0Zm57,60.35a6.29,6.29,0,0,1-6.26,6.28H15.55A6.28,6.28,0,0,1,9.29,107V36.69l1.57,0,1,0H12V95.16a7,7,0,0,0,7,7H60a7,7,0,0,0,7-7V36.34l.28,0c.76.1,1.89.17,2.48.22ZM49.31,13.22,47.92,3.08h9l4.17,10.14Zm22,84.65a.81.81,0,0,1-.8-.8v-4.4a.8.8,0,0,1,1.6,0v4.4A.8.8,0,0,1,71.27,97.87Zm-.09-63.52a6.9,6.9,0,0,0,3.56-1,6.74,6.74,0,0,0,1.34-1,6.89,6.89,0,0,0,2-4.9V15.56H64.24V27.41A6.94,6.94,0,0,0,71.18,34.35ZM65,16.3h12.4V27.41a6.15,6.15,0,0,1-1.82,4.38,6.71,6.71,0,0,1-1.2.94,6.27,6.27,0,0,1-3.18.88,6.2,6.2,0,0,1-6.2-6.2Zm-9.27,18a6.93,6.93,0,0,0,6.93-6.93V15.57H48.76V27.41A6.94,6.94,0,0,0,55.71,34.34Zm-6.21-18H61.9V27.41a6.2,6.2,0,0,1-1.82,4.38,6.18,6.18,0,0,1-8.76,0,6.2,6.2,0,0,1-1.82-4.38ZM33.29,27.41a6.94,6.94,0,0,0,13.88,0V15.57H33.29ZM34,16.3H46.42V27.41a6.2,6.2,0,1,1-12.39,0Zm13-2.76L45.45,2.34H35L33.41,14H47.05Zm-12.74-.32L35.64,3.08h9.17L46.2,13.22ZM31.78,14l0-.32,1.55-11.3H23L18.21,14Zm.75-10.88L31.14,13.22H19.31L23.49,3.08ZM17.81,27.41a6.94,6.94,0,0,0,13.88,0V15.57H17.81Zm.74-11.11H31V27.41a6.2,6.2,0,0,1-12.4,0Zm2.7-14H11l-.11.16L3.06,14H16.48ZM4.46,13.22l7-10.14h8.74L16,13.22ZM16.21,27.41V15.56H2.34V27.41a6.94,6.94,0,1,0,13.87,0ZM3.08,16.3H15.47V27.41a6.2,6.2,0,0,1-6.2,6.2,6.19,6.19,0,0,1-6.19-6.2Zm61.16-.74V27.41a6.93,6.93,0,0,0,10.5,5.95,6.74,6.74,0,0,0,1.34-1,6.89,6.89,0,0,0,2-4.9V15.56ZM77.38,27.41a6.15,6.15,0,0,1-1.82,4.38,6.71,6.71,0,0,1-1.2.94,6.27,6.27,0,0,1-3.18.88,6.2,6.2,0,0,1-6.2-6.2V16.3h12.4ZM48.76,15.57V27.41a6.94,6.94,0,0,0,13.88,0V15.57ZM61.9,27.41a6.2,6.2,0,0,1-1.82,4.38,6.18,6.18,0,0,1-8.76,0,6.2,6.2,0,0,1-1.82-4.38V16.3H61.9ZM33.29,15.57V27.41a6.94,6.94,0,0,0,13.88,0V15.57ZM46.42,27.41a6.2,6.2,0,1,1-12.39,0V16.3H46.42ZM47,13.54,45.45,2.34H35L33.41,14H47.05Zm-12.74-.32L35.64,3.08h9.17L46.2,13.22ZM23,2.34,18.21,14H31.78l0-.32,1.55-11.3ZM19.31,13.22,23.49,3.08h9L31.14,13.22Zm-1.5,2.35V27.41a6.94,6.94,0,0,0,13.88,0V15.57ZM31,27.41a6.2,6.2,0,0,1-12.4,0V16.3H31ZM11,2.34l-.11.16L3.06,14H16.48L21.25,2.34ZM4.46,13.22l7-10.14h8.74L16,13.22ZM2.34,15.56V27.41a6.94,6.94,0,1,0,13.87,0V15.56ZM15.47,27.41a6.2,6.2,0,0,1-6.2,6.2,6.19,6.19,0,0,1-6.19-6.2V16.3H15.47ZM64.24,15.56V27.41a6.93,6.93,0,0,0,10.5,5.95,6.74,6.74,0,0,0,1.34-1,6.89,6.89,0,0,0,2-4.9V15.56ZM77.38,27.41a6.15,6.15,0,0,1-1.82,4.38,6.71,6.71,0,0,1-1.2.94,6.27,6.27,0,0,1-3.18.88,6.2,6.2,0,0,1-6.2-6.2V16.3h12.4ZM48.76,15.57V27.41a6.94,6.94,0,0,0,13.88,0V15.57ZM61.9,27.41a6.2,6.2,0,0,1-1.82,4.38,6.18,6.18,0,0,1-8.76,0,6.2,6.2,0,0,1-1.82-4.38V16.3H61.9ZM33.29,15.57V27.41a6.94,6.94,0,0,0,13.88,0V15.57ZM46.42,27.41a6.2,6.2,0,1,1-12.39,0V16.3H46.42ZM47,13.54,45.45,2.34H35L33.41,14H47.05Zm-12.74-.32L35.64,3.08h9.17L46.2,13.22ZM23,2.34,18.21,14H31.78l0-.32,1.55-11.3ZM19.31,13.22,23.49,3.08h9L31.14,13.22Zm-1.5,2.35V27.41a6.94,6.94,0,0,0,13.88,0V15.57ZM31,27.41a6.2,6.2,0,0,1-12.4,0V16.3H31ZM11,2.34l-.11.16L3.06,14H16.48L21.25,2.34ZM4.46,13.22l7-10.14h8.74L16,13.22ZM2.34,15.56V27.41a6.94,6.94,0,1,0,13.87,0V15.56ZM15.47,27.41a6.2,6.2,0,0,1-6.2,6.2,6.19,6.19,0,0,1-6.19-6.2V16.3H15.47ZM64.24,15.56V27.41a6.93,6.93,0,0,0,10.5,5.95,6.74,6.74,0,0,0,1.34-1,6.89,6.89,0,0,0,2-4.9V15.56ZM77.38,27.41a6.15,6.15,0,0,1-1.82,4.38,6.71,6.71,0,0,1-1.2.94,6.27,6.27,0,0,1-3.18.88,6.2,6.2,0,0,1-6.2-6.2V16.3h12.4ZM48.76,15.57V27.41a6.94,6.94,0,0,0,13.88,0V15.57ZM61.9,27.41a6.2,6.2,0,0,1-1.82,4.38,6.18,6.18,0,0,1-8.76,0,6.2,6.2,0,0,1-1.82-4.38V16.3H61.9ZM33.29,15.57V27.41a6.94,6.94,0,0,0,13.88,0V15.57ZM46.42,27.41a6.2,6.2,0,1,1-12.39,0V16.3H46.42ZM47,13.54,45.45,2.34H35L33.41,14H47.05Zm-12.74-.32L35.64,3.08h9.17L46.2,13.22ZM23,2.34,18.21,14H31.78l0-.32,1.55-11.3ZM19.31,13.22,23.49,3.08h9L31.14,13.22Zm-1.5,2.35V27.41a6.94,6.94,0,0,0,13.88,0V15.57ZM31,27.41a6.2,6.2,0,0,1-12.4,0V16.3H31ZM11,2.34l-.11.16L3.06,14H16.48L21.25,2.34ZM4.46,13.22l7-10.14h8.74L16,13.22ZM2.34,15.56V27.41a6.94,6.94,0,1,0,13.87,0V15.56ZM15.47,27.41a6.2,6.2,0,0,1-6.2,6.2,6.19,6.19,0,0,1-6.19-6.2V16.3H15.47ZM64.24,15.56V27.41a6.93,6.93,0,0,0,10.5,5.95,6.74,6.74,0,0,0,1.34-1,6.89,6.89,0,0,0,2-4.9V15.56ZM77.38,27.41a6.15,6.15,0,0,1-1.82,4.38,6.71,6.71,0,0,1-1.2.94,6.27,6.27,0,0,1-3.18.88,6.2,6.2,0,0,1-6.2-6.2V16.3h12.4ZM48.76,15.57V27.41a6.94,6.94,0,0,0,13.88,0V15.57ZM61.9,27.41a6.2,6.2,0,0,1-1.82,4.38,6.18,6.18,0,0,1-8.76,0,6.2,6.2,0,0,1-1.82-4.38V16.3H61.9ZM33.29,15.57V27.41a6.94,6.94,0,0,0,13.88,0V15.57ZM46.42,27.41a6.2,6.2,0,1,1-12.39,0V16.3H46.42ZM47,13.54,45.45,2.34H35L33.41,14H47.05Zm-12.74-.32L35.64,3.08h9.17L46.2,13.22ZM23,2.34,18.21,14H31.78l0-.32,1.55-11.3ZM19.31,13.22,23.49,3.08h9L31.14,13.22Zm-1.5,2.35V27.41a6.94,6.94,0,0,0,13.88,0V15.57ZM31,27.41a6.2,6.2,0,0,1-12.4,0V16.3H31ZM11,2.34l-.11.16L3.06,14H16.48L21.25,2.34ZM4.46,13.22l7-10.14h8.74L16,13.22ZM2.34,15.56V27.41a6.94,6.94,0,1,0,13.87,0V15.56ZM15.47,27.41a6.2,6.2,0,0,1-6.2,6.2,6.19,6.19,0,0,1-6.19-6.2V16.3H15.47ZM64.24,15.56V27.41a6.93,6.93,0,0,0,10.5,5.95,6.74,6.74,0,0,0,1.34-1,6.89,6.89,0,0,0,2-4.9V15.56ZM77.38,27.41a6.15,6.15,0,0,1-1.82,4.38,6.71,6.71,0,0,1-1.2.94,6.27,6.27,0,0,1-3.18.88,6.2,6.2,0,0,1-6.2-6.2V16.3h12.4ZM48.76,15.57V27.41a6.94,6.94,0,0,0,13.88,0V15.57ZM61.9,27.41a6.2,6.2,0,0,1-1.82,4.38,6.18,6.18,0,0,1-8.76,0,6.2,6.2,0,0,1-1.82-4.38V16.3H61.9ZM33.29,15.57V27.41a6.94,6.94,0,0,0,13.88,0V15.57ZM46.42,27.41a6.2,6.2,0,1,1-12.39,0V16.3H46.42ZM47,13.54,45.45,2.34H35L33.41,14H47.05Zm-12.74-.32L35.64,3.08h9.17L46.2,13.22ZM23,2.34,18.21,14H31.78l0-.32,1.55-11.3ZM19.31,13.22,23.49,3.08h9L31.14,13.22Zm-1.5,2.35V27.41a6.94,6.94,0,0,0,13.88,0V15.57ZM31,27.41a6.2,6.2,0,0,1-12.4,0V16.3H31ZM11,2.34l-.11.16L3.06,14H16.48L21.25,2.34ZM4.46,13.22l7-10.14h8.74L16,13.22ZM2.34,15.56V27.41a6.94,6.94,0,1,0,13.87,0V15.56ZM15.47,27.41a6.2,6.2,0,0,1-6.2,6.2,6.19,6.19,0,0,1-6.19-6.2V16.3H15.47ZM48.76,15.57V27.41a6.94,6.94,0,0,0,13.88,0V15.57ZM61.9,27.41a6.2,6.2,0,0,1-1.82,4.38,6.18,6.18,0,0,1-8.76,0,6.2,6.2,0,0,1-1.82-4.38V16.3H61.9ZM33.29,15.57V27.41a6.94,6.94,0,0,0,13.88,0V15.57ZM46.42,27.41a6.2,6.2,0,1,1-12.39,0V16.3H46.42ZM47,13.54,45.45,2.34H35L33.41,14H47.05Zm-12.74-.32L35.64,3.08h9.17L46.2,13.22ZM23,2.34,18.21,14H31.78l0-.32,1.55-11.3ZM19.31,13.22,23.49,3.08h9L31.14,13.22Zm-1.5,2.35V27.41a6.94,6.94,0,0,0,13.88,0V15.57ZM31,27.41a6.2,6.2,0,0,1-12.4,0V16.3H31ZM11,2.34l-.11.16L3.06,14H16.48L21.25,2.34ZM4.46,13.22l7-10.14h8.74L16,13.22ZM2.34,15.56V27.41a6.94,6.94,0,1,0,13.87,0V15.56ZM15.47,27.41a6.2,6.2,0,0,1-6.2,6.2,6.19,6.19,0,0,1-6.19-6.2V16.3H15.47ZM64.24,15.56V27.41a6.93,6.93,0,0,0,10.5,5.95,6.74,6.74,0,0,0,1.34-1,6.89,6.89,0,0,0,2-4.9V15.56ZM77.38,27.41a6.15,6.15,0,0,1-1.82,4.38,6.71,6.71,0,0,1-1.2.94,6.27,6.27,0,0,1-3.18.88,6.2,6.2,0,0,1-6.2-6.2V16.3h12.4Z"/><polygon class="cls-2" points="75.99 13.22 64.48 13.22 60.3 3.08 69.04 3.08 75.99 13.22"/><path class="cls-2" d="M61.9,16.3V27.41a6.2,6.2,0,0,1-1.82,4.38,6.18,6.18,0,0,1-8.76,0,6.2,6.2,0,0,1-1.82-4.38V16.3Z"/><polygon class="cls-2" points="20.15 3.08 15.97 13.22 4.46 13.22 11.41 3.08 20.15 3.08"/><polygon class="cls-2" points="46.2 13.22 34.25 13.22 35.64 3.08 44.81 3.08 46.2 13.22"/><path class="cls-2" d="M31,16.3V27.41a6.2,6.2,0,0,1-12.4,0V16.3Z"/><polygon class="cls-2" points="61.14 13.22 49.31 13.22 47.92 3.08 56.97 3.08 61.14 13.22"/><polygon class="cls-2" points="32.53 3.08 31.14 13.22 19.31 13.22 23.49 3.08 32.53 3.08"/><path class="cls-2" d="M15.47,16.3V27.41a6.2,6.2,0,0,1-6.2,6.2,6.19,6.19,0,0,1-6.19-6.2V16.3Z"/><path class="cls-2" d="M46.42,16.3V27.41a6.2,6.2,0,1,1-12.39,0V16.3Z"/><path class="cls-2" d="M77.38,16.3V27.41a6.15,6.15,0,0,1-1.82,4.38,6.71,6.71,0,0,1-1.2.94,6.27,6.27,0,0,1-3.18.88,6.2,6.2,0,0,1-6.2-6.2V16.3Z"/><path class="cls-1" d="M51.3,103.84H27.71a3.58,3.58,0,1,0,0,7.15H51.3a3.58,3.58,0,0,0,0-7.15Zm0,4.82H27.71a1.24,1.24,0,0,1,0-2.48H51.3a1.24,1.24,0,0,1,0,2.48Z"/><path class="cls-3" d="M67.25,36.37l-.28,0V95.16a7,7,0,0,1-7,7H19a7,7,0,0,1-7-7V36.61h-.22l-1,0-1.57,0V107a6.28,6.28,0,0,0,6.26,6.28H63.47A6.29,6.29,0,0,0,69.73,107V36.59C69.14,36.54,68,36.47,67.25,36.37ZM51.3,111H27.71a3.58,3.58,0,1,1,0-7.15H51.3a3.58,3.58,0,0,1,0,7.15Z"/><path class="cls-4" d="M57.88,44.69V81.86a5.68,5.68,0,0,1-5.7,5.7H26.08a5.69,5.69,0,0,1-4-1.67,5.63,5.63,0,0,1-1.67-4V44.69a5.7,5.7,0,0,1,5.7-5.7h26.1a5.68,5.68,0,0,1,5.7,5.7Z"/><path class="cls-1" d="M28.73,71.54H50.22a1.16,1.16,0,0,0,0-2.32H28.73A1.16,1.16,0,0,0,28.73,71.54Z"/><path class="cls-1" d="M49.54,67.64V62h1.69V59.19H44.81V62H46.5v5.69Zm-7.78,0v-3h2.36V62.46H41.76v-1h2.61V59.19H38.72v8.45Zm-10.1,0v-3c0-.19,0-.44,0-.74a5.48,5.48,0,0,0-.07-.6l2.59,4.39h3V59.19H34.24V62c0,.31,0,.62,0,.93a4.45,4.45,0,0,0,.07.66l-2.62-4.42h-3v8.45Z"/></g></g></svg>