<svg id="Layer_1" data-name="Layer 1" xmlns="http://www.w3.org/2000/svg" xmlns:xlink="http://www.w3.org/1999/xlink" viewBox="0 0 682 415"><defs><style>.cls-1{fill:none;}.cls-2{clip-path:url(#clip-path);}.cls-3{fill:#fff;}.cls-4,.cls-8{fill:#200031;}.cls-4,.cls-5,.cls-6,.cls-7,.cls-9{stroke:#200031;}.cls-11,.cls-4,.cls-5,.cls-6,.cls-7,.cls-9{stroke-miterlimit:10;}.cls-4{stroke-width:1.18px;}.cls-5{fill:#1eaf93;stroke-width:3px;}.cls-11,.cls-6{stroke-width:0.8px;}.cls-7{fill:#294172;}.cls-9{fill:#bbb4c1;stroke-width:1.33px;}.cls-10{fill:#9d72be;}.cls-11{stroke:#000;}.cls-12{fill:#efd122;}.cls-13{fill:#dfbb2b;}.cls-14{clip-path:url(#clip-path-2);}.cls-15{fill:#ffee9d;}.cls-16{fill:#eecf22;}</style><clipPath id="clip-path"><rect class="cls-1" y="-0.64" width="682" height="415"/></clipPath><clipPath id="clip-path-2"><polygon class="cls-1" points="332.92 248.27 332.92 248.27 319.03 261 332.92 273.74 346.81 261 332.92 248.27"/></clipPath></defs><g class="cls-2"><path class="cls-3" d="M-26.88-7.83C-32-2.48-35.06,4.33-36.9,11.43c-2.45,9.43-3.34,19.31-4.3,29-.62,6.28-1.17,12.57-1.72,18.86S-44.08,71.76-44.07,78A140,140,0,0,0-3.61,175.72a126.88,126.88,0,0,0,71.75,36,142.21,142.21,0,0,0,21.61,1.5,158.75,158.75,0,0,0,19-1.58,137.57,137.57,0,0,0,22.79-5c1-.3,1.93-.62,2.89-.95a12,12,0,0,0,6.76-5.19,11.55,11.55,0,0,0,1.13-8.7,11.36,11.36,0,0,0-5.19-6.75c-2.59-1.38-5.83-2.12-8.7-1.14a135.53,135.53,0,0,1-25.69,6l3-.4a131.61,131.61,0,0,1-34.57.09l3,.4a117.79,117.79,0,0,1-29.87-8.14l2.7,1.14A117.27,117.27,0,0,1,21.46,168l2.29,1.77A122.74,122.74,0,0,1,2,147.92l1.77,2.28a129.5,129.5,0,0,1-16.6-28.52l1.14,2.7a131.1,131.1,0,0,1-9-32.93l.41,3a123.61,123.61,0,0,1-.88-24.62c.64-9.7,1.62-19.4,2.58-29.07.42-4.3.88-8.58,1.45-12.86l-.4,3c.91-6.72,2-13.63,4.6-19.92l-1.14,2.7a27.63,27.63,0,0,1,3.4-6L-12.5,10c.5-.64,1-1.26,1.59-1.85A11.74,11.74,0,0,0-7.6.16a11.5,11.5,0,0,0-3.31-8,11.36,11.36,0,0,0-8-3.3,11.55,11.55,0,0,0-8,3.3Z"/><circle class="cls-3" cx="130.64" cy="196.9" r="25.64"/><circle class="cls-3" cx="114.57" cy="64.22" r="25.64"/><path class="cls-3" d="M737.56-39.71a137.56,137.56,0,0,0-13.92-15,144.46,144.46,0,0,0-27.21-20.06A129.84,129.84,0,0,0,658-89.18a136.12,136.12,0,0,0-37.73-2.21,141.14,141.14,0,0,0-37.1,8,135.38,135.38,0,0,0-33.84,18A139.13,139.13,0,0,0,533.7-52.07,134.85,134.85,0,0,0,520.18-36,125,125,0,0,0,501.07,4.41a143,143,0,0,0-4.84,37.5,153.77,153.77,0,0,0,2.37,25.88c.18,1,.36,2,.56,3a11.3,11.3,0,0,0,20.65,2.7A12.51,12.51,0,0,0,521,64.79q-.8-3.95-1.32-7.94l.4,3a137.27,137.27,0,0,1,0-36.39l-.41,3A123.6,123.6,0,0,1,528-4.47l-1.14,2.69a116.26,116.26,0,0,1,14.95-25.61L540-25.1a118.74,118.74,0,0,1,21.32-21.24l-2.29,1.76a126.34,126.34,0,0,1,27.74-16.1l-2.7,1.14a131.38,131.38,0,0,1,33.09-9l-3,.4a127.92,127.92,0,0,1,33.63-.05l-3-.4a120,120,0,0,1,30.56,8.33l-2.7-1.14a127,127,0,0,1,28,16.46l-2.28-1.77a137,137,0,0,1,20.11,19.16c1.07,1.25,2.11,2.52,3.14,3.8,1.68,2.11,5.41,3.31,8,3.31a11.5,11.5,0,0,0,8-3.31,11.37,11.37,0,0,0,3.31-8l-.41-3a11.22,11.22,0,0,0-2.9-5Z"/><circle class="cls-3" cx="508.04" cy="66.75" r="25.64"/><circle class="cls-3" cx="547.81" cy="343.11" r="25.64"/><circle class="cls-3" cx="153.61" cy="337" r="25.64"/><path class="cls-3" d="M40.45,484.17a82.38,82.38,0,0,1-16-.54l3,.4a74.54,74.54,0,0,1-18.53-5l2.7,1.14a64.72,64.72,0,0,1-14.36-8.33l2.28,1.77a54,54,0,0,1-9.35-9.28L-8,466.62A44.07,44.07,0,0,1-13.74,457l1.14,2.69a37.57,37.57,0,0,1-2.58-9.43l.4,3a37.83,37.83,0,0,1,0-9.51l-.4,3A44.93,44.93,0,0,1-12,435.49l-1.14,2.7a60.49,60.49,0,0,1,7.72-13l-1.77,2.28A73.36,73.36,0,0,1,6,414.26L3.69,416a55.82,55.82,0,0,1,12.24-7.22l-2.7,1.14c6.84-2.84,14.15-4.25,21.46-5.23l-3,.4c19-2.52,38.17-2.52,57.07-5.62a115.11,115.11,0,0,0,23.37-6.21,105.52,105.52,0,0,0,14.2-6.66,91.38,91.38,0,0,0,13.19-9.42,85.86,85.86,0,0,0,22.14-29.67c1.29-2.83,2-5.58,1.13-8.7a11.3,11.3,0,0,0-13.89-7.89c-2.64.85-5.55,2.56-6.75,5.19a83.63,83.63,0,0,1-9.64,16.14l1.76-2.28a74.12,74.12,0,0,1-13.13,13.18l2.29-1.76a80.82,80.82,0,0,1-17.89,10.36l2.7-1.14a118.1,118.1,0,0,1-30,7.75l3-.4c-13.85,1.85-27.85,2.24-41.75,3.64-14.58,1.46-29.58,3.53-42.27,11.45a78.39,78.39,0,0,0-19.58,17.36c-6.47,8.09-12,17.24-14.1,27.51a58.06,58.06,0,0,0-1.18,9.19,49.93,49.93,0,0,0,.67,9.13,47,47,0,0,0,3.83,12.39,54.52,54.52,0,0,0,14,18.67c14.49,12.78,33.47,19.21,52.67,19.6,2.32.05,4.64,0,7-.16a11.9,11.9,0,0,0,8-3.31,11.29,11.29,0,0,0,0-16c-2.13-2-5-3.49-8-3.31Z"/><circle class="cls-3" cx="591.37" cy="175.69" r="25.64"/><path class="cls-3" d="M782.08,295.92a49.8,49.8,0,0,0,.84-11.43,55.74,55.74,0,0,0-1.73-10.81,62.44,62.44,0,0,0-7.94-17.45,82,82,0,0,0-25.61-25.14,70.54,70.54,0,0,0-23.76-8.7c-11.28-2.12-22.81-2.92-34.24-3.74-8.75-.63-17.53-1.11-26.24-2.28l3,.41a117.71,117.71,0,0,1-29.79-7.7l2.69,1.14A80.84,80.84,0,0,1,621.66,200l2.29,1.77a74.57,74.57,0,0,1-13.18-13.15l1.77,2.29a83.63,83.63,0,0,1-9.69-16.11c-1.12-2.43-4.28-4.51-6.75-5.19a11.3,11.3,0,0,0-13.9,7.89l-.4,3a11.18,11.18,0,0,0,1.54,5.7,86.93,86.93,0,0,0,44.44,43.45,119.63,119.63,0,0,0,26.31,7.91,237.8,237.8,0,0,0,24.1,2.85c12,.88,24,1.48,35.92,3.07l-3-.4c7.18,1,14.35,2.37,21.06,5.18l-2.69-1.14a55.89,55.89,0,0,1,12.29,7.29l-2.29-1.77a73.77,73.77,0,0,1,12.95,12.94l-1.76-2.29a61,61,0,0,1,7.9,13.36l-1.14-2.7a44.85,44.85,0,0,1,3,10.89l-.4-3a37.71,37.71,0,0,1,0,9.9l.41-3c-.06.39-.12.77-.19,1.16-.51,3.08-.49,5.91,1.14,8.7a11.3,11.3,0,0,0,15.46,4.05c2.32-1.49,4.71-3.9,5.19-6.75Z"/><path class="cls-3" d="M423.71,505.38q2.69-4.19,5.71-8.13l-1.77,2.29a83.84,83.84,0,0,1,14.72-15l-2.29,1.77a63.1,63.1,0,0,1,13.72-8.08l-2.7,1.14a52.2,52.2,0,0,1,13-3.64l-3,.4a49.23,49.23,0,0,1,12.89.15l-3-.4c9.61,1.31,19,3.9,28.57,5.65a453,453,0,0,0,47.89,5.88c11.86.89,24.17,1.09,35.71-2.29A71.91,71.91,0,0,0,616.89,463a91.54,91.54,0,0,0,10.67-15.2,112.38,112.38,0,0,0,5.55-12,101.62,101.62,0,0,0,7-28.49,71,71,0,0,0-1.56-23,64,64,0,0,0-4.71-12.84,48.58,48.58,0,0,0-4.75-7.84,67.38,67.38,0,0,0-6.88-8.1,73.19,73.19,0,0,0-8.08-6.63,75.91,75.91,0,0,0-15.87-8.43c-9.5-3.94-19.6-5.86-29.78-7a113.58,113.58,0,0,0-17.3-.65l-1.34.07a12,12,0,0,0-8,3.31,11.3,11.3,0,0,0,0,16c2.12,1.94,5,3.52,8,3.31a97.7,97.7,0,0,1,14.21.17c2.41.18,4.8.43,7.19.74l-3-.4a96.27,96.27,0,0,1,24.41,6.4l-2.7-1.14a64.59,64.59,0,0,1,14,8.09l-2.29-1.77a51.52,51.52,0,0,1,9.18,9.13l-1.76-2.29a49.24,49.24,0,0,1,6.24,10.77l-1.13-2.7a53.11,53.11,0,0,1,3.46,12.88l-.4-3a67.11,67.11,0,0,1-.1,17.74l.4-3a95.54,95.54,0,0,1-6.83,24.07l1.14-2.7a81.9,81.9,0,0,1-10.39,17.94l1.77-2.29A69.18,69.18,0,0,1,591,456.44l2.28-1.77a60.9,60.9,0,0,1-13.25,7.81l2.7-1.14a56.35,56.35,0,0,1-14,3.78l3-.41c-13.15,1.76-26.67.05-39.79-1.32-4.94-.52-9.88-1-14.8-1.7l3,.41c-9.05-1.23-18-2.9-26.94-4.81a206.42,206.42,0,0,0-20.94-3.78,54.65,54.65,0,0,0-18.68,1.3C442.8,457.39,433.16,463,424.67,470c-8.12,6.7-14.8,15.19-20.46,24-3.2,5-1.19,12.68,4.05,15.45a11.53,11.53,0,0,0,15.45-4.05Z"/><path class="cls-3" d="M138-73.48a73.2,73.2,0,0,1,16.14.26l-3-.4A66.82,66.82,0,0,1,168-69.09l-2.7-1.14a62.83,62.83,0,0,1,13.71,8L176.69-64a60,60,0,0,1,10.6,10.58l-1.77-2.28A56,56,0,0,1,192.6-43.6l-1.14-2.7a55.17,55.17,0,0,1,3.71,13.89l-.4-3A112.44,112.44,0,0,1,195-5.87l.4-3a83.87,83.87,0,0,1-5.69,21.16l1.13-2.7a71.55,71.55,0,0,1-9.19,15.75l1.77-2.28A71.5,71.5,0,0,1,170.81,35.6l2.28-1.77a79.85,79.85,0,0,1-17.73,10.23l2.7-1.14A106.11,106.11,0,0,1,131.26,50l3-.41a146.11,146.11,0,0,1-18.92,1.21,11.7,11.7,0,0,0-8,3.31,11.5,11.5,0,0,0-3.31,8,11.38,11.38,0,0,0,3.31,8,11.7,11.7,0,0,0,8,3.31c19.2,0,38.43-3.32,55.78-11.78a82.92,82.92,0,0,0,35-32.27c8.47-14.44,12.18-31.31,12.3-47.95a117.4,117.4,0,0,0-.6-12.57,87.24,87.24,0,0,0-2.49-15.08,67.52,67.52,0,0,0-14.51-26.07c-13.75-15.6-34.62-23.86-55.19-24.05-2.56,0-5.12.1-7.67.33-3.05.29-5.75,1.07-8,3.31a11.46,11.46,0,0,0-3.31,8,11.38,11.38,0,0,0,3.31,8c2.09,1.92,5,3.59,8,3.31Z"/></g><path class="cls-4" d="M305.23,92.47h54.66a12.62,12.62,0,0,1,12.62,12.62v13.26a0,0,0,0,1,0,0h-79.9a0,0,0,0,1,0,0V105.09A12.62,12.62,0,0,1,305.23,92.47Z"/><path class="cls-5" d="M279.78,117.85H384.62a12.62,12.62,0,0,1,12.62,12.62v179a0,0,0,0,1,0,0H267.16a0,0,0,0,1,0,0v-179A12.62,12.62,0,0,1,279.78,117.85Z"/><path d="M417,322.53H247.39a13.72,13.72,0,0,1,13.72-13.73H403.28A13.72,13.72,0,0,1,417,322.53Z"/><rect class="cls-3" x="280.36" y="146.36" width="106.22" height="47.6" rx="11.83"/><rect class="cls-6" x="324.48" y="167.41" width="1.06" height="21.33" transform="translate(-30.72 281.97) rotate(-45)"/><path class="cls-7" d="M344.52,186.54a11.07,11.07,0,0,0-22.1,0Z"/><path class="cls-8" d="M370,186.57a36.65,36.65,0,0,0-73.14,0l-1.06-.07a37.71,37.71,0,0,1,75.26,0Z"/><polygon class="cls-8" points="380.04 187.07 286.9 187.07 286.41 186.01 380.04 186.01 380.04 187.07"/><path d="M285.14,235.09h0a2.6,2.6,0,0,0,2.6-2.6V213.7a2.61,2.61,0,0,0-2.6-2.6h0a2.61,2.61,0,0,0-2.61,2.6v18.79A2.6,2.6,0,0,0,285.14,235.09Z"/><path class="cls-9" d="M403.1,147.18a15.45,15.45,0,0,0-5.27-3.45v5.39a10.73,10.73,0,0,1,2.15,1.64l10.11,10.11,2.39-4.31Z"/><path d="M417.59,158.18l-6.93,6.93-3.83-3.82a.94.94,0,0,1,0-1.3l5.64-5.64a.94.94,0,0,1,1.3,0Z"/><path d="M430.26,169.1l-11.18-11.17a.88.88,0,0,0-1.24,0L399.37,176.4a5.36,5.36,0,0,0-1.57,3.81v18.47a5.77,5.77,0,0,0,5.78,5.68H421.8a4,4,0,0,0,4-4V181.9l4.43-4.43A5.92,5.92,0,0,0,430.26,169.1Zm-16.53,14.48-3.19,15.25a3.07,3.07,0,0,1-3,2.44h-3.48A3.06,3.06,0,0,1,401,198.2V182.08a3,3,0,0,1,.9-2.17l2.9-2.89a3.07,3.07,0,0,1,4.33,0l3.76,3.77A3.07,3.07,0,0,1,413.73,183.58Z"/><path d="M419.93,283.6a15.21,15.21,0,0,1-15.19-15.19V234.29a6.92,6.92,0,0,0-6.91-6.91v-5.31a12.23,12.23,0,0,1,12.22,12.22v34.12a9.89,9.89,0,0,0,9.88,9.88A9.37,9.37,0,0,0,429.1,267l-12-31.38a123.5,123.5,0,0,1-2.63-25.28v-6h5.31v6a117.6,117.6,0,0,0,2.51,24.18l12,31.38a14.67,14.67,0,0,1-14.36,17.71Z"/><path d="M420.13,206.91H414A1,1,0,0,1,413,206v-1.6h8.07V206A1,1,0,0,1,420.13,206.91Z"/><path class="cls-10" d="M394.25,223.68H403a0,0,0,0,1,0,0v1.79a1,1,0,0,1-1,1h-6.81a1,1,0,0,1-1-1v-1.79A0,0,0,0,1,394.25,223.68Z" transform="translate(173.56 623.67) rotate(-90)"/><rect x="397.35" y="179.92" width="1.06" height="19.66"/><rect class="cls-11" x="397.27" y="220.77" width="1.06" height="8.57"/><polygon points="404.9 189.6 404.11 188.89 412.09 180.03 412.88 180.74 404.9 189.6"/><circle class="cls-12" cx="332.92" cy="261" r="23"/><path class="cls-13" d="M332.92,244.43A16.58,16.58,0,1,1,316.35,261,16.57,16.57,0,0,1,332.92,244.43Z"/><g class="cls-14"><path class="cls-15" d="M318.46,247.25l.74.56,2,1.51,3,2.23,3.61,2.72,4,3,4,3,3.72,2.81,3.14,2.37,2.27,1.71c.36.27.71.55,1.08.81l0,0a.8.8,0,0,0,1.09-.29.83.83,0,0,0-.28-1.09l-.75-.56-2-1.51-3-2.22-3.61-2.72-4-3-4-3-3.72-2.8-3.14-2.38-2.27-1.71c-.36-.27-.71-.55-1.08-.81l0,0a.8.8,0,0,0-1.09.28A.82.82,0,0,0,318.46,247.25Z"/><path class="cls-15" d="M318.46,255l.74.56,2,1.51,3,2.22,3.61,2.72,4,3,4,3,3.72,2.81,3.14,2.37,2.27,1.71c.36.27.71.55,1.08.81l0,0a.8.8,0,0,0,1.09-.28.83.83,0,0,0-.28-1.09l-.75-.56-2-1.51-3-2.23-3.6-2.71-4-3-4-3-3.73-2.8-3.14-2.37-2.27-1.71c-.36-.27-.71-.55-1.08-.81l0,0a.8.8,0,0,0-1.09.29.82.82,0,0,0,.29,1.09Z"/><path class="cls-15" d="M346,246.3l-.74.56-2,1.52-3,2.22-3.61,2.72-4,3-4,3-3.72,2.8-3.15,2.38-2.26,1.71-1.08.81,0,0a.84.84,0,0,0-.37.48.8.8,0,0,0,1.17.9l.74-.56,2-1.51,3-2.23,3.6-2.72,4-3,4-3,3.72-2.81,3.15-2.37,2.26-1.71,1.08-.81,0,0a.87.87,0,0,0,.37-.47.89.89,0,0,0-.08-.62.81.81,0,0,0-1.09-.28Z"/><path class="cls-15" d="M346,254.05l-.74.55-2,1.52-3,2.22-3.61,2.72-4,3-4,3L325,269.88l-3.14,2.37L319.58,274l-1.08.81,0,0a.84.84,0,0,0-.37.48.8.8,0,0,0,1.17.9l.74-.56,2-1.51,3-2.23,3.6-2.72,4-3,4-3,3.72-2.8,3.15-2.37,2.27-1.72,1.07-.8.05,0a1,1,0,0,0,.37-.47.89.89,0,0,0-.08-.62.8.8,0,0,0-1.09-.28Z"/><path class="cls-15" d="M332.13,244.54v36a.79.79,0,0,0,.79.79.79.79,0,0,0,.8-.79v-36a.79.79,0,0,0-.8-.79.79.79,0,0,0-.79.79Z"/></g><path class="cls-16" d="M348.4,109.94h5.47v-1.48h-3.93v-1.69h3.35v-1.49h-3.35v-1.66h3.79v-1.49H348.4Zm-7.07,0h5.48v-1.48h-3.94v-1.69h3.35v-1.49h-3.35v-1.66h3.79v-1.49h-5.33Zm-6.37,0h1.54v-3.07h2.9v-1.48h-2.9v-1.77h3.35v-1.49H335Zm-4.88-7.1a5.72,5.72,0,0,0-1.05-.53,4.45,4.45,0,0,0-1.54-.22,3,3,0,0,0-1.27.32,2.17,2.17,0,0,0-.85.79,2.19,2.19,0,0,0-.31,1.18,2,2,0,0,0,.21,1,2.13,2.13,0,0,0,.54.65,3.75,3.75,0,0,0,.72.44c.25.12.5.22.74.32a3,3,0,0,1,.57.27,1.6,1.6,0,0,1,.41.35.69.69,0,0,1,.16.43.76.76,0,0,1-.19.53,1.14,1.14,0,0,1-.47.27,2.09,2.09,0,0,1-.55.08,2.31,2.31,0,0,1-.61-.09,2.69,2.69,0,0,1-.65-.24,3.5,3.5,0,0,1-.6-.35l-.68,1.2a4.52,4.52,0,0,0,.86.47,5,5,0,0,0,.91.28,4.66,4.66,0,0,0,.9.09,3.13,3.13,0,0,0,1.47-.32,2.25,2.25,0,0,0,.9-.82,2.06,2.06,0,0,0,.31-1.1,2.42,2.42,0,0,0-.16-1,1.89,1.89,0,0,0-.43-.65,2.59,2.59,0,0,0-.59-.44c-.23-.11-.45-.21-.68-.3a5.64,5.64,0,0,1-.71-.31,2.26,2.26,0,0,1-.57-.38.7.7,0,0,1-.21-.5.68.68,0,0,1,.28-.6,1.3,1.3,0,0,1,.79-.2,2.54,2.54,0,0,1,.86.16,5.6,5.6,0,0,1,.91.4ZM319,108.41h3.37l-.54-1.29h-2.35Zm-.41,1.53,2.7-6.47-1.12.76,2.25,5.71h1.78l-3.52-8.12h-.08l-3.53,8.12Zm-2.39-4.08h-2.91v1.48h1.35v1a1.38,1.38,0,0,1-.46.15,3.86,3.86,0,0,1-.61,0,3.39,3.39,0,0,1-1-.16,2.29,2.29,0,0,1-.82-.47,2.07,2.07,0,0,1-.54-.75,2.57,2.57,0,0,1-.19-1,3.34,3.34,0,0,1,.17-1.1,1.93,1.93,0,0,1,.51-.79,2.15,2.15,0,0,1,.82-.48,3.8,3.8,0,0,1,1.12-.15,3.37,3.37,0,0,1,.59.06c.22,0,.43.11.64.18a2.63,2.63,0,0,1,.51.21l.5-1.43a4.6,4.6,0,0,0-1.06-.41,5.45,5.45,0,0,0-1.38-.16,4.53,4.53,0,0,0-1.52.25,3.63,3.63,0,0,0-1.29.78,3.77,3.77,0,0,0-.88,1.32,5,5,0,0,0-.32,1.86,3.94,3.94,0,0,0,.29,1.51,3.38,3.38,0,0,0,.82,1.19,3.66,3.66,0,0,0,1.31.78,4.88,4.88,0,0,0,1.72.29,4.18,4.18,0,0,0,.76-.08c.27-.06.53-.13.79-.21a5.8,5.8,0,0,0,.69-.28,1.65,1.65,0,0,0,.43-.3Z"/></svg>