<svg width="19" height="18" viewBox="0 0 19 18" fill="none" xmlns="http://www.w3.org/2000/svg">
<g id="mdi:gift-open-outline">
<path id="Vector" d="M17 8.15265L14.945 6.96014C15.125 6.80265 15.2975 6.60015 15.425 6.37514C16.0475 5.30265 15.68 3.92265 14.6 3.30015C13.955 2.92515 13.1975 2.92515 12.56 3.19515L12.5675 3.18765L11.9075 3.48015L11.825 2.76015L11.8175 2.76765C11.75 2.08515 11.3525 1.42515 10.7075 1.05015C10.1887 0.7537 9.57378 0.674064 8.99654 0.828556C8.41931 0.983047 7.9264 1.35917 7.625 1.87515C7.4975 2.10015 7.415 2.34765 7.37 2.58765L5.3075 1.40265C4.5875 0.990145 3.6725 1.23015 3.26 1.95015L2.135 3.90015C2.08538 3.98512 2.05318 4.07913 2.04028 4.17668C2.02738 4.27423 2.03405 4.37338 2.05988 4.46833C2.08571 4.56328 2.1302 4.65214 2.19074 4.72971C2.25128 4.80728 2.32667 4.87202 2.4125 4.92015L3.71 5.67015L6.875 7.50014H2V15.0001C2 15.398 2.15804 15.7795 2.43934 16.0608C2.72064 16.3421 3.10218 16.5001 3.5 16.5001H15.5C16.3325 16.5001 17 15.8326 17 15.0001V11.1526L17.5475 10.2001C17.96 9.48015 17.72 8.56515 17 8.15265ZM12.83 4.87514C13.0325 4.50015 13.4975 4.39515 13.85 4.59765C14.21 4.80765 14.3375 5.25014 14.1275 5.62514C13.9175 6.00014 13.46 6.10514 13.1 5.90265C12.7475 5.69265 12.62 5.25014 12.83 4.87514ZM11.0525 6.45015L16.25 9.45015L15.5 10.7476L10.3025 7.74765L11.0525 6.45015ZM8.75 15.0001H3.5V9.00014H8.75V15.0001ZM9.005 6.99765L3.8075 3.99765L4.5575 2.70015L9.755 5.70015L9.005 6.99765ZM9.2075 3.65265C8.8475 3.44265 8.7275 3.00015 8.93 2.62515C9.125 2.25015 9.5975 2.14515 9.9575 2.34765C10.3175 2.55765 10.4375 3.00015 10.2275 3.37515C10.025 3.75015 9.5675 3.85515 9.2075 3.65265ZM10.25 15.0001V9.45015L15.5 12.4801V15.0001H10.25Z" fill="#ffffff"/>
</g>
</svg>
