<svg width="30" height="21" viewBox="0 0 30 21" fill="none" xmlns="http://www.w3.org/2000/svg">
<g clip-path="url(#clip0_1402_9518)">
<path d="M6.96595 20.305V10.0553L3.49836 7.14723L0.388885 5.53345V18.4962C0.388885 19.4971 1.27345 20.305 2.36205 20.305H6.96595Z" fill="#4285F4"/>
<path d="M22.7508 20.3052H27.3547C28.4466 20.3052 29.3279 19.4942 29.3279 18.4964V5.53369L25.8059 7.38208L22.7508 10.0554V20.3052Z" fill="#34A853"/>
<path d="M6.96595 10.0555L6.49411 6.05059L6.96595 2.21753L14.8584 7.64385L22.7508 2.21753L23.2786 5.84364L22.7508 10.0555L14.8584 15.4818L6.96595 10.0555Z" fill="#EA4335"/>
<path d="M22.7508 2.21742V10.0553L29.3279 5.53348V3.12177C29.3279 0.884983 26.5425 -0.390146 24.5925 0.951304L22.7508 2.21742Z" fill="#FBBC04"/>
<path d="M0.388885 5.53353L3.4138 7.61332L6.96595 10.0554V2.21747L5.12425 0.951352C3.17087 -0.390202 0.388885 0.885031 0.388885 3.12171V5.53342V5.53353Z" fill="#C5221F"/>
</g>
<defs>
<clipPath id="clip0_1402_9518">
<rect width="28.9389" height="20" fill="white" transform="translate(0.388885 0.403564)"/>
</clipPath>
</defs>
</svg>
