<svg width="28" height="28" viewBox="0 0 28 28" fill="none" xmlns="http://www.w3.org/2000/svg">
<path d="M17.7456 3.71973L12.6178 7.01109L13.1376 7.2957L17.6996 4.36736L25.4376 8.75043L20.9992 11.5993L21.2154 11.7176V12.0788L24.6918 9.84725L25.4215 10.2606L21.2154 12.9603V13.5785L24.6238 11.3907L25.4215 11.8427L21.2154 14.5424V15.1606L24.6238 12.9728L25.4215 13.4248L21.2154 16.1245V16.7427L26.4906 13.3566L25.1813 12.6151L26.4905 11.7746L25.1812 11.033L26.4904 10.1926L25.2492 9.48945L26.5065 8.68235L17.7455 3.71973H17.7456ZM19.3839 6.07906C18.2744 6.63573 16.7967 6.72991 15.7563 6.3102L13.7223 7.61574L20.4144 11.2792L22.3436 10.041C21.5837 9.44109 21.647 8.54598 22.4987 7.84356L19.3838 6.07906H19.3839ZM12.4973 8.02728L8.76959 10.458L15.9209 14.5748L15.991 14.53C16.1229 14.4451 16.309 14.3248 16.5311 14.1812C16.9752 13.8942 17.5628 13.5136 18.1487 13.1339C18.9926 12.5871 19.4274 12.3049 19.8318 12.0426L12.4973 8.02728ZM18.5864 8.08898C18.5864 8.08898 18.5865 8.08898 18.5865 8.08898C18.7552 8.09001 18.9098 8.12616 19.0253 8.19155C19.0925 8.2296 19.1446 8.27654 19.1787 8.32969C19.2127 8.38284 19.2281 8.44115 19.2238 8.5013C19.2196 8.56144 19.1958 8.62224 19.1538 8.68023C19.1119 8.73821 19.0526 8.79224 18.9794 8.83923C18.9062 8.88622 18.8205 8.92526 18.7271 8.95411C18.6338 8.98296 18.5346 9.00106 18.4353 9.00738C18.3361 9.0137 18.2386 9.00811 18.1485 8.99093C18.0584 8.97375 17.9775 8.94532 17.9103 8.90726C17.7746 8.83041 17.7032 8.719 17.7118 8.59756C17.7205 8.47612 17.8083 8.35458 17.9562 8.25968C18.0401 8.20578 18.1404 8.16243 18.2495 8.13287C18.3587 8.10331 18.4738 8.08831 18.5864 8.08898ZM7.06796 10.5736L1.50949 14.1413L2.7507 14.8444L1.49341 15.6515L2.8027 16.3931L1.49341 17.2336L2.8027 17.9752L1.49341 18.8157L10.2544 23.7783L15.5439 20.3829V19.7649L10.3004 23.1306L2.56244 18.7475L3.31417 18.265L10.2544 22.1962L15.5439 18.8009V18.1829L10.3004 21.5486L2.56244 17.1655L3.31417 16.6829L10.2544 20.6141L15.5439 17.2189V16.6008L10.3004 19.9666L2.56244 15.5834L3.26222 15.1341L10.2706 19.104L15.5439 15.7191V15.4528L15.2549 15.2864L10.3163 18.4563L2.57863 14.0732L7.57574 10.8657L7.06791 10.5734L7.06796 10.5736ZM8.1469 11.1948L5.67261 12.7829C6.43251 13.3827 6.36923 14.2778 5.51746 14.9803L8.63238 16.7448C9.74175 16.1881 11.2194 16.094 12.2598 16.5136L14.6838 14.9577L8.1468 11.1947L8.1469 11.1948ZM20.2662 12.8923C19.842 13.1674 19.4679 13.4102 18.665 13.9305C18.1257 14.2801 17.5862 14.6295 17.0466 14.9785C16.8242 15.1222 16.6376 15.2427 16.5046 15.3282C16.4998 15.3314 16.4979 15.3325 16.4932 15.3355V19.8666L20.2662 17.3307L20.2662 12.8923ZM9.66708 13.8141C9.83575 13.8151 9.99038 13.8513 10.1058 13.9168C10.2415 13.9936 10.3129 14.105 10.3043 14.2265C10.2957 14.3479 10.2078 14.4694 10.0599 14.5643C9.91211 14.6592 9.71644 14.7197 9.51599 14.7324C9.31553 14.7452 9.1267 14.7092 8.99102 14.6324C8.85535 14.5555 8.78396 14.4441 8.79257 14.3227C8.80117 14.2012 8.88906 14.0797 9.0369 13.9848C9.12086 13.9309 9.22115 13.8876 9.33027 13.858C9.43939 13.8285 9.55452 13.8135 9.66708 13.8141V13.8141Z" fill="#B897CC"/>
</svg>
