<svg width="28" height="28" viewBox="0 0 28 28" fill="none" xmlns="http://www.w3.org/2000/svg">
<path d="M14 0.249023C8.37324 0.249023 3.875 4.74727 3.875 10.374C3.875 12.3199 4.45508 13.8229 5.4623 15.3469L12.9348 26.6848C13.1615 27.0275 13.5518 27.249 14 27.249C14.4482 27.249 14.8438 27.0223 15.0652 26.6848L22.5377 15.3469C23.5449 13.8229 24.125 12.3199 24.125 10.374C24.125 4.74727 19.6268 0.249023 14 0.249023ZM14 15.9955C10.8939 15.9955 8.37324 13.4748 8.37324 10.3635C8.37324 7.25215 10.8939 4.73145 14 4.73145C17.1061 4.73145 19.6268 7.25215 19.6268 10.3635C19.6268 13.4748 17.1061 15.9955 14 15.9955Z" fill="#B897CC"/>
</svg>
