<svg xmlns="http://www.w3.org/2000/svg" xmlns:xlink="http://www.w3.org/1999/xlink" viewBox="0 0 111.25 116.19"><defs><style>.cls-1{fill:none;}.cls-2{fill:#fff;stroke-width:2.83px;}.cls-2,.cls-3,.cls-6{stroke:#1f0031;stroke-miterlimit:10;}.cls-3,.cls-6{fill:#9f72c0;}.cls-3{stroke-width:2.3px;}.cls-4{clip-path:url(#clip-path);}.cls-5{fill:#1f0031;}.cls-6{stroke-width:3px;}.cls-7{fill:#3d0062;}.cls-8{fill:#6f3096;}</style><clipPath id="clip-path"><polygon class="cls-1" points="55.63 79.41 55.63 79.41 41.95 91.94 55.63 104.48 69.3 91.94 55.63 79.41"/></clipPath></defs><g id="Layer_2" data-name="Layer 2"><g id="Layer_1-2" data-name="Layer 1"><circle class="cls-2" cx="55.62" cy="91.95" r="22.83"/><circle class="cls-3" cx="55.62" cy="91.95" r="16.03"/><g class="cls-4"><path class="cls-5" d="M41.39,78.41l.72.55,2,1.49L47,82.65l3.56,2.67,3.9,2.94,3.94,3L62.06,94l3.1,2.34L67.39,98c.35.26.7.54,1.06.8l0,0a.78.78,0,1,0,.79-1.35l-.72-.55-2-1.49-2.91-2.2-3.55-2.67-3.91-2.94-3.94-3-3.66-2.76-3.1-2.34-2.23-1.68c-.35-.27-.7-.54-1.06-.8l0,0a.78.78,0,0,0-1.07.28A.8.8,0,0,0,41.39,78.41Z"/><path class="cls-5" d="M41.39,86l.72.55,2,1.49L47,90.26l3.56,2.68,3.9,2.94,3.94,3,3.66,2.76,3.1,2.33,2.23,1.68c.35.27.7.55,1.06.8,0,0,0,0,0,0a.79.79,0,1,0,.79-1.36l-.72-.55-2-1.49-2.91-2.19-3.55-2.68-3.91-2.94-3.94-3-3.66-2.76-3.1-2.33-2.23-1.68c-.35-.27-.7-.55-1.06-.8,0,0,0,0,0,0a.79.79,0,0,0-1.07.29A.8.8,0,0,0,41.39,86Z"/><path class="cls-5" d="M68.49,77.48l-.72.55-2,1.49-2.91,2.2-3.55,2.67-3.91,2.94-3.94,3-3.66,2.76-3.1,2.34-2.23,1.68-1.06.8,0,0a.88.88,0,0,0-.36.47.78.78,0,0,0,1.15.88l.72-.54,2-1.49L47.79,95l3.56-2.68,3.9-2.94,3.94-3,3.66-2.76L66,81.35l2.23-1.68,1.06-.8,0,0a.84.84,0,0,0,.36-.47.78.78,0,0,0-1.15-.89Z"/><path class="cls-5" d="M68.49,85.1l-.72.55-2,1.49-2.91,2.19L59.33,92,55.42,95l-3.94,3-3.66,2.76L44.72,103l-2.23,1.69-1.06.79,0,0A.83.83,0,0,0,41,106a.81.81,0,0,0,.08.61.79.79,0,0,0,1.07.28l.72-.55,2-1.49,2.91-2.19L51.35,100,55.25,97l3.94-3,3.66-2.76L66,89l2.23-1.69c.36-.26.71-.53,1.06-.8l0,0a.81.81,0,0,0,.36-.47.79.79,0,0,0-.07-.6A.8.8,0,0,0,68.49,85.1Z"/><path class="cls-5" d="M54.84,75.74v35.45a.79.79,0,0,0,.78.78.8.8,0,0,0,.79-.78V75.74a.79.79,0,0,0-.79-.78A.8.8,0,0,0,54.84,75.74Z"/></g><rect class="cls-6" x="29.05" y="1.5" width="53.14" height="35.16" rx="8.3"/><path class="cls-7" d="M34.92,29.59h14a.67.67,0,0,0,0-1.33h-14a.67.67,0,0,0,0,1.33Z"/><path class="cls-7" d="M52.92,24.64h5.41a.66.66,0,0,0,0-1.32H52.92a.66.66,0,0,0,0,1.32Z"/><path class="cls-7" d="M43.92,24.64h5.41a.66.66,0,0,0,0-1.32H43.92a.66.66,0,0,0,0,1.32Z"/><path class="cls-7" d="M34.92,24.64h5.41a.66.66,0,0,0,0-1.32H34.92a.66.66,0,0,0,0,1.32Z"/><rect class="cls-5" x="29.05" y="7.29" width="53.14" height="6.27"/><path class="cls-8" d="M17.53,89a40.83,40.83,0,0,1-6.8-50.43,42,42,0,0,1,9.82-11.19l-4.27-1.77-1.06,9.84,4.27-1.77-9.13-7.76L9.25,30.06,19.45,28a2.5,2.5,0,0,0-1.33-4.82L7.92,25.24a2.51,2.51,0,0,0-1.1,4.18L16,37.19a2.53,2.53,0,0,0,4.26-1.77l1.06-9.84a2.47,2.47,0,0,0-1.53-2.29,2.61,2.61,0,0,0-2.74.52A45.93,45.93,0,0,0,1.29,48.57,46,46,0,0,0,14,92.51c2.31,2.24,5.85-1.29,3.54-3.54Z"/><path class="cls-8" d="M93.72,27.35a40.83,40.83,0,0,1,6.8,50.43A42,42,0,0,1,90.7,89L95,90.74,96,80.9l-4.27,1.76,9.13,7.77L102,86.25,91.8,88.33a2.5,2.5,0,0,0,1.33,4.82l10.2-2.08a2.51,2.51,0,0,0,1.1-4.17l-9.14-7.77A2.53,2.53,0,0,0,91,80.9L90,90.74A2.45,2.45,0,0,0,91.5,93a2.57,2.57,0,0,0,2.73-.51A45.88,45.88,0,0,0,110,67.75a46,46,0,0,0-12.7-43.94c-2.31-2.24-5.85,1.29-3.54,3.54Z"/></g></g></svg>