<svg xmlns="http://www.w3.org/2000/svg" xmlns:xlink="http://www.w3.org/1999/xlink" viewBox="0 0 106.68 115.86"><defs><style>.cls-1{fill:none;}.cls-2,.cls-6{fill:#fff;}.cls-2,.cls-3,.cls-6{stroke:#1f0031;stroke-miterlimit:10;}.cls-2{stroke-width:2.83px;}.cls-3,.cls-8{fill:#9f72c0;}.cls-3{stroke-width:2.3px;}.cls-4{clip-path:url(#clip-path);}.cls-5{fill:#1f0031;}.cls-6{stroke-width:2.35px;}.cls-7{fill:#3d0062;}</style><clipPath id="clip-path"><polygon class="cls-1" points="53.34 79.08 53.34 79.08 39.67 91.62 53.34 104.15 67.01 91.62 53.34 79.08"/></clipPath></defs><g id="Layer_2" data-name="Layer 2"><g id="Layer_1-2" data-name="Layer 1"><circle class="cls-2" cx="53.34" cy="91.62" r="22.83"/><circle class="cls-3" cx="53.34" cy="91.62" r="16.03"/><g class="cls-4"><path class="cls-5" d="M39.1,78.09l.73.54,2,1.49,2.91,2.2L48.27,85l3.91,2.94,3.94,3,3.66,2.76L62.87,96l2.24,1.68c.35.27.7.54,1.06.8l0,0a.78.78,0,0,0,1.07-.28A.8.8,0,0,0,67,97.16l-.73-.55-2-1.49-2.92-2.19-3.55-2.68-3.9-2.94-3.94-3-3.66-2.76-3.1-2.33L41,77.56c-.36-.26-.7-.54-1.06-.79l0,0a.8.8,0,0,0-1.07.28A.81.81,0,0,0,39.1,78.09Z"/><path class="cls-5" d="M39.1,85.7l.73.55,2,1.49,2.91,2.19,3.55,2.68,3.91,2.94,3.94,3,3.66,2.76,3.09,2.33,2.24,1.69c.35.26.7.54,1.06.8l0,0a.78.78,0,0,0,1.07-.28.8.8,0,0,0-.28-1.07l-.73-.55-2-1.49-2.92-2.2-3.55-2.67-3.9-3L50,92,46.33,89.2l-3.1-2.34L41,85.18c-.36-.27-.7-.54-1.06-.8l0,0a.79.79,0,0,0-1.07.28A.8.8,0,0,0,39.1,85.7Z"/><path class="cls-5" d="M66.21,77.16l-.73.54-2,1.49-2.92,2.2L57,84.07,53.14,87,49.2,90l-3.66,2.76-3.1,2.33-2.23,1.68-1.06.8,0,0a.88.88,0,0,0-.36.47.86.86,0,0,0,.08.61.8.8,0,0,0,1.07.28l.73-.55,2-1.49,2.91-2.2L49.06,92,53,89.09l3.94-3,3.66-2.76L63.67,81l2.23-1.68,1.06-.8,0,0a.88.88,0,0,0,.36-.47.78.78,0,0,0-1.15-.88Z"/><path class="cls-5" d="M66.21,84.77l-.73.55-2,1.49L60.59,89,57,91.68l-3.9,2.94-3.94,3-3.66,2.76-3.1,2.34-2.23,1.68c-.36.26-.71.53-1.06.8l0,0a.85.85,0,0,0-.36.47.84.84,0,0,0,.08.6.79.79,0,0,0,1.07.28l.73-.55,2-1.49,2.91-2.19,3.55-2.68L53,96.7l3.94-3L60.57,91l3.1-2.33L65.9,87c.35-.27.7-.54,1.06-.8l0,0a.83.83,0,0,0,.36-.46.81.81,0,0,0-.08-.61A.8.8,0,0,0,66.21,84.77Z"/><path class="cls-5" d="M52.56,75.42v34c0,.46,0,.92,0,1.38v.06a.78.78,0,1,0,1.56,0v-34c0-.46,0-.92,0-1.38v-.06a.78.78,0,0,0-1.56,0Z"/></g><rect class="cls-6" x="26.77" y="1.17" width="53.14" height="35.16" rx="8.3"/><path class="cls-7" d="M32.63,29.26h14a.66.66,0,0,0,0-1.32h-14a.66.66,0,0,0,0,1.32Z"/><path class="cls-7" d="M50.63,24.32h5.42a.67.67,0,0,0,0-1.33H50.63a.67.67,0,0,0,0,1.33Z"/><path class="cls-7" d="M41.63,24.32h5.42a.67.67,0,0,0,0-1.33H41.63a.67.67,0,0,0,0,1.33Z"/><path class="cls-7" d="M32.63,24.32h5.42a.67.67,0,0,0,0-1.33H32.63a.67.67,0,0,0,0,1.33Z"/><rect class="cls-5" x="26.77" y="6.97" width="53.14" height="6.27"/><path class="cls-8" d="M17.53,88.65a40.85,40.85,0,0,1-6.8-50.44A42,42,0,0,1,20.55,27l-4.27-1.77L15.22,35.1l4.27-1.77-9.13-7.77L9.25,29.74l10.2-2.08a2.5,2.5,0,0,0-1.33-4.82L7.92,24.92a2.51,2.51,0,0,0-1.1,4.18L16,36.86a2.53,2.53,0,0,0,4.26-1.76l1.06-9.85A2.45,2.45,0,0,0,19.75,23a2.59,2.59,0,0,0-2.74.52A45.89,45.89,0,0,0,1.29,48.25,46,46,0,0,0,14,92.18c2.31,2.25,5.85-1.29,3.54-3.53Z"/><path class="cls-8" d="M89.15,27A40.79,40.79,0,0,1,96,77.45a42.06,42.06,0,0,1-9.82,11.2l4.27,1.76,1.06-9.84-4.27,1.77,9.14,7.77,1.1-4.18L87.24,88a2.5,2.5,0,1,0,1.32,4.82l10.2-2.07a2.51,2.51,0,0,0,1.1-4.18L90.73,78.8a2.54,2.54,0,0,0-4.27,1.77L85.4,90.41a2.47,2.47,0,0,0,1.54,2.29,2.6,2.6,0,0,0,2.73-.52,45.78,45.78,0,0,0,15.72-24.76,46,46,0,0,0-12.7-43.93c-2.31-2.25-5.85,1.28-3.54,3.53Z"/></g></g></svg>