<svg xmlns="http://www.w3.org/2000/svg" xmlns:xlink="http://www.w3.org/1999/xlink" viewBox="0 0 123.47 113.3"><defs><style>.cls-1,.cls-7{fill:none;}.cls-12,.cls-2{fill:#9f72c0;}.cls-3{fill:#1f0031;}.cls-4{fill:#f4f4f4;}.cls-5{fill:#3d0062;}.cls-6{fill:#6aba83;}.cls-13,.cls-7{stroke:#3d0062;}.cls-11,.cls-12,.cls-13,.cls-7,.cls-8,.cls-9{stroke-miterlimit:10;}.cls-7{stroke-width:2.14px;}.cls-13,.cls-8{fill:#fff;}.cls-11,.cls-12,.cls-8,.cls-9{stroke:#1f0031;}.cls-12,.cls-8,.cls-9{stroke-width:3.07px;}.cls-9{fill:#a078b4;}.cls-10{clip-path:url(#clip-path);}.cls-11{fill:#6f3096;stroke-width:3px;}.cls-13{stroke-width:3.56px;}</style><clipPath id="clip-path"><polygon class="cls-1" points="90.14 24.61 90.14 24.61 74.41 31.85 82.99 46.9 98.72 39.66 90.14 24.61"/></clipPath></defs><g id="Layer_2" data-name="Layer 2"><g id="Layer_1-2" data-name="Layer 1"><polygon class="cls-2" points="28.73 60.2 44.08 44.8 52.76 53.51 71.3 72.12 87.26 56.11 32.8 1.47 1.5 32.88 28.73 60.2"/><path class="cls-3" d="M29.77,61.25,43.2,47.77l1.92-1.93H43L65.71,68.6l4.55,4.57a1.51,1.51,0,0,0,2.09,0l14-14,2-2a1.5,1.5,0,0,0,0-2.1L69.84,36.54,40.61,7.21,33.85.43a1.5,1.5,0,0,0-2.1,0L21.2,11,4.36,27.91.45,31.83a1.51,1.51,0,0,0,0,2.1L24.31,57.87l3.37,3.38a1.48,1.48,0,0,0,2.09-2.1L5.92,35.21,2.55,31.83v2.1L13.1,23.35,29.94,6.44l3.91-3.92h-2.1L50.21,21,79.44,50.37l6.77,6.79v-2.1l-14,14-2,2h2.09L51.81,50.46l-6.69-6.71a1.49,1.49,0,0,0-2.09,0L29.6,57.22l-1.92,1.93A1.48,1.48,0,0,0,29.77,61.25Z"/><path class="cls-4" d="M12.4,38.39a4.59,4.59,0,0,0,2.52-1.3,4.7,4.7,0,0,0-2.81-8,8.46,8.46,0,0,1,1.24-1.58L26.85,14a8.32,8.32,0,0,1,1.44-1.16,4.57,4.57,0,0,0,1.19,2.11,4.68,4.68,0,0,0,6.64,0,4.83,4.83,0,0,0,1.21-2.15A8.12,8.12,0,0,1,38.84,14l36,36.08a6.91,6.91,0,0,1,.51.57A4.66,4.66,0,0,0,73,51.89a4.72,4.72,0,0,0,0,6.66,4.64,4.64,0,0,0,3.39,1.38,8.3,8.3,0,0,1-1.56,2.16l-6.75,6.77,3.25,3.26,16-16L32.8,1.47,1.5,32.88,28.73,60.2l2.6-2.61-18-18A7.42,7.42,0,0,1,12.4,38.39Z"/><path class="cls-3" d="M12.79,39.82a6.17,6.17,0,0,0-.28-12.16l.88,2.18a20.69,20.69,0,0,1,2.89-3.17l4.87-4.88L26,16.9a21.68,21.68,0,0,1,3-2.81l-2.17-.88a6.15,6.15,0,0,0,11.9-.05l-2.18.89a30.13,30.13,0,0,1,4.49,4.26L49.71,27,69.4,46.73c1.62,1.62,3.37,3.19,4.86,4.94l.66-2.48a6.19,6.19,0,0,0,1.44,12.22l-1.28-2.23c-1,1.84-2.72,3.26-4.18,4.72L67,67.81a1.5,1.5,0,0,0,0,2.1l3.25,3.26a1.51,1.51,0,0,0,2.09,0l14-14,2-2a1.5,1.5,0,0,0,0-2.1L69.84,36.54,40.61,7.21,33.85.43a1.5,1.5,0,0,0-2.1,0L21.2,11,4.36,27.91.45,31.83a1.51,1.51,0,0,0,0,2.1L24.31,57.87l3.37,3.38a1.51,1.51,0,0,0,2.09,0l2.61-2.61a1.52,1.52,0,0,0,0-2.1l-16-16.06a24,24,0,0,1-2.69-2.83c-1.1-1.54-3.68-.06-2.56,1.49,1.85,2.6,4.48,4.77,6.73,7l10,10.08,2.39,2.4v-2.1l-2.6,2.61h2.09L5.92,35.21,2.55,31.83v2.1L13.1,23.35,29.94,6.44l3.91-3.92h-2.1L50.21,21,79.44,50.37l6.77,6.79v-2.1l-14,14-2,2h2.09L69.1,67.81v2.1l4.07-4.09c1.59-1.59,3.4-3.13,4.47-5.14a1.49,1.49,0,0,0-1.28-2.23,3.24,3.24,0,0,1-.66-6.4,1.5,1.5,0,0,0,.66-2.48c-1.25-1.46-2.7-2.77-4.06-4.13l-8.79-8.82L43.84,16.88c-1.82-1.82-3.6-4-5.76-5.39a1.5,1.5,0,0,0-2.18.88,3.2,3.2,0,0,1-6.18.05,1.5,1.5,0,0,0-2.18-.89A23.79,23.79,0,0,0,24,14.68l-5,5-5,5a22.81,22.81,0,0,0-3.23,3.64,1.49,1.49,0,0,0,.89,2.18A3.25,3.25,0,0,1,12,37C10.14,37.37,10.93,40.23,12.79,39.82Z"/><path class="cls-4" d="M52.76,53.51a12.3,12.3,0,1,0-17.37,0l8.69-8.71,8.68,8.71Z"/><polygon class="cls-2" points="48.25 63.48 63.6 48.07 72.29 56.79 90.83 75.39 106.78 59.39 52.33 4.75 21.02 36.16 48.25 63.48"/><path class="cls-3" d="M49.3,64.52,62.73,51.05l1.92-1.93h-2.1L85.23,71.88l4.55,4.56a1.5,1.5,0,0,0,2.1,0l14-14,2-2a1.51,1.51,0,0,0,0-2.1L89.37,39.82,60.14,10.49,53.37,3.7a1.5,1.5,0,0,0-2.09,0L40.73,14.28,23.89,31.19,20,35.11a1.49,1.49,0,0,0,0,2.09L43.83,61.14l3.37,3.38a1.48,1.48,0,0,0,2.1-2.09L25.44,38.49l-3.37-3.38V37.2L32.62,26.62,49.46,9.72,53.37,5.8H51.28L69.74,24.32,99,53.65l6.76,6.79v-2.1l-14,14-2,2h2.1L71.34,53.74,64.65,47a1.5,1.5,0,0,0-2.1,0L49.13,60.5,47.2,62.43A1.48,1.48,0,0,0,49.3,64.52Z"/><path class="cls-4" d="M31.92,41.67a4.71,4.71,0,0,0,3.23-2.2,4.76,4.76,0,0,0,0-4.8,4.63,4.63,0,0,0-3.54-2.3,8.06,8.06,0,0,1,1.24-1.58L46.37,17.24a9.2,9.2,0,0,1,1.44-1.15A4.56,4.56,0,0,0,50,18.93a4.73,4.73,0,0,0,4.5.11,4.54,4.54,0,0,0,2.38-3,9.11,9.11,0,0,1,1.52,1.2l36,36.09-.16.76A4.62,4.62,0,0,0,92,55.7a4.76,4.76,0,0,0,0,5.58,4.7,4.7,0,0,0,3.87,1.93,8.93,8.93,0,0,1-1.56,2.15l-6.75,6.77,3.25,3.26,16-16-52.87-53a2.23,2.23,0,0,0-3.17,0L21,36.16,48.25,63.47l2.6-2.61-18-18A8.61,8.61,0,0,1,31.92,41.67Z"/><path class="cls-3" d="M32.32,43.1A6.17,6.17,0,0,0,32,30.94l.89,2.18A20.19,20.19,0,0,1,35.81,30l4.86-4.89,4.87-4.88a21.13,21.13,0,0,1,3-2.81l-2.18-.89a6.16,6.16,0,0,0,11.9,0l-2.18.88a30.49,30.49,0,0,1,4.44,4.21l8.53,8.55L88.74,49.82l4.54,4.56-.38-1.45-.16.76,1-1a6.19,6.19,0,0,0,2.12,12l-1.28-2.23c-1,1.84-2.73,3.26-4.18,4.72l-3.9,3.91a1.5,1.5,0,0,0,0,2.09l3.25,3.26a1.5,1.5,0,0,0,2.1,0l14-14,2-2a1.51,1.51,0,0,0,0-2.1L95.51,46,71.73,22.12,55.55,5.89a4.67,4.67,0,0,0-2.67-1.63C51.12,4,50,5,48.88,6.11l-8.61,8.64-19.89,20-.4.41a1.49,1.49,0,0,0,0,2.09L43.83,61.14l3.37,3.38a1.5,1.5,0,0,0,2.1,0l2.6-2.61a1.49,1.49,0,0,0,0-2.09l-16-16.06a24.14,24.14,0,0,1-2.7-2.84c-1.1-1.54-3.67-.06-2.56,1.5,1.86,2.6,4.49,4.77,6.73,7l10,10.07,2.4,2.4V59.82L47.2,62.43h2.1L25.44,38.49l-3.37-3.38V37.2L39,20.27,49.25,9.94c.79-.79,1.55-1.63,2.37-2.38.56-.51,1-.37,1.51.09,4.95,4.7,9.65,9.69,14.47,14.53L91.24,45.89l9.44,9.48c1.58,1.59,3.1,3.41,4.83,4.85a1.52,1.52,0,0,1,.22.22v-2.1l-14,14-2,2h2.1l-3.25-3.26v2.09L92.7,69.1C94.29,67.5,96.09,66,97.17,64a1.51,1.51,0,0,0-1.28-2.24,3.25,3.25,0,0,1-3.11-4.29c.41-1.17,1.22-1.43,2.14-2.06a2.43,2.43,0,0,0,.69-2.79,7.8,7.8,0,0,0-1.4-1.47l-7.92-8L64.2,21c-2.08-2.09-4.12-4.61-6.6-6.24a1.5,1.5,0,0,0-2.18.89,3.21,3.21,0,0,1-6.18,0,1.5,1.5,0,0,0-2.18-.89A23.71,23.71,0,0,0,43.57,18l-5,5-5,5a23.32,23.32,0,0,0-3.23,3.65,1.5,1.5,0,0,0,.89,2.18,3.25,3.25,0,0,1,.28,6.44C29.66,40.63,30.45,43.49,32.32,43.1Z"/><path class="cls-4" d="M72.29,56.79a12.3,12.3,0,1,0-17.37,0l8.68-8.72,8.69,8.72Z"/><path class="cls-5" d="M73.33,57.84A13.86,13.86,0,0,0,70.24,36a13.78,13.78,0,0,0-20,8.73,14,14,0,0,0,3.62,13.13,1.51,1.51,0,0,0,2.1,0l8.68-8.72h-2.1l8.69,8.72a1.5,1.5,0,0,0,2.53-1.05h0a1.49,1.49,0,0,0-3,0h0l2.53-1L64.65,47a1.5,1.5,0,0,0-2.1,0l-8.68,8.71H56a10.8,10.8,0,1,1,15.27,0C69.9,57.1,72,59.2,73.33,57.84Z"/><polygon class="cls-6" points="48.45 48.28 86.56 86.53 64.66 108.51 26.53 70.27 48.45 48.28"/><path class="cls-4" d="M58.41,51.38a8.61,8.61,0,1,0,0,12.2A8.58,8.58,0,0,0,58.41,51.38Z"/><path class="cls-4" d="M48.44,48.28l-21.91,22,38.13,38.24,21.9-22Zm20,51.91a6,6,0,0,1-1.1.87,3.28,3.28,0,0,0-6.49-.2,6.31,6.31,0,0,1-.8-.67L34.83,74.93a5.77,5.77,0,0,1-.67-.81,3.26,3.26,0,0,0,1.77-.91,3.31,3.31,0,0,0,0-4.67,3.28,3.28,0,0,0-2-.93,6,6,0,0,1,.86-1.11L44.28,57a5.47,5.47,0,0,1,1-.8,3.19,3.19,0,0,0,.83,1.47,3.28,3.28,0,0,0,4.65,0,3.24,3.24,0,0,0,.85-1.5,6.34,6.34,0,0,1,1.06.83L77.85,82.28c.13.13.24.27.36.4a3.3,3.3,0,0,0,.73,6.52,5.86,5.86,0,0,1-1.09,1.51Z"/><circle class="cls-7" cx="86.56" cy="35.75" r="14.97" transform="translate(26.08 107.26) rotate(-72.21)"/><path class="cls-8" d="M93.08,15.45a21.32,21.32,0,1,0,13.79,26.82A21.34,21.34,0,0,0,93.08,15.45ZM82,50a15,15,0,1,1,18.83-9.68A15,15,0,0,1,82,50Z"/><circle class="cls-9" cx="86.56" cy="35.75" r="14.97" transform="translate(26.08 107.26) rotate(-72.21)"/><g class="cls-10"><path class="cls-3" d="M77.77,19.66l.49.69,1.33,1.89,2,2.79L84,28.42l2.63,3.73c.89,1.25,1.77,2.51,2.66,3.77s1.64,2.33,2.47,3.49l2.08,3,1.51,2.14c.24.33.47.68.71,1l0,0a.73.73,0,0,0,1.09-1l-.49-.69L95.31,42l-2-2.79L91,35.82l-2.63-3.73c-.89-1.25-1.77-2.51-2.66-3.77l-2.47-3.49c-.69-1-1.39-2-2.09-3l-1.5-2.14c-.24-.33-.47-.68-.72-1l0,0a.73.73,0,0,0-1-.05A.75.75,0,0,0,77.77,19.66Z"/><path class="cls-3" d="M75.59,26.43c.17.23.33.46.49.7L77.42,29l2,2.78,2.39,3.39,2.64,3.73,2.65,3.77c.83,1.16,1.65,2.33,2.47,3.5l2.09,3,1.51,2.14c.23.33.46.68.71,1l0,0a.74.74,0,0,0,1,.06.76.76,0,0,0,.06-1l-.49-.69-1.33-1.89-2-2.78-2.39-3.4-2.64-3.73L83.49,35.1,81,31.6l-2.09-3-1.51-2.13c-.23-.34-.46-.68-.71-1l0-.05a.73.73,0,0,0-1-.05A.76.76,0,0,0,75.59,26.43Z"/><path class="cls-3" d="M102.14,26.57l-.81.28-2.18.76-3.22,1.12L92,30.09,87.7,31.6l-4.35,1.51-4,1.41-3.41,1.19-2.47.86L72.25,37l0,0a.79.79,0,0,0-.45.31.74.74,0,0,0,.77,1.12l.8-.28,2.19-.76,3.21-1.12,3.92-1.37L87,33.4l4.35-1.52,4-1.41,3.42-1.19,2.47-.86L102.4,28l0,0a.81.81,0,0,0,.46-.31.73.73,0,0,0-.77-1.11Z"/><path class="cls-3" d="M100,33.34l-.8.28L97,34.38,93.76,35.5l-3.92,1.37-4.31,1.5-4.35,1.52-4.05,1.4-3.42,1.2-2.46.86-1.17.4,0,0a.74.74,0,0,0-.56.87.75.75,0,0,0,.88.56l.8-.28,2.18-.76L76.55,43l3.92-1.37,4.31-1.5,4.36-1.52,4-1.41,3.42-1.19,2.46-.86,1.17-.41h0a.77.77,0,0,0,.45-.32.79.79,0,0,0,.11-.56A.75.75,0,0,0,100,33.34Z"/><path class="cls-3" d="M90.49,21.13l-.27.84-.74,2.3L88.4,27.65l-1.33,4.14-1.46,4.54L84.15,40.9l-1.37,4.27-1.16,3.61-.83,2.58c-.13.41-.27.82-.39,1.23l0,0a.73.73,0,1,0,1.39.45l.27-.84.74-2.3,1.09-3.39,1.33-4.14,1.45-4.54,1.47-4.56,1.37-4.27,1.15-3.61.83-2.59c.13-.41.27-.81.4-1.22v-.06a.73.73,0,1,0-1.39-.44Z"/></g><path class="cls-11" d="M116.29,103.11a8.68,8.68,0,0,1-8.67,8.69H10.16a8.68,8.68,0,0,1-8.66-8.69V44.55a8.68,8.68,0,0,1,8.66-8.69h97.46a8.68,8.68,0,0,1,8.67,8.69Z"/><path class="cls-12" d="M121.93,80.65a7.28,7.28,0,0,1-7.27,7.3H79.52a7.28,7.28,0,0,1-7.27-7.3V67a7.28,7.28,0,0,1,7.27-7.3h35.14a7.28,7.28,0,0,1,7.27,7.3Z"/><path class="cls-13" d="M92.87,73.83A5.8,5.8,0,1,1,87.07,68,5.81,5.81,0,0,1,92.87,73.83Z"/></g></g></svg>