<svg xmlns="http://www.w3.org/2000/svg" xmlns:xlink="http://www.w3.org/1999/xlink" viewBox="0 0 123.74 113.58"><defs><style>.cls-1,.cls-7{fill:none;}.cls-12,.cls-2{fill:#9f72c0;}.cls-3{fill:#1f0031;}.cls-4{fill:#f4f4f4;}.cls-5{fill:#3d0062;}.cls-6{fill:#6aba83;}.cls-13,.cls-7{stroke:#3d0062;}.cls-11,.cls-12,.cls-13,.cls-7,.cls-8,.cls-9{stroke-miterlimit:10;}.cls-7{stroke-width:2.14px;}.cls-11,.cls-13,.cls-8{fill:#fff;}.cls-11,.cls-12,.cls-8,.cls-9{stroke:#1f0031;}.cls-12,.cls-8,.cls-9{stroke-width:3.07px;}.cls-9{fill:#a078b4;}.cls-10{clip-path:url(#clip-path);}.cls-11,.cls-13{stroke-width:3.56px;}</style><clipPath id="clip-path"><polygon class="cls-1" points="90.42 24.61 90.42 24.61 74.69 31.85 83.27 46.9 99 39.66 90.42 24.61"/></clipPath></defs><g id="Layer_2" data-name="Layer 2"><g id="Layer_1-2" data-name="Layer 1"><polygon class="cls-2" points="29 60.2 44.35 44.8 53.04 53.51 71.58 72.12 87.53 56.11 33.08 1.47 1.78 32.88 29 60.2"/><path class="cls-3" d="M30.05,61.25,43.48,47.77l1.92-1.93H43.31L66,68.6l4.54,4.57a1.52,1.52,0,0,0,2.1,0l14-14,2-2a1.5,1.5,0,0,0,0-2.1L70.12,36.54,40.89,7.21,34.13.43a1.5,1.5,0,0,0-2.1,0L21.48,11,4.64,27.91.73,31.83a1.5,1.5,0,0,0,0,2.1L24.59,57.87,28,61.25a1.48,1.48,0,0,0,2.09-2.1L6.2,35.21,2.83,31.83v2.1L13.37,23.35,30.22,6.44l3.91-3.92H32L50.49,21,79.72,50.37l6.77,6.79v-2.1l-14,14-2,2h2.1L52.09,50.46,45.4,43.75a1.49,1.49,0,0,0-2.09,0L29.88,57.22,28,59.15A1.48,1.48,0,0,0,30.05,61.25Z"/><path class="cls-4" d="M12.68,38.39a4.53,4.53,0,0,0,2.51-1.3,4.69,4.69,0,0,0-2.8-8,8.46,8.46,0,0,1,1.24-1.58L27.13,14a8.32,8.32,0,0,1,1.44-1.16,4.57,4.57,0,0,0,1.19,2.11,4.68,4.68,0,0,0,6.64,0,4.83,4.83,0,0,0,1.21-2.15A8.12,8.12,0,0,1,39.12,14l36,36.08a6.91,6.91,0,0,1,.51.57,4.66,4.66,0,0,0-2.35,1.27,4.72,4.72,0,0,0,0,6.66,4.64,4.64,0,0,0,3.39,1.38,8.3,8.3,0,0,1-1.56,2.16l-6.75,6.77,3.25,3.26,16-16L33.08,1.47,1.78,32.88,29,60.2l2.6-2.61-18-18A7.42,7.42,0,0,1,12.68,38.39Z"/><path class="cls-3" d="M13.07,39.82a6.17,6.17,0,0,0-.28-12.16l.88,2.18a20.69,20.69,0,0,1,2.89-3.17l4.87-4.88,4.86-4.89a21.68,21.68,0,0,1,3-2.81l-2.17-.88A6.15,6.15,0,0,0,39,13.16l-2.18.89a30.63,30.63,0,0,1,4.49,4.26L50,27,69.68,46.73c1.62,1.62,3.37,3.19,4.86,4.94l.66-2.48a6.19,6.19,0,0,0,1.44,12.22l-1.28-2.23c-1,1.84-2.72,3.26-4.18,4.72l-3.89,3.91a1.5,1.5,0,0,0,0,2.1l3.24,3.26a1.52,1.52,0,0,0,2.1,0l14-14,2-2a1.5,1.5,0,0,0,0-2.1L70.12,36.54,40.89,7.21,34.13.43a1.5,1.5,0,0,0-2.1,0L21.48,11,4.64,27.91.73,31.83a1.5,1.5,0,0,0,0,2.1L24.59,57.87,28,61.25a1.51,1.51,0,0,0,2.09,0l2.61-2.61a1.52,1.52,0,0,0,0-2.1l-16-16.06A24,24,0,0,1,14,37.65c-1.1-1.54-3.68-.06-2.56,1.49,1.85,2.6,4.48,4.77,6.72,7L28.17,56.24l2.39,2.4v-2.1L28,59.15h2.09L6.2,35.21,2.83,31.83v2.1L13.37,23.35,30.22,6.44l3.91-3.92H32L50.49,21,79.72,50.37l6.77,6.79v-2.1l-14,14-2,2h2.1l-3.25-3.26v2.1l4.07-4.09c1.59-1.59,3.39-3.13,4.47-5.14a1.49,1.49,0,0,0-1.28-2.23,3.24,3.24,0,0,1-.66-6.4,1.51,1.51,0,0,0,.66-2.48c-1.25-1.46-2.71-2.77-4.06-4.13l-8.79-8.82L44.11,16.88c-1.81-1.82-3.59-4-5.75-5.39a1.5,1.5,0,0,0-2.18.88,3.21,3.21,0,0,1-6.19.05,1.49,1.49,0,0,0-2.17-.89,23.79,23.79,0,0,0-3.5,3.15l-5,5-5,5a22.81,22.81,0,0,0-3.23,3.64A1.49,1.49,0,0,0,12,30.52,3.25,3.25,0,0,1,12.28,37C10.42,37.37,11.21,40.23,13.07,39.82Z"/><path class="cls-4" d="M53,53.51a12.3,12.3,0,1,0-17.37,0l8.68-8.71L53,53.51Z"/><polygon class="cls-2" points="48.53 63.48 63.88 48.07 72.56 56.79 91.11 75.39 107.06 59.39 52.6 4.75 21.3 36.16 48.53 63.48"/><path class="cls-3" d="M49.58,64.52,63,51.05l1.93-1.93h-2.1L85.51,71.88l4.55,4.56a1.5,1.5,0,0,0,2.1,0l14-14,2-2a1.51,1.51,0,0,0,0-2.1L89.65,39.82,60.42,10.49,53.65,3.7a1.5,1.5,0,0,0-2.09,0L41,14.28,24.17,31.19l-3.91,3.92a1.49,1.49,0,0,0,0,2.09L44.11,61.14l3.37,3.38a1.48,1.48,0,0,0,2.1-2.09L25.72,38.49l-3.37-3.38V37.2L32.9,26.62,49.74,9.72,53.65,5.8H51.56L70,24.32,99.25,53.65,106,60.44v-2.1l-14,14-2,2h2.1L71.62,53.74,64.93,47a1.5,1.5,0,0,0-2.1,0L49.41,60.5l-1.93,1.93A1.48,1.48,0,0,0,49.58,64.52Z"/><path class="cls-4" d="M32.2,41.67a4.67,4.67,0,0,0,3.22-2.2,4.74,4.74,0,0,0,0-4.8,4.63,4.63,0,0,0-3.54-2.3,8.4,8.4,0,0,1,1.23-1.58l13.5-13.55a8.76,8.76,0,0,1,1.44-1.15,4.53,4.53,0,0,0,2.16,2.84,4.73,4.73,0,0,0,4.5.11,4.54,4.54,0,0,0,2.38-3,9.11,9.11,0,0,1,1.52,1.2l36,36.09-.16.76a4.62,4.62,0,0,0-2.14,1.61,4.71,4.71,0,0,0,3.86,7.51,8.93,8.93,0,0,1-1.56,2.15l-6.75,6.77,3.25,3.26,16-16-52.87-53a2.23,2.23,0,0,0-3.17,0L21.3,36.16,48.53,63.47l2.6-2.61-18-18A8.61,8.61,0,0,1,32.2,41.67Z"/><path class="cls-3" d="M32.6,43.1a6.17,6.17,0,0,0-.29-12.16l.89,2.18A19.71,19.71,0,0,1,36.09,30L41,25.06l4.87-4.88a21.13,21.13,0,0,1,3-2.81l-2.18-.89a6.16,6.16,0,0,0,11.9,0l-2.18.88a30.49,30.49,0,0,1,4.44,4.21l8.53,8.55L89,49.82l4.54,4.56-.38-1.45-.16.76,1-1a6.19,6.19,0,0,0,2.12,12l-1.28-2.23c-1,1.84-2.73,3.26-4.18,4.72l-3.9,3.91a1.49,1.49,0,0,0,0,2.09l3.25,3.26a1.5,1.5,0,0,0,2.1,0l14-14,2-2a1.51,1.51,0,0,0,0-2.1L95.79,46,72,22.12,55.83,5.89a4.67,4.67,0,0,0-2.68-1.63c-1.75-.26-2.88.73-4,1.85l-8.6,8.64-19.89,20-.4.41a1.49,1.49,0,0,0,0,2.09L44.11,61.14l3.37,3.38a1.5,1.5,0,0,0,2.1,0l2.6-2.61a1.49,1.49,0,0,0,0-2.09l-16-16.06a24.9,24.9,0,0,1-2.69-2.84c-1.1-1.54-3.67-.06-2.56,1.5,1.86,2.6,4.49,4.77,6.73,7l10,10.07,2.4,2.4V59.82l-2.61,2.61h2.1L25.72,38.49l-3.37-3.38V37.2L39.23,20.27,49.53,9.94c.78-.79,1.55-1.63,2.37-2.38.56-.51,1-.37,1.51.09,5,4.7,9.65,9.69,14.47,14.53L91.52,45.89,101,55.37c1.58,1.59,3.1,3.41,4.83,4.85a1.52,1.52,0,0,1,.22.22v-2.1l-14,14-2,2h2.1l-3.25-3.26v2.09L93,69.1c1.6-1.6,3.4-3.13,4.48-5.14a1.51,1.51,0,0,0-1.28-2.24,3.25,3.25,0,0,1-3.11-4.29c.41-1.17,1.22-1.43,2.13-2.06a2.42,2.42,0,0,0,.7-2.79,8.13,8.13,0,0,0-1.4-1.47l-7.92-8L64.48,21c-2.08-2.09-4.12-4.61-6.6-6.24a1.5,1.5,0,0,0-2.18.89,3.21,3.21,0,0,1-6.18,0,1.5,1.5,0,0,0-2.18-.89A24.31,24.31,0,0,0,43.84,18l-5,5-5,5a23.26,23.26,0,0,0-3.22,3.65,1.5,1.5,0,0,0,.88,2.18,3.25,3.25,0,0,1,.29,6.44C29.94,40.63,30.73,43.49,32.6,43.1Z"/><path class="cls-4" d="M72.56,56.79a12.3,12.3,0,1,0-17.36,0l8.68-8.72,8.68,8.72Z"/><path class="cls-5" d="M73.61,57.84A13.85,13.85,0,0,0,70.51,36a13.77,13.77,0,0,0-20,8.73,14,14,0,0,0,3.62,13.13,1.51,1.51,0,0,0,2.1,0l8.68-8.72h-2.1l8.69,8.72a1.5,1.5,0,0,0,2.53-1.05h0a1.49,1.49,0,0,0-3,0h0l2.53-1L64.93,47a1.5,1.5,0,0,0-2.1,0l-8.68,8.71h2.1a10.8,10.8,0,1,1,15.27,0C70.18,57.1,72.28,59.2,73.61,57.84Z"/><polygon class="cls-6" points="48.72 48.28 86.84 86.53 64.93 108.51 26.81 70.27 48.72 48.28"/><path class="cls-4" d="M58.69,51.38a8.61,8.61,0,1,0,0,12.2A8.58,8.58,0,0,0,58.69,51.38Z"/><path class="cls-4" d="M48.72,48.28l-21.91,22,38.12,38.24,21.91-22Zm20,51.91a6,6,0,0,1-1.1.87,3.28,3.28,0,0,0-6.49-.2,6.4,6.4,0,0,1-.81-.67L35.11,74.93a5.77,5.77,0,0,1-.67-.81,3.29,3.29,0,0,0-.2-6.51,6.54,6.54,0,0,1,.87-1.11L44.56,57a5.75,5.75,0,0,1,1-.8,3.27,3.27,0,0,0,5.49,1.47,3.13,3.13,0,0,0,.84-1.5A6,6,0,0,1,53,57L78.13,82.28c.13.13.24.27.36.4a3.27,3.27,0,0,0-1.65.89,3.32,3.32,0,0,0,0,4.67,3.28,3.28,0,0,0,2.38,1,5.86,5.86,0,0,1-1.09,1.51Z"/><circle class="cls-7" cx="86.84" cy="35.75" r="14.97" transform="translate(26.27 107.52) rotate(-72.21)"/><path class="cls-8" d="M93.36,15.45a21.32,21.32,0,1,0,13.79,26.82A21.34,21.34,0,0,0,93.36,15.45ZM82.27,50a15,15,0,1,1,18.83-9.68A15,15,0,0,1,82.27,50Z"/><circle class="cls-9" cx="86.84" cy="35.75" r="14.97" transform="translate(26.27 107.52) rotate(-72.21)"/><g class="cls-10"><path class="cls-3" d="M78,19.66l.49.69,1.34,1.89,2,2.79,2.4,3.39,2.63,3.73,2.66,3.77c.82,1.16,1.64,2.33,2.47,3.49l2.08,3,1.51,2.14c.24.33.47.68.71,1l0,0a.73.73,0,0,0,1,0,.74.74,0,0,0,.06-1l-.49-.69L95.59,42l-2-2.79-2.39-3.39L88.6,32.09q-1.34-1.88-2.66-3.77l-2.47-3.49-2.09-3-1.5-2.14c-.24-.33-.47-.68-.72-1l0,0a.73.73,0,0,0-1-.05A.76.76,0,0,0,78,19.66Z"/><path class="cls-3" d="M75.87,26.43c.16.23.33.46.49.7L77.7,29l2,2.78,2.39,3.39,2.64,3.73,2.65,3.77c.83,1.16,1.65,2.33,2.47,3.5l2.09,3,1.51,2.14c.23.33.46.68.71,1l0,0a.74.74,0,0,0,1,.06.77.77,0,0,0,.06-1l-.49-.69-1.34-1.89-2-2.78-2.39-3.4-2.64-3.73L83.77,35.1,81.3,31.6l-2.09-3L77.7,26.51c-.23-.34-.46-.68-.71-1l0-.05a.73.73,0,0,0-1-.05A.76.76,0,0,0,75.87,26.43Z"/><path class="cls-3" d="M102.41,26.57l-.8.28-2.18.76-3.22,1.12-3.92,1.36L88,31.6l-4.35,1.51-4,1.41-3.41,1.19-2.47.86L72.53,37l0,0a.76.76,0,0,0-.45.31.74.74,0,0,0,.77,1.12l.8-.28,2.19-.76L79,36.27l3.92-1.37,4.31-1.5,4.36-1.52,4-1.41,3.42-1.19,2.47-.86,1.16-.41,0,0a.81.81,0,0,0,.46-.31.78.78,0,0,0,.1-.56A.75.75,0,0,0,102.41,26.57Z"/><path class="cls-3" d="M100.24,33.34l-.8.28-2.18.76L94,35.5l-3.92,1.37-4.31,1.5-4.36,1.52-4,1.4L74,42.49l-2.46.86-1.17.4,0,0a.74.74,0,0,0-.56.87.75.75,0,0,0,.88.56l.8-.28,2.18-.76L76.83,43l3.92-1.37,4.31-1.5,4.35-1.52,4-1.41,3.42-1.19,2.46-.86,1.17-.41h0a.77.77,0,0,0,.45-.32.73.73,0,0,0-.77-1.11Z"/><path class="cls-3" d="M90.77,21.13,90.5,22l-.74,2.3-1.08,3.38-1.33,4.14-1.46,4.54L84.43,40.9l-1.37,4.27L81.9,48.78l-.83,2.58c-.13.41-.27.82-.39,1.23l0,0a.73.73,0,1,0,1.39.45l.27-.84.74-2.3,1.09-3.39,1.32-4.14,1.46-4.54,1.46-4.56,1.37-4.27,1.16-3.61.83-2.59c.13-.41.27-.81.4-1.22v-.06a.73.73,0,1,0-1.39-.44Z"/></g><path class="cls-11" d="M116.57,103.11a8.68,8.68,0,0,1-8.67,8.69H10.44a8.68,8.68,0,0,1-8.66-8.69V44.55a8.68,8.68,0,0,1,8.66-8.69H107.9a8.68,8.68,0,0,1,8.67,8.69Z"/><path class="cls-12" d="M122.21,80.65a7.28,7.28,0,0,1-7.27,7.3H79.8a7.28,7.28,0,0,1-7.27-7.3V67a7.28,7.28,0,0,1,7.27-7.3h35.14a7.28,7.28,0,0,1,7.27,7.3Z"/><path class="cls-13" d="M93.15,73.83A5.8,5.8,0,1,1,87.35,68,5.81,5.81,0,0,1,93.15,73.83Z"/></g></g></svg>