<svg id="Layer_1" data-name="Layer 1" xmlns="http://www.w3.org/2000/svg" viewBox="0 0 1364 452"><defs><style>.cls-1{fill:#9d72be;}.cls-2{fill:#9e72bf;}.cls-3{fill:#6f3094;}</style></defs><path class="cls-1" d="M178.89,378.69a24,24,0,0,1-4-47.91L307.72,317.9l1,0a25.87,25.87,0,0,1,25.5,21.46,25.85,25.85,0,0,1-21.47,26.45L179.88,378.67l-1,0m-25.1-235.76a23.85,23.85,0,0,1-23.48-19.67l-.05-1.85a23.84,23.84,0,0,1,19.68-24.55L282.79,84a23.61,23.61,0,0,1,2.51-.14A23.27,23.27,0,0,1,289.61,130l-1.85.05L154.9,142.91l-1.11,0M0,0V452H381.5a99.28,99.28,0,0,0,31.32-82.49l-.09-.91L380.17,59.15A99,99,0,0,0,353,0"/><path class="cls-2" d="M790.28,195.79h0l-1.48.65-.4.19s.49-.21,1.89-.85M1364,22.31q-2.36,1.92-4.72,3.83l-2.57,1.95q-2.87,2.14-5.76,4.24-6.15,4.47-12.46,8.71-11.87,8-24.24,15.15-14.24,8.27-29,15.48-7.21,3.51-14.55,6.79c-2.39,1.07-4.79,2.11-7.19,3.14l-.34.14c-1.56.61-3.09,1.27-4.65,1.89a523.14,523.14,0,0,1-63,20.62A576.18,576.18,0,0,1,1131.41,117l-2.17.3-1.83.23c-2.66.34-5.33.65-8,1q-8.49.94-17,1.67c-11.94,1-23.9,1.66-35.86,2.09-91.18,3.26-185.35-6-273.18,24.46-20.49,7.1-40.58,16.06-59,27.56S699,199.88,683.45,215c-29.09,28.33-54.23,60.64-85.28,87q-2.82,2.4-5.72,4.73c-.21.17-.79.62-1.29,1l-1.32,1q-6,4.47-12.3,8.57a246.51,246.51,0,0,1-25.25,14.37,130.25,130.25,0,0,1-12,5.53l1.9-.7-4.68,1.77c-2.74,1.06-5.49,2.08-8.27,3a254.92,254.92,0,0,1-27.09,7.86q-6.88,1.6-13.83,2.83c-2.32.41-4.65.75-7,1.13l-.88.16c-.92.11-1.85.18-2.77.28a259.58,259.58,0,0,1-28.84,1.61h-.21a256,256,0,0,1-29-1.67l-1.56-.17-.32-.05c-2.32-.36-4.64-.72-7-1.12q-7.8-1.38-15.52-3.25a244.47,244.47,0,0,1-27-8.27,17.1,17.1,0,0,0-5.91-1c-9.66,0-19.67,7.5-21.77,16.74-2.9,12.73,3.87,23.31,15.71,27.68a267.78,267.78,0,0,0,92.44,16.15c51,0,102.21-13.85,145.53-40.3,36.52-22.3,65.13-53.81,93.9-84.94,13.85-15,27.94-29.86,43.45-43.17,1.87-1.6,3.76-3.19,5.68-4.75.74-.6,4.11-3.17,4.06-3.17l-1.21.88c4.49-3.32,9-6.57,13.71-9.6a243,243,0,0,1,26.3-14.76c2.26-1.09,4.54-2.16,6.83-3.19l1.78-.78c.44-.2,1.12-.51,1.48-.65l.19-.09-.18.08h0c5.26-2.11,10.55-4.12,15.92-6,9.87-3.39,19.91-6.27,30.06-8.73s20.5-4.51,30.86-6.19q3.76-.62,7.55-1.16l1.69-.24,1.8-.24c5.69-.68,11.38-1.32,17.08-1.85,48.1-4.47,96.48-2.86,144.71-3.51,47.72-.64,95.29-4.41,142.06-14.26a540,540,0,0,0,129.49-44.88A456.77,456.77,0,0,0,1364,78.05V22.31"/><path class="cls-2" d="M571.36,0H501.72L500,1.14a243.75,243.75,0,0,1-25.26,14.37,128.86,128.86,0,0,1-12,5.53l1.9-.7-4.68,1.77c-2.74,1.07-5.49,2.09-8.27,3.06A260.41,260.41,0,0,1,424.58,33c-4.59,1.06-9.2,2-13.83,2.82-2.32.41-4.65.76-7,1.13l-.88.16c-.93.11-1.85.19-2.77.29A262.32,262.32,0,0,1,371.28,39h-.2a255.91,255.91,0,0,1-29-1.66l-1.55-.18-.33,0c-2.32-.35-4.65-.71-7-1.12q-7.81-1.38-15.52-3.25a245.92,245.92,0,0,1-27-8.26,17.16,17.16,0,0,0-5.92-1c-9.65,0-19.66,7.51-21.76,16.74-2.9,12.73,3.87,23.32,15.71,27.68A267.54,267.54,0,0,0,371.2,84.05c51,0,102.21-13.85,145.53-40.29C536.9,31.44,554.65,16.32,571.36,0"/><path class="cls-2" d="M483.17,99.7c.46-.2.94-.42,1.12-.53a7.28,7.28,0,0,1-1.12.53m48.88-28.34,1.36-1a13.64,13.64,0,0,1-1.36,1M667.45,0H603.78C590,14.81,576.5,30,562.17,44.3c-7,7-14.22,13.79-21.76,20.22-1.83,1.55-3.67,3.08-5.54,4.59l-1.21,1-.58.42c-4,3-8.05,5.9-12.22,8.66a245.1,245.1,0,0,1-25.13,14.54c-3.93,2-7.93,3.81-12,5.61l-1.36.62c-.48.18-1,.34-1.38.51q-4.1,1.62-8.24,3.11a259.22,259.22,0,0,1-27,8q-6.87,1.65-13.8,2.92-3.47.64-6.95,1.18c-.87.14-1.75.25-2.62.4h-.13A281.25,281.25,0,0,1,390.14,118a251.84,251.84,0,0,1-25.88-1.31l-4-.4c-1.91-.25-3.82-.6-5.71-.92-4.63-.78-9.23-1.7-13.81-2.73a25.15,25.15,0,0,0-5.33-.58c-10,0-20,5.92-22.35,16.3-2.6,11.41,3.43,24.93,15.71,27.68a282.18,282.18,0,0,0,61.5,6.77,281.21,281.21,0,0,0,174.32-60.22c31.23-24.71,56.22-56,83.95-84.34C654.66,12,660.94,5.88,667.45,0"/><path class="cls-2" d="M751.49,37.71h0l-1.47.65-.41.19,1.88-.84M1119.64,0H726a261.11,261.11,0,0,0-30.41,16.21c-18.45,11.51-35.35,25.58-50.91,40.73-29.09,28.33-54.23,60.64-85.28,87-1.89,1.6-3.79,3.17-5.72,4.72l-1.27,1-1.34,1q-6,4.47-12.3,8.57A245.59,245.59,0,0,1,513.5,173.6a128.86,128.86,0,0,1-12,5.53l1.9-.7-4.68,1.77c-2.74,1.07-5.49,2.09-8.27,3.06a260.41,260.41,0,0,1-27.09,7.86q-6.89,1.59-13.83,2.82c-2.32.41-4.65.75-7,1.13l-.88.16c-.92.11-1.85.19-2.77.29a262.5,262.5,0,0,1-28.86,1.6h-.19a255.92,255.92,0,0,1-29-1.67l-1.55-.17-.33-.05c-2.32-.35-4.65-.71-7-1.12q-7.82-1.38-15.52-3.25a245.92,245.92,0,0,1-27-8.26,16.93,16.93,0,0,0-5.92-1c-9.65,0-19.66,7.5-21.76,16.74-2.9,12.73,3.87,23.31,15.71,27.68A267.54,267.54,0,0,0,410,242.14c51,0,102.21-13.85,145.53-40.3C592,179.55,620.64,148,649.41,116.9c13.85-15,27.94-29.85,43.45-43.16,1.87-1.61,3.76-3.2,5.67-4.75.75-.61,4.12-3.18,4.07-3.18s-.35.24-1.18.86c4.48-3.31,9-6.55,13.68-9.58a242,242,0,0,1,26.3-14.76c2.26-1.09,4.54-2.16,6.83-3.19l1.79-.78,1.47-.65.19-.09-.19.09h0c5.26-2.12,10.55-4.13,15.91-6,9.88-3.4,19.92-6.28,30.07-8.74s20.5-4.51,30.86-6.19c2.51-.41,5-.79,7.55-1.16l1.66-.24,1.83-.23c5.69-.68,11.38-1.33,17.08-1.86,48.1-4.47,96.48-2.86,144.71-3.5,39.72-.54,79.32-3.24,118.45-9.81"/><path class="cls-2" d="M770.88,116.75h0l-1.47.65-.4.19,1.88-.85M1343.15,0H1250l-5.89,2.56-.33.13c-1.56.62-3.1,1.27-4.65,1.89a522.76,522.76,0,0,1-63,20.63A575.28,575.28,0,0,1,1112,38l-2.19.3-1.8.23q-4,.49-8,.95-8.49.95-17,1.66c-11.93,1-23.89,1.66-35.85,2.09C956,46.49,861.8,37.24,774,67.69c-20.5,7.1-40.58,16.06-59,27.56S679.62,120.84,664.06,136c-29.09,28.33-54.23,60.63-85.28,87-1.89,1.6-3.79,3.18-5.72,4.73-.21.16-.78.61-1.28,1l-1.33,1q-6,4.49-12.3,8.57a243.75,243.75,0,0,1-25.26,14.37,131.59,131.59,0,0,1-12,5.54l1.9-.7s-3.69,1.38-4.68,1.77c-2.74,1.06-5.49,2.08-8.27,3.05a257.29,257.29,0,0,1-27.09,7.86c-4.59,1.06-9.2,2-13.83,2.82-2.32.41-4.65.76-7,1.14-.24,0-.56.09-.88.16l-2.77.28a259.7,259.7,0,0,1-28.84,1.6h-.21a255.91,255.91,0,0,1-29-1.66l-1.55-.17-.33-.05c-2.32-.36-4.64-.72-7-1.13q-7.81-1.36-15.52-3.24a246.64,246.64,0,0,1-27-8.27,17.11,17.11,0,0,0-5.91-1c-9.66,0-19.67,7.51-21.77,16.75-2.9,12.73,3.87,23.31,15.71,27.67a267.55,267.55,0,0,0,92.44,16.16c51,0,102.21-13.85,145.53-40.3,36.52-22.3,65.13-53.81,93.9-84.95,13.85-15,27.94-29.85,43.45-43.16q2.81-2.42,5.68-4.75c.74-.61,4.11-3.17,4.06-3.17s-.34.23-1.16.84c4.47-3.31,9-6.54,13.66-9.57a244.58,244.58,0,0,1,26.3-14.75q3.39-1.65,6.83-3.19c.59-.27,1.18-.52,1.78-.78l1.47-.65.2-.09-.19.08h0c5.26-2.11,10.55-4.13,15.92-6,9.87-3.39,19.91-6.27,30.06-8.73s20.5-4.52,30.86-6.19q3.76-.61,7.55-1.16l1.67-.24,1.82-.24c5.69-.68,11.38-1.33,17.08-1.85,48.1-4.47,96.48-2.86,144.71-3.51,47.72-.64,95.29-4.42,142.06-14.26A540,540,0,0,0,1292.13,29.7a457.27,457.27,0,0,0,51-29.7"/><path class="cls-3" d="M166,365.14a24,24,0,0,1-4-47.91l132.65-12.87,1,0a25.86,25.86,0,0,1,25.47,21.46,25.86,25.86,0,0,1-21.44,26.45L167,365.12c-.33,0-.66,0-1,0M140.93,129.39a23.81,23.81,0,0,1-23.44-19.68l-.06-1.84a23.81,23.81,0,0,1,19.65-24.55L269.73,70.44a23.27,23.27,0,0,1,6.8,46l-1.84,0L142,129.36l-1.11,0M350.71,0,0,.09v452L349.9,452a99.55,99.55,0,0,0,49.65-96c0-.3-.07-.6-.1-.91L367,45.61A99,99,0,0,0,350.71,0"/><path class="cls-3" d="M467.44,341.86h0m308-161.26-.8.36.8-.36M1364,0c-5.19,4.49-11.14,9.83-16.5,14.14l-.13.11-2.85,2.15q-2.85,2.14-5.75,4.25-6.16,4.46-12.47,8.7-11.86,8-24.24,15.16-14.24,8.25-29,15.47-7.21,3.52-14.55,6.79c-2.44,1.1-4.89,2.16-7.35,3.22l-.23.09-.46.19c-1.56.61-3.1,1.27-4.65,1.89a524.54,524.54,0,0,1-63,20.63,579.86,579.86,0,0,1-64.12,12.78l-2.38.32-2.18.28c-2.67.33-5.33.65-8,1q-8.49.94-17,1.67c-11.93,1-23.89,1.66-35.86,2.08-91,3.26-185-6-272.6,24.39-20.32,7.05-40.22,15.94-58.49,27.35S687.13,188,671.7,203c-29.09,28.33-54.23,60.63-85.28,87-1.89,1.6-3.79,3.18-5.72,4.73l-1.53,1.21-1.51,1.15q-6,4.49-12.3,8.57A245.85,245.85,0,0,1,540.1,320c-3.92,1.93-7.9,3.75-11.91,5.49.86-.37,1.18-.52,1.16-.52s-3.66,1.51-4.55,1.85c-2.74,1.07-5.49,2.08-8.27,3.06a260.41,260.41,0,0,1-27.09,7.86q-6.88,1.59-13.83,2.82c-2.32.41-4.65.75-7,1.13-.27.05-.77.11-1.2.17l1.36-.17-1.37.17-.74.09.66-.08-2.93.34a259.85,259.85,0,0,1-28.84,1.61h-.21c-8.48,0-27.18,1.82-41.85-1.95l2.73,26.05c0,.31.07.61.1.91a99.88,99.88,0,0,1,.37,14.12c7.43.6,31.35,1.57,38.8,1.57,50.62,0,101.4-13.73,144.41-40,36.36-22.2,64.83-53.62,93.46-84.61,13.86-15,27.94-29.85,43.45-43.16,1.88-1.61,3.77-3.2,5.68-4.75.48-.4,4.15-3.22,4.1-3.23l-.83.61c4.48-3.35,9-6.58,13.73-9.62A244.58,244.58,0,0,1,765.82,185q3.39-1.65,6.83-3.19c1.15-.52,2.3-1,3.45-1.52l-.67.29,1-.44c5.26-2.12,10.56-4.13,15.92-6,9.87-3.39,19.92-6.27,30.06-8.73s20.5-4.52,30.86-6.19q3.78-.61,7.56-1.16l2.21-.32,1.85-.23c5.68-.68,11.37-1.33,17.08-1.86,48.1-4.47,96.48-2.86,144.71-3.5,47.53-.64,94.9-4.38,141.48-14.19a537.55,537.55,0,0,0,129-44.67A467.63,467.63,0,0,0,1364,52V0"/><path class="cls-3" d="M389.13,25.77l.74-.09-.74.09m.75-.09,1.36-.17-1.36.17M540.37,0H470c-2.46,1.32-4.93,2.59-7.43,3.82-3.91,1.93-7.88,3.74-11.87,5.48.83-.36,1.14-.5,1.12-.5s-3.66,1.5-4.55,1.85q-4.11,1.59-8.27,3a260.41,260.41,0,0,1-27.09,7.86c-4.59,1.06-9.2,2-13.84,2.82-2.31.41-4.64.76-7,1.14l-1.21.16-3,.36c-5.05.56-22.09,1-27.16,1.24a99.56,99.56,0,0,1,8.56,31.87l.87,8.24c42.78-3.52,96.78-16.78,133.24-39A273.41,273.41,0,0,0,540.37,0"/><path class="cls-3" d="M469.84,88.46l.25-.11-.25.11m1.74-.76h0M520.3,59.33h0M636.9,0h-56c-10,10.9-20,21.82-30.5,32.28-7,7-14.22,13.79-21.76,20.21-1.83,1.56-3.67,3.09-5.54,4.6L520.79,59c-4,2.92-8,5.84-12.12,8.57a245,245,0,0,1-25.12,14.54c-3.94,2-7.93,3.82-11.95,5.62l-.5.22L468.33,89c-2.72,1.08-5.47,2.12-8.23,3.11a262.46,262.46,0,0,1-27,8.05q-6.87,1.63-13.8,2.91c-2.31.43-4.63.82-7,1.19-.87.13-1.74.24-2.61.39l-.23,0-.48.05c-7.92.91-17.77,2.62-37.35,2.75l4.24,39.37C456,142.93,503.72,124,549.78,87.55c31.24-24.71,56.22-56,84-84.34L636.9,0"/><path class="cls-3" d="M736.7,22.5l-.85.37.85-.37M427.91,183.86l.75-.09-.75.09m.77-.09,1.34-.17-1.34.17M822.21,0H690.94q-3.83,2.19-7.55,4.52c-18.3,11.42-35,25.37-50.47,40.4-29.09,28.33-54.23,60.64-85.28,87-1.89,1.6-3.79,3.18-5.72,4.73l-1.53,1.21L538.87,139c-4,3-8.11,5.85-12.29,8.57a245.85,245.85,0,0,1-25.26,14.37c-3.91,1.93-7.88,3.74-11.87,5.48.83-.36,1.14-.51,1.12-.51s-3.66,1.51-4.55,1.85c-2.74,1.07-5.49,2.09-8.27,3.06a260.41,260.41,0,0,1-27.09,7.86c-4.59,1.06-9.2,2-13.83,2.82-2.32.41-4.65.76-7,1.13-.27.05-.77.11-1.2.17l-3,.36a262.55,262.55,0,0,1-28.87,1.6h-.18l-15.67,0,4.28,40.72c78.4-3.09,113.23-13.91,156-40,36.36-22.2,64.82-53.61,93.46-84.61,13.86-15,27.94-29.85,43.45-43.16,1.87-1.61,3.77-3.19,5.68-4.75.48-.4,4.15-3.22,4.1-3.22s-.25.16-.8.58c4.47-3.34,9-6.56,13.7-9.59A243,243,0,0,1,727,26.93q3.39-1.65,6.83-3.19l3.45-1.52-.62.28,1-.42c5.26-2.12,10.56-4.13,15.92-6,9.87-3.39,19.92-6.27,30.06-8.73s20.5-4.51,30.86-6.19c2.52-.41,5-.79,7.56-1.16l.14,0"/><path class="cls-3" d="M448.06,262.81h0M756,101.56l-.8.36.8-.36M1304.22,0h-96q-22.05,7.86-44.76,13.74a575.28,575.28,0,0,1-64.12,12.78l-2.37.33-2.19.28c-2.67.33-5.33.65-8,.94q-8.49,1-17,1.67c-11.93,1-23.89,1.66-35.86,2.09-91,3.26-184.95-6-272.6,24.39-20.33,7-40.22,15.94-58.49,27.34s-35,25.38-50.47,40.4c-29.09,28.33-54.23,60.64-85.28,87-1.89,1.6-3.79,3.17-5.72,4.72l-1.54,1.22-1.5,1.15q-6,4.47-12.3,8.57A247.73,247.73,0,0,1,520.71,241c-3.91,1.92-7.87,3.73-11.87,5.47.83-.36,1.14-.5,1.12-.5s-3.66,1.5-4.55,1.85c-2.74,1.06-5.49,2.08-8.27,3.05a258,258,0,0,1-27.09,7.86q-6.89,1.6-13.83,2.83c-2.32.4-4.65.75-7,1.13l-1.19.16,1.35-.16-1.37.16-.74.1.65-.09-2.92.35a262.32,262.32,0,0,1-28.85,1.6H416c-4.74,0-16,.45-28.21-1.64L391.34,304c3.35.12,21.44,1.46,24.79,1.46,50.62,0,101.4-13.74,144.41-40,36.36-22.19,64.83-53.61,93.46-84.6,13.86-15,27.94-29.86,43.45-43.17,1.88-1.6,3.77-3.19,5.68-4.75.48-.39,4.15-3.22,4.1-3.22l-.82.59c4.48-3.34,9-6.56,13.72-9.6A243,243,0,0,1,746.43,106c2.26-1.09,4.54-2.16,6.83-3.19l3.45-1.52-.67.3,1-.44c5.26-2.12,10.56-4.13,15.92-6,9.87-3.39,19.92-6.28,30.06-8.74s20.5-4.51,30.86-6.19c2.52-.4,5-.79,7.56-1.16l2.22-.31,1.84-.24c5.68-.68,11.37-1.32,17.08-1.85,48.1-4.47,96.48-2.86,144.71-3.51,47.53-.64,94.9-4.38,141.48-14.19a537.09,537.09,0,0,0,129-44.66Q1291.21,7.6,1304.22,0"/></svg>