<svg xmlns="http://www.w3.org/2000/svg" xmlns:xlink="http://www.w3.org/1999/xlink" viewBox="0 0 1664.67 955.84"><defs><style>.cls-1{fill:none;}.cls-2{clip-path:url(#clip-path);}.cls-3{fill:#9d72be;}.cls-4{fill:#6f3094;}</style><clipPath id="clip-path" transform="translate(156.42 444.23)"><rect class="cls-1" width="1364" height="452"/></clipPath></defs><g id="Layer_2" data-name="Layer 2"><g id="Layer_1-2" data-name="Layer 1"><g class="cls-2"><path class="cls-3" d="M-142.88,114.14l32.5,309.44A98.78,98.78,0,0,0-2.69,511.14l1.85-.05,324.21-32.9a99.53,99.53,0,0,0,89.45-108.68l-.09-.91L380.22,59.15A99.52,99.52,0,0,0,271.55-30.3l-.92.1L-53.58,2.7A105.25,105.25,0,0,0-142.88,114.14ZM307.89,317.9a25.85,25.85,0,0,1,26.45,21.44h0a25.85,25.85,0,0,1-21.44,26.45h0L180.25,378.67a25.85,25.85,0,0,1-26.45-21.44h0a25.85,25.85,0,0,1,21.44-26.45h0ZM283,84a23.26,23.26,0,0,1,6.81,46L288,130,155.31,142.91a23.81,23.81,0,0,1-24.55-19.65l0-1.85a23.83,23.83,0,0,1,19.64-24.55Z" transform="translate(156.42 444.23)"/><path class="cls-3" d="M356.32,384.08c77.2,28.45,167.89,18.64,238-24.15,36.52-22.3,65.13-53.81,93.9-84.94,13.85-15,27.94-29.86,43.45-43.17,1.87-1.6,3.76-3.19,5.68-4.75,1-.8,6.58-5,2.72-2.2,4.54-3.35,9.11-6.63,13.84-9.69a243,243,0,0,1,26.3-14.76c2.26-1.09,4.54-2.16,6.83-3.19,1.15-.51,2.31-1,3.45-1.52-4.07,1.85-1,.43-.16.08,5.26-2.12,10.55-4.13,15.92-6,9.87-3.39,19.91-6.27,30.06-8.73s20.5-4.51,30.86-6.19q3.76-.62,7.55-1.16l3.79-.53c-4.73.65-1.28.17-.3.05,5.69-.68,11.38-1.32,17.08-1.85,48.1-4.47,96.48-2.86,144.71-3.51,47.72-.64,95.29-4.41,142.06-14.26a540,540,0,0,0,129.49-44.88C1385.33,71.94,1450.27,14.56,1491.88-57q7.38-12.72,13.69-26c5-10.61,3.29-24.78-8.07-30.79-10-5.29-25.38-3.27-30.79,8.08A360.88,360.88,0,0,1,1437.24-55q-4.08,5.85-8.36,11.54l-2.16,2.84c.47-.61,2.83-3.57.23-.34-1.49,1.85-3,3.71-4.47,5.55q-9.63,11.72-20.15,22.65a449.74,449.74,0,0,1-43.08,38.9c-2.56,2.06,2.94-2.2.31-.23-1,.71-1.9,1.44-2.85,2.16-1.91,1.43-3.83,2.85-5.76,4.24q-6.15,4.47-12.46,8.71-11.87,8-24.24,15.15-14.24,8.27-29,15.48-7.21,3.51-14.55,6.79c-2.44,1.09-4.9,2.15-7.35,3.21-3.23,1.4,3.09-1.22-.18.07-1.56.61-3.1,1.27-4.65,1.89a523.14,523.14,0,0,1-63,20.62A576.18,576.18,0,0,1,1131.41,117c-.67.1-4.88.66-2,.29s-1.34.16-2,.24c-2.66.34-5.33.65-8,1q-8.49.94-17,1.67c-11.94,1-23.9,1.66-35.86,2.09-91.18,3.26-185.35-6-273.18,24.46-20.49,7.1-40.58,16.06-59,27.56S699,199.88,683.45,215c-29.09,28.33-54.23,60.64-85.28,87q-2.82,2.4-5.72,4.73c-.54.43-3.65,2.89-1.34,1.08s-.72.54-1.27.95q-6,4.47-12.3,8.57a246.51,246.51,0,0,1-25.25,14.37,130.25,130.25,0,0,1-12,5.53c5-1.87-1.42.54-2.78,1.07-2.74,1.06-5.49,2.08-8.27,3a254.92,254.92,0,0,1-27.09,7.86q-6.88,1.6-13.83,2.83c-2.32.41-4.65.75-7,1.13-1.12.18-4.34.86.74-.08-1.44.27-2.93.36-4.39.52a258.68,258.68,0,0,1-29.05,1.61,256,256,0,0,1-29-1.67c-5.88-.67,2.29.42-1.88-.22-2.32-.36-4.64-.72-7-1.12q-7.8-1.38-15.52-3.25a244.47,244.47,0,0,1-27-8.27c-11.06-4.07-25.14,4.56-27.68,15.72-2.9,12.73,3.87,23.31,15.71,27.68Z" transform="translate(156.42 444.23)"/><path class="cls-3" d="M278.76,67.9c77.2,28.46,167.89,18.64,238-24.14,36.52-22.3,65.13-53.82,93.9-84.95,13.85-15,27.94-29.85,43.45-43.16q2.8-2.41,5.67-4.75c1-.81,6.59-5.05,2.73-2.2,4.54-3.35,9.1-6.63,13.84-9.7a243.7,243.7,0,0,1,26.3-14.76q3.39-1.63,6.83-3.18c1.14-.52,2.3-1,3.45-1.52-4.08,1.84-1,.42-.16.07,5.26-2.12,10.55-4.13,15.91-6,9.88-3.39,19.92-6.28,30.07-8.74s20.5-4.51,30.85-6.19q3.78-.6,7.56-1.16l3.79-.53c-4.73.65-1.29.18-.3.06,5.69-.68,11.37-1.33,17.08-1.86,48.1-4.46,96.48-2.85,144.71-3.5,47.72-.64,95.29-4.42,142.06-14.27A539.55,539.55,0,0,0,1234-207.43c73.81-36.81,138.75-94.18,180.35-165.78q7.39-12.72,13.7-26c5-10.6,3.29-24.78-8.07-30.78-10-5.3-25.38-3.27-30.79,8.07a360.07,360.07,0,0,1-29.48,50.8q-4.07,5.85-8.35,11.54l-2.16,2.83c.47-.61,2.83-3.57.23-.34-1.49,1.86-3,3.72-4.48,5.55q-9.63,11.71-20.14,22.66a451.07,451.07,0,0,1-43.08,38.9c-2.56,2.05,2.94-2.21.31-.24l-2.85,2.16q-2.87,2.14-5.76,4.25-6.15,4.45-12.46,8.7-11.87,8-24.24,15.16-14.24,8.25-29,15.47-7.22,3.52-14.54,6.79c-2.44,1.1-4.9,2.16-7.36,3.22-3.22,1.39,3.1-1.23-.17.06-1.56.61-3.1,1.27-4.65,1.89a522.76,522.76,0,0,1-63,20.63,577.56,577.56,0,0,1-64.12,12.78c-.66.09-4.87.66-2,.28s-1.34.16-2,.25c-2.67.33-5.33.65-8,.94q-8.49,1-17,1.67c-11.93,1-23.89,1.66-35.85,2.09-91.18,3.27-185.35-6-273.18,24.47-20.5,7.1-40.58,16.06-59,27.56s-35.35,25.58-50.91,40.74c-29.09,28.33-54.23,60.63-85.28,87-1.89,1.6-3.79,3.17-5.72,4.72-.54.44-3.65,2.89-1.34,1.09s-.72.53-1.27.94q-6,4.48-12.3,8.57a243.75,243.75,0,0,1-25.26,14.37,128.86,128.86,0,0,1-12,5.53c5-1.87-1.43.55-2.78,1.07-2.74,1.07-5.49,2.09-8.27,3.06A260.41,260.41,0,0,1,424.58,33c-4.59,1.06-9.2,2-13.83,2.82-2.32.41-4.65.76-7,1.13-1.12.19-4.34.87.73-.07-1.44.26-2.93.36-4.38.52A261.05,261.05,0,0,1,371.08,39a255.91,255.91,0,0,1-29-1.66c-5.88-.68,2.29.41-1.88-.23-2.32-.35-4.65-.71-7-1.12q-7.81-1.38-15.52-3.25a245.92,245.92,0,0,1-27-8.26c-11.07-4.08-25.14,4.55-27.68,15.71-2.9,12.73,3.87,23.32,15.71,27.68Z" transform="translate(156.42 444.23)"/><path class="cls-3" d="M328.76,156.07c82.36,18.39,169.64-1.09,235.82-53.45,31.23-24.71,56.22-56,83.95-84.34,6.92-7.07,14-14,21.42-20.52,3.59-3.18,7.28-6.23,11-9.26,3.21-2.63.31-.28-.31.19,1-.72,1.91-1.45,2.87-2.16q3.66-2.71,7.43-5.3a237.43,237.43,0,0,1,25.43-15.11c4.37-2.26,8.82-4.39,13.31-6.39l3.39-1.48c-4.21,1.85-1.15.49-.26.13,2.87-1.13,5.74-2.27,8.63-3.34a354.12,354.12,0,0,1,59.3-15.87q7.37-1.34,14.78-2.42c1.22-.18,2.49-.45,3.71-.53-.79.05-4.76.59-.41.06,2.78-.35,5.57-.69,8.36-1,10.5-1.17,21-2,31.58-2.63,47.54-2.76,95.18-.91,142.76-2.29,90.54-2.63,180.56-21,261.15-63.52,70.14-37,131.66-92.84,171.48-161.75q7.15-12.36,13.27-25.28c5-10.61,3.29-24.79-8.07-30.79-10-5.29-25.38-3.27-30.79,8.07a359.16,359.16,0,0,1-28.51,49.4q-3.67,5.34-7.54,10.55l-2.07,2.77c-.44.58-2.72,3.53-.87,1.16s-.46.56-.91,1.13q-1.34,1.69-2.7,3.38-8.73,10.75-18.21,20.88a410.55,410.55,0,0,1-41.93,38.92,59.23,59.23,0,0,1-5.44,4.32c4.15-2.59-1.06.79-2.35,1.75q-5.57,4.17-11.26,8.14-11.74,8.2-24,15.62a479.71,479.71,0,0,1-55.47,28.51c-4,1.74-.83.37,0,0-1.2.51-2.41,1-3.61,1.5-2.42,1-4.84,2-7.28,2.91q-7.74,3-15.59,5.8-14.79,5.22-29.86,9.55a565.71,565.71,0,0,1-62.18,14.09c-5.17.87-10.35,1.65-15.53,2.41-4.38.64-.71.11.15,0l-3.9.5c-2.92.37-5.85.72-8.77,1q-16.59,1.84-33.26,2.8c-90,5.31-181.51-5.18-269.65,18.45-41.75,11.19-80.35,30.16-113.52,58-30,25.17-54.45,56-82.08,83.64-7,7-14.22,13.79-21.76,20.21-1.83,1.56-3.67,3.09-5.54,4.6a29.89,29.89,0,0,1-2.82,2.25c.18-.11,3.08-2.3,1-.81-4,3-8.05,5.9-12.22,8.66a245.1,245.1,0,0,1-25.13,14.54c-3.93,2-7.93,3.81-12,5.61-3.86,1.74-.07.16.52-.2a24.71,24.71,0,0,1-3.26,1.33q-4.1,1.62-8.24,3.11a259.22,259.22,0,0,1-27,8q-6.87,1.65-13.8,2.92-3.47.64-6.95,1.18c-.87.14-1.75.25-2.62.4-2.86.47,4.29-.49-.13,0a267.43,267.43,0,0,1-58,.57c-1.52-.16-8.54-.86-2.76-.25-2.33-.25-4.65-.68-7-1.07-4.63-.78-9.23-1.7-13.81-2.72-11.46-2.56-24.89,3.46-27.68,15.71-2.6,11.41,3.43,24.93,15.71,27.68Z" transform="translate(156.42 444.23)"/><path class="cls-3" d="M317.54,226c77.2,28.46,167.89,18.64,238-24.15C592,179.55,620.64,148,649.41,116.9c13.85-15,27.94-29.85,43.45-43.16,1.87-1.61,3.76-3.2,5.68-4.75,1-.81,6.58-5.06,2.72-2.21,4.54-3.35,9.11-6.62,13.84-9.69a243,243,0,0,1,26.3-14.76c2.26-1.09,4.54-2.16,6.83-3.19,1.14-.51,2.3-1,3.45-1.52-4.08,1.85-1,.43-.16.08,5.26-2.12,10.55-4.13,15.92-6,9.87-3.4,19.91-6.28,30.06-8.74s20.5-4.51,30.86-6.19c2.51-.41,5-.79,7.55-1.16l3.79-.53c-4.73.65-1.28.17-.3.06,5.69-.68,11.38-1.33,17.08-1.86,48.1-4.47,96.48-2.86,144.71-3.5,47.72-.65,95.29-4.42,142.06-14.27a539.55,539.55,0,0,0,129.49-44.88c73.81-36.81,138.75-94.18,180.35-165.78q7.4-12.74,13.7-26c5-10.61,3.29-24.78-8.07-30.78-10-5.3-25.38-3.28-30.79,8.07a360.07,360.07,0,0,1-29.48,50.8q-4.07,5.85-8.35,11.54l-2.16,2.83c.47-.61,2.83-3.57.23-.34-1.49,1.85-3,3.72-4.48,5.55q-9.62,11.72-20.14,22.66a451.07,451.07,0,0,1-43.08,38.9c-2.56,2,2.94-2.21.31-.24l-2.85,2.16q-2.87,2.15-5.76,4.25-6.15,4.45-12.46,8.7-11.87,8-24.24,15.15-14.23,8.27-29,15.48-7.2,3.51-14.54,6.79c-2.44,1.09-4.9,2.15-7.36,3.22-3.22,1.39,3.1-1.23-.17.06-1.56.61-3.1,1.27-4.65,1.89a524.54,524.54,0,0,1-63,20.63A579.86,579.86,0,0,1,1092.62-41c-.66.09-4.87.66-2,.28s-1.34.16-2,.24c-2.66.34-5.33.65-8,1q-8.49,1-17,1.67c-11.93,1-23.89,1.66-35.85,2.09-91.18,3.26-185.35-6-273.18,24.46-20.5,7.11-40.58,16.07-59,27.57s-35.35,25.58-50.91,40.73c-29.09,28.33-54.23,60.64-85.28,87-1.89,1.6-3.79,3.17-5.72,4.72-.54.44-3.65,2.89-1.34,1.09s-.72.53-1.27.94q-6,4.47-12.3,8.57A245.59,245.59,0,0,1,513.5,173.6a128.86,128.86,0,0,1-12,5.53c5-1.87-1.43.55-2.78,1.07-2.74,1.07-5.49,2.09-8.27,3.06a260.41,260.41,0,0,1-27.09,7.86q-6.89,1.59-13.83,2.82c-2.32.41-4.65.75-7,1.13-1.12.18-4.34.87.73-.08-1.43.27-2.92.37-4.38.53a261.05,261.05,0,0,1-29.05,1.6,255.92,255.92,0,0,1-29-1.67c-5.88-.67,2.29.42-1.88-.22-2.32-.35-4.65-.71-7-1.12q-7.82-1.38-15.52-3.25a245.92,245.92,0,0,1-27-8.26c-11.07-4.08-25.14,4.55-27.68,15.71-2.9,12.73,3.87,23.31,15.71,27.68Z" transform="translate(156.42 444.23)"/><path class="cls-3" d="M336.93,305c77.2,28.46,167.89,18.64,238-24.14,36.52-22.3,65.13-53.81,93.9-84.95,13.85-15,27.94-29.85,43.45-43.16q2.81-2.42,5.68-4.75c1-.8,6.58-5.05,2.72-2.2,4.54-3.35,9.11-6.63,13.84-9.7a244.58,244.58,0,0,1,26.3-14.75q3.39-1.65,6.83-3.19c1.15-.52,2.3-1,3.45-1.52-4.07,1.84-1,.42-.16.07,5.26-2.11,10.55-4.13,15.92-6,9.87-3.39,19.91-6.27,30.06-8.73s20.5-4.52,30.86-6.19q3.76-.61,7.55-1.16c1.26-.19,2.53-.36,3.79-.54-4.73.65-1.28.18-.3.06,5.69-.68,11.38-1.33,17.08-1.86,48.1-4.46,96.48-2.85,144.71-3.5,47.72-.64,95.29-4.42,142.06-14.26A540,540,0,0,0,1292.13,29.7c73.81-36.81,138.75-94.18,180.35-165.78q7.39-12.72,13.7-26c5-10.6,3.29-24.78-8.07-30.78-10-5.3-25.38-3.27-30.79,8.07a359.51,359.51,0,0,1-29.48,50.8q-4.06,5.85-8.35,11.54l-2.16,2.84c.47-.62,2.83-3.58.23-.34-1.49,1.85-3,3.71-4.47,5.55q-9.63,11.7-20.15,22.65a451.07,451.07,0,0,1-43.08,38.9c-2.56,2.06,2.94-2.2.31-.24L1337.32-51c-1.91,1.44-3.83,2.85-5.76,4.25q-6.15,4.45-12.46,8.7-11.86,8-24.24,15.16-14.23,8.25-29,15.47-7.21,3.52-14.55,6.8c-2.44,1.09-4.9,2.15-7.35,3.21-3.23,1.4,3.09-1.23-.18.06-1.56.62-3.1,1.27-4.65,1.89a522.76,522.76,0,0,1-63,20.63A575.28,575.28,0,0,1,1112,38c-.66.09-4.87.66-2,.28l-2,.25q-4,.49-8,.95-8.49.95-17,1.66c-11.93,1-23.89,1.66-35.85,2.09C956,46.49,861.8,37.24,774,67.69c-20.5,7.1-40.58,16.06-59,27.56S679.62,120.83,664.06,136c-29.09,28.33-54.23,60.63-85.28,87-1.89,1.6-3.79,3.18-5.72,4.73-.54.43-3.65,2.88-1.34,1.08s-.72.53-1.27.94q-6,4.49-12.3,8.57a244.65,244.65,0,0,1-25.25,14.37c-3.92,1.93-7.91,4-12,5.54,5-1.88-1.43.54-2.78,1.07-2.74,1.06-5.49,2.08-8.27,3.05a259.7,259.7,0,0,1-27.09,7.86c-4.59,1.06-9.2,2-13.83,2.82-2.32.41-4.65.76-7,1.14-1.12.18-4.34.86.73-.08-1.43.26-2.92.36-4.38.52a261.05,261.05,0,0,1-29.05,1.6,255.91,255.91,0,0,1-29-1.66c-5.88-.68,2.29.41-1.88-.22-2.32-.36-4.64-.72-7-1.13q-7.81-1.36-15.52-3.24a246.64,246.64,0,0,1-27-8.27c-11.07-4.08-25.14,4.55-27.68,15.72-2.9,12.73,3.87,23.31,15.71,27.67Z" transform="translate(156.42 444.23)"/><path class="cls-4" d="M-156.16,100.6-123.65,410A98.78,98.78,0,0,0-16,497.6l1.85-.05L310.1,464.64A99.53,99.53,0,0,0,399.55,356c0-.3-.07-.6-.1-.91L367,45.61A99.53,99.53,0,0,0,258.27-43.84l-.91.09L-66.85-10.84A105.26,105.26,0,0,0-156.16,100.6ZM294.62,304.36a25.85,25.85,0,0,1,26.45,21.44h0a25.86,25.86,0,0,1-21.44,26.45h0L167,365.12a25.84,25.84,0,0,1-26.45-21.44h0A25.85,25.85,0,0,1,162,317.23h0ZM269.73,70.44a23.27,23.27,0,0,1,6.8,46l-1.84,0L142,129.36a23.81,23.81,0,0,1-24.55-19.65l-.06-1.84a23.81,23.81,0,0,1,19.65-24.55Z" transform="translate(156.42 444.23)"/><path class="cls-4" d="M343.62,368.46C420.31,396.73,510.3,387,579.93,344.53c36.36-22.2,64.83-53.62,93.46-84.61,13.86-15,27.94-29.85,43.45-43.16,1.88-1.61,3.77-3.2,5.68-4.75.61-.5,6.3-4.88,3.16-2.54,4.52-3.38,9.11-6.63,13.84-9.7A244.58,244.58,0,0,1,765.82,185q3.39-1.65,6.83-3.19c1.15-.52,2.3-1,3.45-1.52-3.21,1.43-.25.1.35-.15,5.26-2.12,10.56-4.13,15.92-6,9.87-3.39,19.92-6.27,30.06-8.73s20.5-4.52,30.86-6.19c2.52-.41,5-.8,7.56-1.16l3.78-.54c-3.73.51-.43.07.28,0,5.68-.68,11.37-1.33,17.08-1.86,48.1-4.47,96.48-2.86,144.71-3.5,47.53-.64,94.9-4.38,141.48-14.19a537.55,537.55,0,0,0,129-44.67c73.5-36.65,138.15-93.71,179.58-165q7.4-12.72,13.7-26c4.57-9.6,3-22.41-7.3-27.84-9.07-4.79-23-3-27.84,7.3a360.63,360.63,0,0,1-29.48,50.8q-4.07,5.85-8.36,11.54l-2.15,2.83c.48-.63,2.32-2.93-.11.1-1.49,1.85-3,3.71-4.48,5.55q-9.62,11.71-20.14,22.65a451.07,451.07,0,0,1-43.08,38.9c-2.44,2,2.38-1.78-.12.1-1,.72-1.9,1.45-2.86,2.16q-2.85,2.14-5.75,4.25-6.16,4.46-12.47,8.7-11.86,8-24.24,15.16-14.24,8.25-29,15.47-7.21,3.52-14.55,6.79c-2.44,1.1-4.89,2.16-7.35,3.22-3.11,1.33,2.46-1-.69.28-1.56.61-3.1,1.27-4.65,1.89a524.54,524.54,0,0,1-63,20.63,577.52,577.52,0,0,1-64.12,12.77c-.49.08-4.63.64-2.28.33s-1.79.22-2.28.28c-2.67.33-5.33.65-8,1q-8.49.94-17,1.67c-11.93,1-23.89,1.66-35.86,2.08-91,3.26-185-6-272.6,24.39-20.33,7.05-40.22,15.94-58.49,27.35S687.13,188,671.7,203c-29.09,28.33-54.23,60.63-85.28,87-1.89,1.6-3.79,3.18-5.72,4.73-.42.34-3.47,2.74-1.56,1.25s-1,.79-1.48,1.11q-6,4.49-12.3,8.57A245.85,245.85,0,0,1,540.1,320c-4,1.95-8,3.77-12,5.53,3.8-1.65-2.12.83-3.3,1.29-2.74,1.07-5.49,2.08-8.27,3.06a260.41,260.41,0,0,1-27.09,7.86q-6.88,1.59-13.83,2.82c-2.32.41-4.65.75-7,1.13-.86.14-4,.51.16,0-1.46.18-2.92.36-4.38.52a263.49,263.49,0,0,1-29.05,1.61,255.92,255.92,0,0,1-29-1.67c-.63-.07-4.35-.52-1.67-.18,2.48.31-.44-.07-.79-.12-2.32-.35-4.64-.71-6.95-1.12q-7.81-1.38-15.52-3.25a246.09,246.09,0,0,1-27-8.26c-10-3.69-22.73,4.11-25,14.21-2.62,11.51,3.5,21.08,14.21,25Z" transform="translate(156.42 444.23)"/><path class="cls-4" d="M266.06,52.28c76.69,28.27,166.68,18.58,236.31-23.93,36.36-22.2,64.82-53.61,93.46-84.61,13.86-15,27.94-29.85,43.45-43.16q2.81-2.42,5.68-4.75c.61-.5,6.29-4.88,3.16-2.54,4.52-3.37,9.11-6.63,13.84-9.69a242,242,0,0,1,26.3-14.76c2.26-1.09,4.54-2.16,6.83-3.19l3.45-1.52c-3.21,1.43-.25.1.35-.14,5.26-2.12,10.56-4.13,15.92-6,9.87-3.39,19.92-6.28,30.06-8.74s20.5-4.51,30.86-6.19q3.76-.6,7.56-1.16l3.78-.53c-3.73.5-.43.07.28,0,5.68-.68,11.37-1.32,17.07-1.85,48.11-4.47,96.49-2.86,144.72-3.51,47.53-.64,94.9-4.38,141.48-14.19a537.09,537.09,0,0,0,129-44.66c73.5-36.66,138.15-93.71,179.58-165q7.39-12.74,13.7-26c4.56-9.59,3-22.41-7.3-27.84-9.07-4.79-23-3-27.84,7.3a360.48,360.48,0,0,1-29.48,50.8q-4.07,5.85-8.36,11.54c-.71.95-1.43,1.9-2.16,2.84.49-.64,2.33-2.94-.1.09-1.49,1.86-3,3.72-4.48,5.55q-9.63,11.71-20.14,22.66a453.64,453.64,0,0,1-43.08,38.9c-2.44,2,2.38-1.79-.13.1-1,.71-1.89,1.44-2.85,2.16q-2.87,2.14-5.76,4.24-6.15,4.47-12.46,8.7-11.87,8-24.24,15.16-14.24,8.26-29,15.47-7.21,3.52-14.55,6.8-3.66,1.64-7.35,3.21c-3.12,1.34,2.46-1-.69.28-1.56.62-3.1,1.27-4.65,1.89a523.34,523.34,0,0,1-63,20.63,577.56,577.56,0,0,1-64.12,12.78c-.5.07-4.63.63-2.28.32s-1.79.22-2.29.28c-2.66.34-5.32.65-8,.95q-8.5,1-17,1.67c-11.93,1-23.89,1.66-35.86,2.09-91,3.26-185-6-272.6,24.39-20.33,7-40.23,15.94-58.49,27.34s-35,25.38-50.47,40.4c-29.09,28.33-54.23,60.64-85.28,87-1.89,1.6-3.79,3.17-5.72,4.72-.43.34-3.48,2.75-1.56,1.25s-1.06.79-1.49,1.12q-6,4.47-12.3,8.56A242.82,242.82,0,0,1,462.54,3.82c-4,1.95-8,3.78-12,5.54,3.8-1.66-2.13.83-3.3,1.29q-4.11,1.59-8.27,3a260.41,260.41,0,0,1-27.09,7.86c-4.59,1.06-9.2,2-13.84,2.82-2.31.41-4.64.76-7,1.14-.86.13-4,.5.16,0-1.46.18-2.92.37-4.38.53a261.23,261.23,0,0,1-29.06,1.6,258.2,258.2,0,0,1-29-1.66c-.63-.08-4.35-.53-1.67-.19,2.48.32-.44-.06-.79-.11-2.32-.36-4.64-.72-7-1.13q-7.8-1.36-15.52-3.24a246.64,246.64,0,0,1-27-8.27c-10-3.69-22.73,4.12-25,14.21-2.62,11.51,3.5,21.08,14.21,25Z" transform="translate(156.42 444.23)"/><path class="cls-4" d="M316.06,140.45c81.54,18.2,168.18-1,233.72-52.9,31.24-24.71,56.22-56,84-84.34,6.91-7.07,14-14,21.42-20.52,3.59-3.17,7.26-6.23,11-9.26,3-2.46.77-.63.13-.14,1-.73,1.91-1.45,2.87-2.17q3.66-2.72,7.42-5.29A238.64,238.64,0,0,1,702-49.29c4.37-2.25,8.82-4.38,13.31-6.38l3.39-1.48c-3.34,1.44-.39.17.26-.09,2.86-1.14,5.73-2.27,8.62-3.34a354.12,354.12,0,0,1,59.3-15.87q7.38-1.33,14.78-2.42l3.71-.54c-.83.12-3.89.49.16,0,2.79-.35,5.58-.69,8.37-1,10.5-1.17,21-2,31.57-2.62,47.55-2.77,95.19-.92,142.76-2.3,90.16-2.62,179.82-20.92,260.07-63.22,69.83-36.81,131.06-92.38,170.71-161,4.76-8.24,9.17-16.69,13.27-25.28,4.56-9.6,3-22.42-7.3-27.84-9.07-4.79-23-3-27.84,7.3A360.08,360.08,0,0,1,1368.62-306q-3.67,5.36-7.54,10.56l-2.08,2.76c-.35.47-2.58,3.36-1,1.38s-.72.89-1.08,1.35q-1.34,1.69-2.7,3.37-8.73,10.77-18.21,20.89a411.68,411.68,0,0,1-41.93,38.92c-1.8,1.45-3.62,2.89-5.44,4.32,3.32-2.62-2,1.49-2.79,2.09q-5.55,4.16-11.26,8.14-11.73,8.2-24,15.61a475.06,475.06,0,0,1-55.47,28.52c-3.71,1.62-1.34.58-.54.24-1.2.51-2.41,1-3.62,1.5-2.41,1-4.84,2-7.27,2.91q-7.74,3-15.6,5.8-14.77,5.22-29.86,9.55A565,565,0,0,1,1076-134c-5.17.87-10.35,1.66-15.53,2.41-4.1.6-1.3.19-.43.07l-3.89.5c-2.92.37-5.85.71-8.78,1-11.06,1.23-22.15,2.14-33.25,2.8-89.75,5.3-181.14-5.21-269.08,18.37C703.7-97.69,665.37-78.93,632.5-51.36c-30,25.17-54.45,56-82.08,83.64-7,7-14.22,13.79-21.76,20.21-1.83,1.56-3.67,3.09-5.54,4.6-.93.75-1.88,1.5-2.82,2.24.25-.19,2.45-1.82.6-.46-4,3-8.06,5.89-12.23,8.65a243.13,243.13,0,0,1-25.12,14.54c-3.94,2-7.93,3.82-11.95,5.62-3.57,1.59-.73.31,0,0-1.09.44-2.17.89-3.27,1.32-2.72,1.08-5.47,2.12-8.23,3.11a262.46,262.46,0,0,1-27,8.05q-6.87,1.63-13.8,2.91-3.46.64-7,1.18c-.87.14-1.74.25-2.61.4-2.5.41,3.3-.37-.71.09a267.43,267.43,0,0,1-58,.57c-1.3-.14-7.86-1-3.33-.33-2.32-.33-4.64-.68-7-1.07-4.63-.78-9.23-1.7-13.81-2.72-10.36-2.32-22.51,3.13-25,14.21-2.35,10.31,3.1,22.55,14.21,25Z" transform="translate(156.42 444.23)"/><path class="cls-4" d="M304.84,210.37c76.69,28.27,166.68,18.58,236.31-23.93,36.36-22.2,64.82-53.61,93.46-84.61,13.86-15,27.94-29.85,43.45-43.16q2.82-2.41,5.68-4.75c.61-.5,6.29-4.88,3.16-2.54,4.52-3.37,9.11-6.63,13.84-9.69A242,242,0,0,1,727,26.93q3.39-1.65,6.83-3.19l3.45-1.52c-3.21,1.43-.25.1.35-.14,5.26-2.12,10.56-4.13,15.92-6,9.87-3.39,19.92-6.27,30.06-8.73s20.5-4.51,30.86-6.19c2.52-.41,5-.79,7.56-1.16l3.78-.53c-3.73.5-.43.06.28,0,5.68-.68,11.37-1.33,17.08-1.86,48.1-4.46,96.48-2.85,144.71-3.5,47.53-.64,94.9-4.38,141.48-14.19a537.55,537.55,0,0,0,129-44.67c73.5-36.65,138.15-93.7,179.58-165q7.39-12.72,13.7-26c4.57-9.59,3-22.41-7.3-27.84-9.07-4.79-22.95-3-27.84,7.3a360.07,360.07,0,0,1-29.48,50.8q-4.07,5.85-8.36,11.54c-.71.95-1.43,1.89-2.16,2.83.49-.63,2.33-2.93-.1.1-1.49,1.85-3,3.71-4.48,5.55q-9.63,11.72-20.14,22.65a451.07,451.07,0,0,1-43.08,38.9c-2.44,2,2.38-1.78-.12.11-1,.71-1.9,1.44-2.86,2.15-1.9,1.44-3.82,2.85-5.76,4.25q-6.15,4.45-12.46,8.7-11.87,8-24.24,15.16-14.23,8.25-29,15.47-7.21,3.52-14.55,6.8-3.66,1.64-7.35,3.21c-3.12,1.34,2.46-1-.69.28-1.56.61-3.1,1.27-4.65,1.89a522.76,522.76,0,0,1-63,20.63,577.56,577.56,0,0,1-64.12,12.78c-.49.07-4.63.63-2.28.32s-1.79.22-2.29.28c-2.66.34-5.32.65-8,1q-8.5.94-17,1.67c-11.93,1-23.89,1.66-35.86,2.09-91,3.25-185-6-272.6,24.38-20.33,7-40.22,16-58.49,27.35s-35,25.37-50.47,40.4c-29.09,28.33-54.23,60.64-85.28,87-1.89,1.6-3.79,3.18-5.72,4.73-.42.34-3.47,2.74-1.56,1.25s-1.05.79-1.49,1.11c-4,3-8.11,5.85-12.29,8.57a245.85,245.85,0,0,1-25.26,14.37c-3.95,2-8,3.78-12,5.54,3.8-1.66-2.13.83-3.3,1.28-2.74,1.07-5.49,2.09-8.27,3.06a260.41,260.41,0,0,1-27.09,7.86c-4.59,1.06-9.2,2-13.83,2.82-2.32.41-4.65.76-7,1.13-.86.14-4,.51.16,0l-4.38.53a261.23,261.23,0,0,1-29.06,1.6,255.87,255.87,0,0,1-29-1.67c-.63-.07-4.35-.52-1.67-.18,2.48.32-.44-.06-.79-.12-2.32-.35-4.64-.71-7-1.12q-7.8-1.38-15.51-3.25a246.09,246.09,0,0,1-27-8.26c-10-3.69-22.73,4.12-25,14.21-2.62,11.51,3.5,21.08,14.21,25Z" transform="translate(156.42 444.23)"/><path class="cls-4" d="M324.23,289.41c76.69,28.27,166.68,18.59,236.31-23.93,36.36-22.19,64.83-53.61,93.46-84.6,13.86-15,27.94-29.86,43.45-43.17,1.88-1.6,3.77-3.19,5.68-4.75.61-.5,6.29-4.88,3.16-2.54,4.52-3.37,9.11-6.63,13.84-9.69A243,243,0,0,1,746.43,106c2.26-1.09,4.54-2.16,6.83-3.19l3.45-1.52c-3.21,1.43-.25.1.35-.14,5.26-2.12,10.56-4.13,15.92-6,9.87-3.39,19.92-6.28,30.06-8.73s20.5-4.52,30.86-6.2c2.52-.4,5-.79,7.56-1.16l3.78-.53c-3.73.5-.43.07.28,0,5.68-.68,11.37-1.32,17.08-1.85,48.1-4.47,96.48-2.86,144.71-3.51,47.53-.64,94.9-4.38,141.48-14.19a537.09,537.09,0,0,0,129-44.66c73.5-36.66,138.15-93.71,179.58-165q7.39-12.72,13.7-26c4.57-9.59,3-22.41-7.3-27.84-9.07-4.79-23-3-27.84,7.3a359.51,359.51,0,0,1-29.48,50.8q-4.07,5.85-8.36,11.54c-.71.95-1.43,1.9-2.15,2.84.48-.64,2.32-2.94-.11.09-1.49,1.86-3,3.72-4.48,5.55q-9.61,11.71-20.14,22.66a452.42,452.42,0,0,1-43.08,38.9c-2.44,2,2.38-1.78-.12.1l-2.86,2.16q-2.85,2.14-5.76,4.25-6.15,4.45-12.46,8.7-11.87,8-24.24,15.15-14.24,8.26-29,15.48-7.22,3.51-14.55,6.79-3.66,1.63-7.35,3.21c-3.12,1.34,2.46-1-.69.28-1.56.62-3.1,1.27-4.65,1.89a522.76,522.76,0,0,1-63,20.63,575.28,575.28,0,0,1-64.12,12.78c-.49.07-4.63.63-2.28.32l-2.28.29c-2.67.33-5.33.65-8,.94q-8.49,1-17,1.67c-11.93,1-23.89,1.66-35.86,2.09-91,3.26-184.95-6-272.6,24.39-20.33,7-40.22,15.94-58.49,27.34s-35,25.38-50.47,40.4c-29.09,28.33-54.23,60.64-85.28,87-1.89,1.6-3.79,3.17-5.72,4.72-.42.34-3.47,2.75-1.56,1.26s-1,.79-1.49,1.11q-6,4.47-12.29,8.57A247.73,247.73,0,0,1,520.71,241c-4,1.95-8,3.77-12,5.53,3.8-1.66-2.12.83-3.3,1.29-2.74,1.06-5.49,2.08-8.27,3.05a258,258,0,0,1-27.09,7.86q-6.89,1.6-13.83,2.83c-2.32.4-4.65.75-7,1.13-.86.14-4,.5.16,0-1.46.17-2.92.36-4.38.52a261.19,261.19,0,0,1-29,1.6,255.91,255.91,0,0,1-29-1.66c-.63-.08-4.35-.52-1.67-.19,2.48.32-.44-.06-.79-.11-2.32-.36-4.64-.72-6.95-1.13q-7.82-1.37-15.52-3.24a246.14,246.14,0,0,1-27-8.27c-10-3.69-22.73,4.12-25,14.21-2.62,11.51,3.5,21.08,14.21,25Z" transform="translate(156.42 444.23)"/></g></g></g></svg>