<svg xmlns="http://www.w3.org/2000/svg" xmlns:xlink="http://www.w3.org/1999/xlink" viewBox="0 0 484.74 723.94"><defs><style>.cls-1{fill:#e0bd2b;}.cls-2{fill:none;}.cls-3{fill:#6f3096;}.cls-4{fill:#efd122;}.cls-5{clip-path:url(#clip-path);}.cls-6{clip-path:url(#clip-path-2);}.cls-7{fill:#82770d;opacity:0.36;}.cls-8{fill:#fff7bd;opacity:0.75;}.cls-9{clip-path:url(#clip-path-3);}.cls-10{fill:#ffef9f;}.cls-11{fill:#fff2b0;}.cls-12{fill:#fff;}</style><clipPath id="clip-path"><circle class="cls-1" cx="236.5" cy="508.59" r="111.8"/></clipPath><clipPath id="clip-path-2"><circle class="cls-2" cx="236.5" cy="508.59" r="111.8"/></clipPath><clipPath id="clip-path-3"><polygon class="cls-2" points="283.95 426.39 189.04 426.39 141.59 508.59 189.04 590.78 283.95 590.78 331.41 508.59 283.95 426.39"/></clipPath></defs><g id="Layer_2" data-name="Layer 2"><g id="Layer_1-2" data-name="Layer 1"><path class="cls-3" d="M339.12,497.31h30.71m-181.2,0h32.24v99.52a32.53,32.53,0,1,0,43,0V497.31h32.25m-182,0h31.48m267.19-2.72a94.46,94.46,0,0,0,71.92-91.72V94.44A94.44,94.44,0,0,0,390.3,0H94.44A94.44,94.44,0,0,0,0,94.44V402.87a94.48,94.48,0,0,0,71.15,91.54m59.65-69.84a21.5,21.5,0,0,1-21.5-21.5V275a21.51,21.51,0,0,1,21.5-21.5h0A21.51,21.51,0,0,1,152.3,275V403.07a21.5,21.5,0,0,1-21.5,21.5Zm223.14,0a21.49,21.49,0,0,1-21.49-21.5V275a21.5,21.5,0,1,1,43,0V403.07A21.49,21.49,0,0,1,353.94,424.57Z"/><circle class="cls-4" cx="236.5" cy="508.59" r="155.14" transform="translate(-290.36 316.19) rotate(-45)"/><circle class="cls-1" cx="236.5" cy="508.59" r="111.8"/><g class="cls-5"><path class="cls-1" d="M231,398.79c22.38.36,39.07,9.5,48.58,14.71C324.68,438.24,343,486.23,345,509.76c1.38,16.1,2.06,24.14-1.79,32.09-2,4.13-5.49,9.06-4.45,15.59.83,5.24,4.27,9.59,2.67,11.15-1.06,1-3.57.07-3.56,0s4.56,1.41,8.46-.45c1.8-.86,2.95-2.18,5.35-6.24a80,80,0,0,0,7.58-15.6,107.64,107.64,0,0,0,3.12-10.69c2.34-10.55,3.49-43.32-18.27-84.68-6.08-11.54-9.49-18-16.49-25.84-12.26-13.69-25.72-19.86-52.14-31.64-33.67-15-42.8-13.35-46.35-12.48-9.23,2.26-19.86,8.75-24.51,11.58-5.8,3.54-12.25,7.48-11.59,9.36C194.13,404.89,211.55,398.49,231,398.79Z"/></g><g class="cls-6"><path class="cls-7" d="M201.27,402.45c59-10.9,100.93,18.64,115.8,37.57,33.09,42.11,31.06,76.93,22.17,106.73C334.71,562,329,570,330,576.5c.83,5.23,13.07-9.47,11.47-7.91-1.06,1-3.57.07-3.56,0s4.56,1.41,8.46-.45c1.8-.86,2.95-2.18,5.35-6.24a80,80,0,0,0,7.58-15.6,107.64,107.64,0,0,0,3.12-10.69c2.34-10.55,3.49-43.32-18.27-84.68-6.08-11.54-9.49-18-16.49-25.84-12.26-13.69-25.72-19.86-52.14-31.64-33.67-15-42.8-13.35-46.35-12.48-9.23,2.26-19.86,8.75-24.51,11.58-5.8,3.54-12.25,7.48-11.59,9.36"/><path class="cls-8" d="M267.87,616.79c-59.23,9.42-100.43-21.16-114.82-40.46-32-42.93-29.12-77.68-19.49-107.25,4.91-15.09,10.87-22.95,10-29.51-.7-5.25-13.3,9.13-11.67,7.62,1.08-1,3.57,0,3.56.09s-4.52-1.53-8.47.23c-1.81.81-3,2.11-5.5,6.11a79.37,79.37,0,0,0-8,15.4,107.75,107.75,0,0,0-3.39,10.61c-2.6,10.49-4.57,43.22,16.15,85.11,5.78,11.69,9,18.25,15.83,26.25,11.91,14,25.21,20.5,51.34,32.94,33.28,15.85,42.44,14.42,46,13.64,9.28-2,20.07-8.25,24.79-11,5.88-3.4,12.44-7.17,11.82-9.07"/></g><g class="cls-9"><path class="cls-10" d="M148.79,440.28l4.48,2.78,12.2,7.55,18,11.12,22,13.61,24.1,14.92,24.32,15.06,22.59,14,19.18,11.87,13.79,8.53c2.17,1.35,4.32,2.75,6.52,4l.28.18a4.44,4.44,0,0,0,6-1.58,4.48,4.48,0,0,0-1.57-6l-4.49-2.77L304,526,286,514.91l-22-13.62-24.1-14.92-24.33-15.06-22.59-14-19.17-11.87L160,436.92c-2.18-1.34-4.32-2.74-6.53-4l-.28-.17a4.38,4.38,0,0,0-4.42,7.57Z"/><path class="cls-10" d="M148.79,478.92l4.48,2.78,12.2,7.55,18,11.11,22,13.62,24.1,14.92L253.85,544l22.59,14,19.18,11.87,13.79,8.54c2.17,1.35,4.32,2.74,6.52,4l.28.17a4.43,4.43,0,0,0,6-1.57,4.48,4.48,0,0,0-1.57-6l-4.49-2.78L304,564.66,286,553.55l-22-13.62L239.9,525,215.57,510,193,496,173.81,484.1,160,475.56c-2.18-1.35-4.32-2.74-6.53-4a2.61,2.61,0,0,0-.28-.17,4.41,4.41,0,0,0-6,1.57,4.46,4.46,0,0,0,1.57,6Z"/><path class="cls-10" d="M316.21,434.86l-4.48,2.77-12.2,7.56-18,11.11-22,13.62-24.1,14.92L211.15,499.9l-22.59,14-19.18,11.87-13.79,8.54c-2.17,1.35-4.37,2.66-6.52,4l-.28.17a4.38,4.38,0,0,0,4.42,7.57l4.49-2.77,12.2-7.55,17.95-11.12,22-13.62L234,496.09,258.28,481l22.59-14L300,455.18l13.79-8.54c2.18-1.34,4.37-2.66,6.53-4l.28-.17a4.39,4.39,0,1,0-4.43-7.57Z"/><path class="cls-10" d="M316.21,473.5l-4.48,2.77-12.2,7.55-18,11.12-22,13.62-24.1,14.92-24.32,15.06-22.59,14-19.18,11.87-13.79,8.54c-2.17,1.34-4.37,2.66-6.52,4a2.61,2.61,0,0,0-.28.17,4.38,4.38,0,0,0,4.42,7.57l4.49-2.78,12.2-7.55,17.95-11.11,22-13.62L234,534.73l24.33-15.06,22.59-14L300,493.82l13.79-8.54c2.18-1.35,4.37-2.66,6.53-4l.28-.17a4.39,4.39,0,1,0-4.43-7.57Z"/><path class="cls-10" d="M232.11,426.39V598.91c0,2.33-.05,4.67,0,7v.31a4.39,4.39,0,0,0,8.77,0V433.7c0-2.33.05-4.67,0-7v-.31a4.39,4.39,0,0,0-8.77,0Z"/></g><path class="cls-11" d="M272.42,379.67c2.92.75,5.82,1.62,8.68,2.6,1.72.59,3.42,1.21,5.1,1.88l1.35.54.76.31.14.06c1,.43,2,.87,3,1.33a111.08,111.08,0,0,1,45.8,38.55,117,117,0,0,1,6.92,11.59q1.38,2.64,2.63,5.36c.4.85.78,1.71,1.15,2.58l.24.56c-.22-.52,0,0,0,.06.2.5.41,1,.61,1.51a117.64,117.64,0,0,1,5.54,17.68,3.27,3.27,0,1,0,6.31-1.74,121.68,121.68,0,0,0-16.09-38.35,118.28,118.28,0,0,0-47.08-42.14,122.23,122.23,0,0,0-23.34-8.69c-4.08-1.06-5.82,5.25-1.74,6.31Z"/><path class="cls-3" d="M154.17,697.25c8.77.74,32,5.21,38-29.2.56-3.23,1.29-6.25,1.89-8.84.14-.6.3-1.16.32-1.27l-.36-.1a149.27,149.27,0,0,1-20.17-7.29c-5.1-2.29,0,22.74,0,21.17V624.94q.76-.68,1.5-1.41a32.53,32.53,0,1,0-46,0c.49.49,1,1,1.51,1.41v41c0,5.08-.68,27.9,23.34,31.35"/><polygon class="cls-12" points="174.47 650.6 173.83 670.09 173.81 650.59 174.47 650.6"/><path class="cls-3" d="M296.68,701.63c24-3.46,23.34-26.27,23.34-31.36V635.5c.51-.46,1-.92,1.51-1.41a32.54,32.54,0,1,0-46,0c.49.49,1,.95,1.5,1.41v40.6c0,1.56,4.84-19-.26-17.64a161.15,161.15,0,0,1-19.49,3.89l-.77.1c0,.2.68,2.57,1,3.81.44,2,.67,2.93,1.23,6.16,6,34.41,29.21,29.94,38,29.21"/><polygon class="cls-12" points="270.91 704.43 270.9 723.94 270.25 704.44 270.91 704.43"/><path class="cls-12" d="M277.09,658.4q.14,4.07.09,8.13c0,1.35,0,2.7,0,4.06s-.06,2.7-.16,4.06c-.09-1.36-.1-2.71-.16-4.06s0-2.71,0-4.06q0-4.06.1-8.13Z"/></g><g id="Layer_4" data-name="Layer 4"><path class="cls-3" d="M38.59,425.19v85.1A43.43,43.43,0,0,0,82,553.4h25.2a32.53,32.53,0,1,0,.81-43H98.24a16.66,16.66,0,0,1-16.66-16.66V422.29"/><path class="cls-3" d="M389.78,472.93v31.46a16.66,16.66,0,0,1-16.66,16.66H363.4a32.53,32.53,0,1,0,.81,43h25.21a43.39,43.39,0,0,0,43.36-43.1V475.83"/></g></g></svg>