<?xml version="1.0" encoding="utf-8"?>
<!-- Generator: Adobe Illustrator 25.2.3, SVG Export Plug-In . SVG Version: 6.00 Build 0)  -->
<svg version="1.1" id="Layer_1" xmlns="http://www.w3.org/2000/svg" xmlns:xlink="http://www.w3.org/1999/xlink" x="0px" y="0px"
	 viewBox="0 0 595.28 841.89" style="enable-background:new 0 0 595.28 841.89;" xml:space="preserve">
<style type="text/css">
	.st0{fill:#EFD122;}
	.st1{clip-path:url(#SVGID_2_);fill:#E0BD2B;}
	.st2{opacity:0.36;clip-path:url(#SVGID_4_);fill:#82770D;}
	.st3{opacity:0.75;clip-path:url(#SVGID_4_);fill:#FFF7BD;}
	.st4{clip-path:url(#SVGID_6_);}
	.st5{fill:#FFEF9F;}
	.st6{fill:#FFF2B0;}
</style>
<g>
	
		<ellipse transform="matrix(0.7071 -0.7071 0.7071 0.7071 -206.6173 332.1549)" class="st0" cx="297.64" cy="415.49" rx="155.14" ry="155.14"/>
	<g>
		<defs>
			<circle id="SVGID_1_" cx="297.64" cy="415.49" r="111.8"/>
		</defs>
		<use xlink:href="#SVGID_1_"  style="overflow:visible;fill:#E0BD2B;"/>
		<clipPath id="SVGID_2_">
			<use xlink:href="#SVGID_1_"  style="overflow:visible;"/>
		</clipPath>
		<path class="st1" d="M292.09,305.69c22.37,0.35,39.07,9.5,48.58,14.71c45.15,24.74,63.5,72.73,65.51,96.26
			c1.38,16.09,2.07,24.14-1.78,32.09c-2,4.13-5.5,9.06-4.46,15.6c0.83,5.23,4.27,9.59,2.67,11.14c-1.06,1.03-3.57,0.08-3.57,0
			c0.01-0.1,4.56,1.42,8.47-0.45c1.79-0.86,2.94-2.18,5.35-6.24c2.74-4.62,5.1-8.66,7.58-15.6c0,0,1.98-5.55,3.12-10.7
			c2.34-10.55,3.49-43.32-18.27-84.67c-6.08-11.55-9.48-18.02-16.49-25.85c-12.25-13.69-25.72-19.86-52.14-31.64
			c-33.67-15.01-42.79-13.35-46.35-12.48c-9.23,2.26-19.86,8.75-24.51,11.59c-5.8,3.54-12.25,7.48-11.59,9.36
			C255.27,311.79,272.69,305.39,292.09,305.69z"/>
	</g>
	<g>
		<defs>
			<circle id="SVGID_3_" cx="297.64" cy="415.49" r="111.8"/>
		</defs>
		<clipPath id="SVGID_4_">
			<use xlink:href="#SVGID_3_"  style="overflow:visible;"/>
		</clipPath>
		<path class="st2" d="M262.42,309.35c58.98-10.9,100.93,18.64,115.8,37.57c33.09,42.11,31.05,76.93,22.17,106.73
			c-4.53,15.21-10.29,23.21-9.25,29.75c0.83,5.23,13.07-9.46,11.48-7.91c-1.06,1.03-3.57,0.08-3.57,0c0.01-0.1,4.56,1.42,8.47-0.45
			c1.79-0.86,2.94-2.18,5.35-6.24c2.74-4.62,5.1-8.66,7.58-15.6c0,0,1.98-5.55,3.12-10.7c2.34-10.55,3.49-43.32-18.27-84.67
			c-6.08-11.55-9.48-18.02-16.49-25.85c-12.25-13.69-25.72-19.86-52.14-31.64c-33.67-15.01-42.79-13.35-46.35-12.48
			c-9.23,2.26-19.86,8.75-24.51,11.59c-5.8,3.54-12.25,7.48-11.59,9.36"/>
		<path class="st3" d="M329.01,523.69c-59.23,9.42-100.43-21.16-114.82-40.46c-32.02-42.93-29.12-77.68-19.49-107.26
			c4.91-15.09,10.87-22.95,9.99-29.51c-0.7-5.25-13.3,9.13-11.67,7.62c1.09-1.01,3.57,0.01,3.56,0.09c-0.01,0.1-4.52-1.53-8.48,0.23
			c-1.81,0.81-3,2.11-5.5,6.1c-2.85,4.55-5.31,8.53-7.96,15.4c0,0-2.11,5.5-3.39,10.61c-2.61,10.48-4.57,43.22,16.14,85.1
			c5.78,11.69,9.03,18.25,15.84,26.25c11.91,13.99,25.21,20.5,51.33,32.94c33.28,15.85,42.44,14.42,46.02,13.64
			c9.28-2.03,20.07-8.25,24.79-10.97c5.89-3.39,12.44-7.17,11.82-9.07"/>
	</g>
	<g>
		<defs>
			<polygon id="SVGID_5_" points="297.64,329.58 297.64,329.58 203.93,415.49 297.64,501.4 297.64,501.4 391.34,415.49 			"/>
		</defs>
		<clipPath id="SVGID_6_">
			<use xlink:href="#SVGID_5_"  style="overflow:visible;"/>
		</clipPath>
		<g class="st4">
			<g>
				<g>
					<path class="st5" d="M200.06,322.74c1.66,1.25,3.32,2.5,4.98,3.75c4.52,3.4,9.04,6.81,13.55,10.21
						c6.65,5.01,13.31,10.03,19.96,15.04c8.11,6.11,16.23,12.23,24.34,18.34c8.92,6.72,17.84,13.44,26.76,20.17
						c9,6.78,18.01,13.57,27.01,20.35c8.36,6.3,16.73,12.61,25.09,18.91c7.07,5.33,14.14,10.66,21.21,15.99
						c5.1,3.85,10.21,7.69,15.31,11.54c2.41,1.82,4.78,3.71,7.24,5.46c0.1,0.07,0.2,0.15,0.31,0.23c2.25,1.7,6.1,0.43,7.34-1.93
						c1.49-2.82,0.48-5.53-1.93-7.34c-1.66-1.25-3.32-2.5-4.98-3.75c-4.52-3.4-9.04-6.81-13.55-10.21
						c-6.65-5.01-13.31-10.03-19.96-15.04c-8.11-6.11-16.23-12.23-24.34-18.34c-8.92-6.72-17.84-13.44-26.76-20.17
						c-9-6.78-18.01-13.57-27.01-20.35c-8.36-6.3-16.73-12.61-25.09-18.91c-7.07-5.33-14.14-10.66-21.21-15.99
						c-5.1-3.85-10.21-7.69-15.31-11.54c-2.41-1.82-4.78-3.71-7.24-5.46c-0.1-0.07-0.2-0.15-0.31-0.23c-2.25-1.7-6.1-0.43-7.34,1.93
						C196.65,318.22,197.66,320.93,200.06,322.74L200.06,322.74z"/>
				</g>
			</g>
			<g>
				<g>
					<path class="st5" d="M200.06,374.93c1.66,1.25,3.32,2.5,4.98,3.75c4.52,3.4,9.04,6.81,13.55,10.21
						c6.65,5.01,13.31,10.03,19.96,15.04c8.11,6.11,16.23,12.23,24.34,18.34c8.92,6.72,17.84,13.44,26.76,20.17
						c9,6.79,18.01,13.57,27.01,20.35c8.36,6.3,16.73,12.61,25.09,18.91c7.07,5.33,14.14,10.66,21.21,15.99
						c5.1,3.85,10.21,7.69,15.31,11.54c2.41,1.82,4.78,3.71,7.24,5.46c0.1,0.07,0.2,0.15,0.31,0.23c2.25,1.7,6.1,0.43,7.34-1.93
						c1.49-2.82,0.48-5.53-1.93-7.34c-1.66-1.25-3.32-2.5-4.98-3.75c-4.52-3.4-9.04-6.81-13.55-10.21
						c-6.65-5.01-13.31-10.03-19.96-15.04c-8.11-6.11-16.23-12.23-24.34-18.34c-8.92-6.72-17.84-13.44-26.76-20.17
						c-9-6.79-18.01-13.57-27.01-20.35c-8.36-6.3-16.73-12.61-25.09-18.91c-7.07-5.33-14.14-10.66-21.21-15.99
						c-5.1-3.85-10.21-7.69-15.31-11.54c-2.41-1.82-4.78-3.71-7.24-5.46c-0.1-0.07-0.2-0.15-0.31-0.23c-2.25-1.7-6.1-0.43-7.34,1.93
						C196.65,370.41,197.66,373.12,200.06,374.93L200.06,374.93z"/>
				</g>
			</g>
			<g>
				<g>
					<path class="st5" d="M385.84,316.37c-1.66,1.25-3.32,2.5-4.98,3.75c-4.52,3.4-9.04,6.81-13.55,10.21
						c-6.65,5.01-13.31,10.03-19.96,15.04c-8.11,6.11-16.23,12.23-24.34,18.34c-8.92,6.72-17.84,13.44-26.76,20.17
						c-9,6.79-18.01,13.57-27.01,20.35c-8.36,6.3-16.73,12.61-25.09,18.91c-7.07,5.33-14.14,10.66-21.21,15.99
						c-5.1,3.85-10.21,7.69-15.31,11.54c-2.41,1.82-4.83,3.64-7.24,5.46c-0.1,0.08-0.2,0.15-0.31,0.23
						c-1.16,0.88-2.07,1.75-2.47,3.21c-0.35,1.29-0.19,3,0.54,4.14c1.43,2.21,4.95,3.73,7.34,1.93c1.66-1.25,3.32-2.5,4.98-3.75
						c4.52-3.4,9.04-6.81,13.55-10.21c6.65-5.01,13.31-10.03,19.96-15.04c8.11-6.11,16.23-12.23,24.34-18.34
						c8.92-6.72,17.84-13.44,26.76-20.17c9-6.78,18.01-13.57,27.01-20.35c8.36-6.3,16.73-12.61,25.09-18.91
						c7.07-5.33,14.14-10.66,21.21-15.99c5.1-3.85,10.21-7.69,15.31-11.54c2.41-1.82,4.83-3.64,7.24-5.46
						c0.1-0.08,0.2-0.15,0.31-0.23c1.16-0.88,2.07-1.75,2.47-3.21c0.35-1.29,0.19-3-0.54-4.14
						C391.76,316.09,388.24,314.57,385.84,316.37L385.84,316.37z"/>
				</g>
			</g>
			<g>
				<g>
					<path class="st5" d="M385.84,368.56c-1.66,1.25-3.32,2.5-4.98,3.75c-4.52,3.4-9.04,6.81-13.55,10.21
						c-6.65,5.01-13.31,10.03-19.96,15.04c-8.11,6.11-16.23,12.23-24.34,18.34c-8.92,6.72-17.84,13.44-26.76,20.17
						c-9,6.78-18.01,13.57-27.01,20.35c-8.36,6.3-16.73,12.61-25.09,18.91c-7.07,5.33-14.14,10.66-21.21,15.99
						c-5.1,3.85-10.21,7.69-15.31,11.54c-2.41,1.82-4.83,3.64-7.24,5.46c-0.1,0.08-0.2,0.15-0.31,0.23
						c-1.16,0.88-2.07,1.75-2.47,3.21c-0.35,1.29-0.19,3,0.54,4.14c1.43,2.21,4.95,3.73,7.34,1.93c1.66-1.25,3.32-2.5,4.98-3.75
						c4.52-3.4,9.04-6.81,13.55-10.21c6.65-5.01,13.31-10.03,19.96-15.04c8.11-6.11,16.23-12.23,24.34-18.34
						c8.92-6.72,17.84-13.44,26.76-20.17c9-6.78,18.01-13.57,27.01-20.35c8.36-6.3,16.73-12.61,25.09-18.91
						c7.07-5.33,14.14-10.66,21.21-15.99c5.1-3.85,10.21-7.69,15.31-11.54c2.41-1.82,4.83-3.64,7.24-5.46
						c0.1-0.08,0.2-0.15,0.31-0.23c1.16-0.88,2.07-1.75,2.47-3.21c0.35-1.29,0.19-3-0.54-4.14
						C391.76,368.28,388.24,366.76,385.84,368.56L385.84,368.56z"/>
				</g>
			</g>
			<g>
				<g>
					<path class="st5" d="M292.27,304.46c0,2.17,0,4.34,0,6.51c0,5.9,0,11.81,0,17.71c0,8.69,0,17.39,0,26.08
						c0,10.64,0,21.29,0,31.93c0,11.66,0,23.32,0,34.98c0,11.73,0,23.45,0,35.18c0,10.97,0,21.94,0,32.92c0,9.27,0,18.54,0,27.81
						c0,6.64,0,13.28,0,19.92c0,3.15-0.04,6.31,0,9.46c0,0.14,0,0.28,0,0.41c0,2.81,2.47,5.5,5.37,5.37
						c2.91-0.13,5.37-2.36,5.37-5.37c0-2.17,0-4.34,0-6.51c0-5.9,0-11.81,0-17.71c0-8.69,0-17.39,0-26.08c0-10.64,0-21.29,0-31.93
						c0-11.66,0-23.32,0-34.98c0-11.73,0-23.45,0-35.18c0-10.97,0-21.94,0-32.92c0-9.27,0-18.54,0-27.81c0-6.64,0-13.28,0-19.92
						c0-3.15,0.04-6.31,0-9.46c0-0.14,0-0.28,0-0.41c0-2.81-2.47-5.5-5.37-5.37C294.73,299.22,292.27,301.45,292.27,304.46
						L292.27,304.46z"/>
				</g>
			</g>
		</g>
	</g>
	<g>
		<g>
			<path class="st6" d="M331.6,288.56c16.87,3.54,32.48,10.56,46.19,21.15c14.66,11.32,26.02,26.06,33.68,42.88
				c0.41,0.9,0.8,1.8,1.19,2.7c-0.29-0.67,0.22,0.54,0.29,0.71c0.17,0.4,0.33,0.81,0.49,1.21c0.61,1.53,1.18,3.07,1.73,4.62
				c0.85,2.42,1.61,4.88,2.3,7.35c1.13,4.05,7.44,2.33,6.31-1.74c-3.66-13.16-9.56-25.77-17.38-36.97
				c-12.27-17.56-29.2-31.68-48.82-40.35c-7.8-3.45-15.9-6.13-24.24-7.88c-1.73-0.36-3.54,0.51-4.03,2.29
				C328.86,286.16,329.86,288.2,331.6,288.56L331.6,288.56z"/>
		</g>
	</g>
</g>
</svg>
