<svg xmlns="http://www.w3.org/2000/svg" xmlns:xlink="http://www.w3.org/1999/xlink" viewBox="0 0 310.28 310.28"><defs><style>.cls-1{fill:#e0bd2b;}.cls-2{fill:none;}.cls-3{fill:#efd122;}.cls-4{clip-path:url(#clip-path);}.cls-5{clip-path:url(#clip-path-2);}.cls-6{fill:#82770d;opacity:0.36;}.cls-7{fill:#fff7bd;opacity:0.75;}.cls-8{clip-path:url(#clip-path-3);}.cls-9{fill:#ffef9f;}.cls-10{fill:#fff2b0;}</style><clipPath id="clip-path"><circle class="cls-1" cx="155.14" cy="155.14" r="111.8"/></clipPath><clipPath id="clip-path-2"><circle class="cls-2" cx="155.14" cy="155.14" r="111.8"/></clipPath><clipPath id="clip-path-3"><polygon class="cls-2" points="155.14 69.23 155.14 69.23 61.44 155.14 155.14 241.05 155.14 241.05 248.85 155.14 155.14 69.23"/></clipPath></defs><g id="Layer_2" data-name="Layer 2"><g id="Layer_1-2" data-name="Layer 1"><circle class="cls-3" cx="155.14" cy="155.14" r="155.14" transform="translate(-64.26 155.14) rotate(-45)"/><circle class="cls-1" cx="155.14" cy="155.14" r="111.8"/><g class="cls-4"><path class="cls-1" d="M149.6,45.35c22.37.35,39.07,9.5,48.57,14.7,45.16,24.74,63.5,72.73,65.51,96.26,1.38,16.1,2.07,24.15-1.78,32.09-2,4.13-5.49,9.06-4.45,15.6.83,5.23,4.26,9.59,2.67,11.14-1.06,1-3.57.07-3.57,0s4.56,1.42,8.47-.45c1.79-.85,2.94-2.18,5.35-6.24a79.36,79.36,0,0,0,7.57-15.59,102.45,102.45,0,0,0,3.12-10.7c2.35-10.55,3.49-43.32-18.27-84.67-6.07-11.55-9.48-18-16.49-25.85C234.05,58,220.59,51.78,194.16,40c-33.66-15-42.79-13.35-46.34-12.48-9.23,2.26-19.86,8.75-24.52,11.59-5.79,3.54-12.25,7.47-11.58,9.36C112.77,51.45,130.19,45,149.6,45.35Z"/></g><g class="cls-5"><path class="cls-6" d="M119.92,49c59-10.89,100.93,18.64,115.8,37.57,33.09,42.11,31,76.93,22.17,106.73-4.53,15.21-10.29,23.21-9.25,29.75.84,5.23,13.07-9.46,11.48-7.91-1.06,1-3.57.07-3.57,0s4.56,1.42,8.47-.45c1.79-.85,2.94-2.18,5.35-6.24a79.36,79.36,0,0,0,7.57-15.59,102.45,102.45,0,0,0,3.12-10.7c2.35-10.55,3.49-43.32-18.27-84.67-6.07-11.55-9.48-18-16.49-25.85C234.05,58,220.59,51.78,194.16,40c-33.66-15-42.79-13.35-46.34-12.48-9.23,2.26-19.86,8.75-24.52,11.59-5.79,3.54-12.25,7.47-11.58,9.36"/><path class="cls-7" d="M186.52,263.34c-59.24,9.42-100.43-21.16-114.82-40.45C39.67,180,42.58,145.2,52.21,115.63c4.91-15.09,10.86-22.95,10-29.51-.7-5.25-13.3,9.14-11.67,7.62,1.08-1,3.57,0,3.56.09s-4.52-1.53-8.48.24c-1.81.81-3,2.1-5.5,6.1a80.25,80.25,0,0,0-8,15.4,105.44,105.44,0,0,0-3.39,10.62c-2.61,10.48-4.57,43.22,16.14,85.1,5.79,11.7,9,18.26,15.84,26.25,11.91,14,25.21,20.5,51.33,32.94,33.28,15.85,42.45,14.42,46,13.64,9.28-2,20.07-8.25,24.8-11,5.88-3.39,12.43-7.17,11.81-9.07"/></g><g class="cls-8"><path class="cls-9" d="M57.57,62.4l5,3.75L76.1,76.37l20,15,24.34,18.34,26.76,20.16,27,20.36,25.09,18.91,21.22,16,15.31,11.54c2.41,1.82,4.78,3.71,7.24,5.46l.31.24c2.25,1.69,6.1.43,7.35-1.93,1.49-2.82.47-5.53-1.93-7.35l-5-3.75-13.55-10.21-20-15-24.35-18.34-26.75-20.16-27-20.36-25.1-18.91-21.21-16L70.54,58.82c-2.41-1.82-4.79-3.71-7.25-5.46l-.3-.23c-2.26-1.7-6.1-.44-7.35,1.92-1.49,2.83-.48,5.54,1.93,7.35Z"/><path class="cls-9" d="M57.57,114.59l5,3.75L76.1,128.56l20,15,24.34,18.34,26.76,20.16,27,20.36,25.09,18.91,21.22,16,15.31,11.54c2.41,1.82,4.78,3.71,7.24,5.46l.31.23c2.25,1.7,6.1.44,7.35-1.92,1.49-2.82.47-5.53-1.93-7.35l-5-3.75-13.55-10.21-20-15L185.92,198,159.17,177.8l-27-20.36-25.1-18.91-21.21-16L70.54,111c-2.41-1.82-4.79-3.71-7.25-5.46l-.3-.23c-2.26-1.7-6.1-.44-7.35,1.92-1.49,2.83-.48,5.54,1.93,7.35Z"/><path class="cls-9" d="M243.34,56l-5,3.75L224.81,70l-20,15-24.34,18.34-26.76,20.17-27,20.35-25.1,18.91-21.21,16L65.12,190.34l-7.25,5.45-.3.24a5.84,5.84,0,0,0-2.47,3.2,5.53,5.53,0,0,0,.54,4.14c1.43,2.21,5,3.73,7.35,1.93l5-3.76,13.55-10.21,20-15,24.34-18.35,26.76-20.16,27-20.36,25.09-18.9,21.22-16L241.21,71l7.24-5.46.31-.23a5.9,5.9,0,0,0,2.47-3.21,5.54,5.54,0,0,0-.54-4.14c-1.43-2.21-4.95-3.73-7.35-1.92Z"/><path class="cls-9" d="M243.34,108.22l-5,3.75-13.55,10.22-20,15-24.34,18.34-26.76,20.17-27,20.35L101.64,215,80.43,231,65.12,242.52,57.87,248l-.3.24a5.84,5.84,0,0,0-2.47,3.2,5.53,5.53,0,0,0,.54,4.14c1.43,2.21,5,3.73,7.35,1.93l5-3.76,13.55-10.21,20-15,24.34-18.35L152.58,190l27-20.36,25.09-18.91,21.22-16,15.31-11.54,7.24-5.46.31-.23a5.9,5.9,0,0,0,2.47-3.21,5.54,5.54,0,0,0-.54-4.14c-1.43-2.21-4.95-3.73-7.35-1.92Z"/><path class="cls-9" d="M149.77,44.11v233c0,3.15,0,6.3,0,9.45,0,.14,0,.28,0,.42a5.37,5.37,0,0,0,10.74,0V54c0-3.15,0-6.3,0-9.45v-.42a5.37,5.37,0,0,0-10.74,0Z"/></g><path class="cls-10" d="M189.1,28.22a111.79,111.79,0,0,1,79.87,64c.41.89.8,1.8,1.19,2.7-.29-.67.22.54.29.71.17.4.33.81.49,1.21q.92,2.3,1.73,4.62c.85,2.43,1.61,4.88,2.3,7.35,1.13,4,7.45,2.33,6.31-1.74a121.59,121.59,0,0,0-17.38-37,118.16,118.16,0,0,0-48.82-40.35,122.18,122.18,0,0,0-24.24-7.88,3.36,3.36,0,0,0-4,2.29,3.32,3.32,0,0,0,2.29,4Z"/></g></g></svg>